<svg xmlns="http://www.w3.org/2000/svg" xmlns:xlink="http://www.w3.org/1999/xlink" width="58.827" height="58.828" viewBox="0 0 58.827 58.828"><defs><style>.a,.b,.c,.d,.f,.g,.h,.i,.j,.k,.l,.n{fill-rule:evenodd;}.a{fill:url(#a);}.b{fill:#ebe9f4;}.c{fill:#d6d4de;}.d{fill:#a3a1a8;}.e,.f{fill:#d99662;}.g{fill:#a6754f;}.h{fill:#fff;}.i{fill:#1a1a1a;}.j{fill:#c3c1ca;}.k{fill:#f6f5fb;}.l{fill:#e5e3ec;}.m,.n{fill:#131313;}</style><linearGradient id="a" y1="0.5" x2="1" y2="0.5" gradientUnits="objectBoundingBox"><stop offset="0" stop-color="#00e9e6"/><stop offset="1" stop-color="#004cbf"/></linearGradient></defs><path class="a" d="M665.4,69.833a29.413,29.413,0,1,0-29.413-29.413A29.47,29.47,0,0,0,665.4,69.833Z" transform="translate(-635.989 -11.007)"/><g transform="translate(4.51 5.142)"><path class="b" d="M675.347,43.791a35.583,35.583,0,0,1,5.468,1.939,7.738,7.738,0,0,1,3.429,2.61,17.655,17.655,0,0,1,.96,3.489,29.579,29.579,0,0,1-7.831,8.3Z" transform="translate(-635.4 -11.901)"/><path class="c" d="M677.152,58.43l-.1-.787,1.61-.735.04.334Q677.947,57.86,677.152,58.43Z" transform="translate(-635.179 -10.202)"/><path class="b" d="M649.841,43.791a35.621,35.621,0,0,0-5.469,1.939,7.723,7.723,0,0,0-3.427,2.61,17.6,17.6,0,0,0-.962,3.489,29.58,29.58,0,0,0,7.832,8.3Z" transform="translate(-639.982 -11.901)"/><path class="c" d="M647.094,58.43l.1-.787-1.612-.735-.038.334Q646.3,57.86,647.094,58.43Z" transform="translate(-639.262 -10.202)"/><path class="d" d="M672.727,45.624c.258-2.415.052-11.239.37-14.169a49.333,49.333,0,0,1-4.014,7.384,6.763,6.763,0,0,1-5.752,2.871h0a6.762,6.762,0,0,1-5.75-2.868c-1-1.276-2.571-5.422-3.09-7.037.046.609-2.015,3.557-1.974,4.161.167,2.612,1.1,7.614,1.13,9.588,5.382-.784.139.281,9.782.281C665.794,45.835,672.6,45.613,672.727,45.624Z" transform="translate(-638.358 -13.499)"/><rect class="e" width="9.138" height="5.862" transform="translate(20.382 26.154)"/><path class="f" d="M669.495,27.626c3.1-1.227,3.07,1.691,2.5,3.742a4.2,4.2,0,0,1-2.045,2.709C667.246,35.451,670.333,29.165,669.495,27.626Z" transform="translate(-636.246 -14.033)"/><path class="g" d="M670.735,28.2a1.728,1.728,0,0,0-.415.043,12.176,12.176,0,0,1-.438,3.095,15.888,15.888,0,0,0-.394,2.133c.183.043.885-.683,1.008-.845a4.117,4.117,0,0,0,.662-1.377,6.263,6.263,0,0,0,.255-2.084,1.508,1.508,0,0,0-.228-.767A.551.551,0,0,0,670.735,28.2Z" transform="translate(-636.159 -13.921)"/><path class="f" d="M655.085,27.626c-3.1-1.227-3.07,1.691-2.5,3.742a4.2,4.2,0,0,0,2.044,2.709C657.334,35.451,654.245,29.165,655.085,27.626Z" transform="translate(-638.388 -14.033)"/><path class="g" d="M653.668,28.2a1.754,1.754,0,0,1,.416.043,12.131,12.131,0,0,0,.438,3.095,15.6,15.6,0,0,1,.392,2.133c-.183.043-.884-.683-1.005-.845a4.118,4.118,0,0,1-.663-1.377,6.265,6.265,0,0,1-.256-2.084,1.544,1.544,0,0,1,.228-.767A.552.552,0,0,1,653.668,28.2Z" transform="translate(-638.298 -13.921)"/><path class="g" d="M657.761,37.736h9.506v5.316l-2.891.522-5.935-4.224Z" transform="translate(-637.678 -12.686)"/><path class="f" d="M659.834,18.254h6.791c3.563,0,6.971,2.95,6.478,6.479l-1.227,8.813a14.892,14.892,0,0,1-2.895,7,6.763,6.763,0,0,1-5.752,2.871h0a6.762,6.762,0,0,1-5.75-2.868,15.162,15.162,0,0,1-2.9-7.007l-1.227-8.813C652.863,21.2,656.27,18.254,659.834,18.254Z" transform="translate(-638.256 -15.21)"/><path class="h" d="M659.182,35.642c1.135.1,2.2.269,3.286.277,1.089-.008,2.148-.176,3.286-.277a4.233,4.233,0,0,1-6.572,0Z" transform="translate(-637.494 -12.957)"/><path class="i" d="M666.2,28.47a.616.616,0,1,0,.616.617A.616.616,0,0,0,666.2,28.47Z" transform="translate(-636.665 -13.886)"/><path class="i" d="M667.757,29.079h-2.989S666.507,27.538,667.757,29.079Z" transform="translate(-636.771 -13.896)"/><path class="i" d="M658.263,28.472a.616.616,0,1,1-.616.616A.616.616,0,0,1,658.263,28.472Z" transform="translate(-637.693 -13.886)"/><path class="i" d="M656.907,29.095H659.9S658.159,27.554,656.907,29.095Z" transform="translate(-637.789 -13.894)"/><path class="i" d="M658.7,34.427c-1.357.377-.8,3.592-.8,3.6l-.027.585c0-.008.488-2.8,1.3-2.978a14.594,14.594,0,0,1,6.954,0c.813.182,1.3,2.97,1.3,2.978l-.026-.585c0-.011.552-3.226-.8-3.6a21.562,21.562,0,0,0-3.48-.561v-.009c-.157-.006-.313-.007-.469-.006s-.313,0-.469.006v.009A21.563,21.563,0,0,0,658.7,34.427Z" transform="translate(-637.675 -13.189)"/><path class="b" d="M644.293,57.715c-1.241-6.474-2.458-10.027-1.882-10.635,1.737-1.833,12.314-5.124,15.712-5.241.132,0,.269-.007.408-.008a17.693,17.693,0,0,0,12.29,0c.156,0,.306,0,.453.008,3.379.122,13.946,3.415,15.674,5.239.569.6-.615,4.082-1.84,10.419a29.407,29.407,0,0,1-40.815.216Z" transform="translate(-639.686 -12.155)"/><path class="j" d="M646.873,44.766a29.223,29.223,0,0,1,10.975-2.928c.1,0-.028,0,.074,0,.438,7.012,1.052,12.509,1.363,17.044a9.615,9.615,0,0,1-2.967.068c-1.077-.278-1.834-2.73-3.417-2.888-4.693-.466-6.413-7.468-8.509-10.043Z" transform="translate(-639.411 -12.154)"/><path class="k" d="M658.178,40c1.891,1.605,2.157,2.051,4.606,2.046l-.044,3.316c-1.921-.26-5.988-2.537-6.371-3.294C657.219,40.99,658.178,40,658.178,40Z" transform="translate(-637.859 -12.392)"/><path class="k" d="M666.925,40c-1.854,1.572-2.147,2.032-4.456,2.046H662.3c-1.3,0-1.572.714-1.589,1.432a1.813,1.813,0,0,0,1.531,1.884c.058-.008.237-.018.3-.028,1.985-.367,5.819-2.531,6.191-3.266C667.883,40.99,666.925,40,666.925,40Z" transform="translate(-637.296 -12.392)"/><path class="k" d="M661.086,41.815h2.333v24c-.42.018-.844.029-1.268.029-.356,0-.712-.009-1.064-.021Z" transform="translate(-637.248 -12.157)"/><path class="j" d="M662.2,42.708a.682.682,0,1,1-.681.682A.683.683,0,0,1,662.2,42.708Z" transform="translate(-637.192 -12.041)"/><path class="j" d="M662.2,46.612a.682.682,0,1,1-.681.682A.683.683,0,0,1,662.2,46.612Z" transform="translate(-637.192 -11.536)"/><path class="j" d="M662.2,55.288a.682.682,0,1,1-.681.682A.683.683,0,0,1,662.2,55.288Z" transform="translate(-637.192 -10.411)"/><path class="i" d="M660.633,28.381a.649.649,0,0,0-.354-.857,22.592,22.592,0,0,0-2.831-.146,2.562,2.562,0,0,0-.817.052,3.375,3.375,0,0,0-.99.925c-.069.12.648-.221,1-.23C657.715,28.1,659.151,28.451,660.633,28.381Z" transform="translate(-637.953 -14.029)"/><path class="i" d="M664.308,28.381a.65.65,0,0,1,.355-.857,22.615,22.615,0,0,1,2.831-.146,2.57,2.57,0,0,1,.818.052,3.4,3.4,0,0,1,.99.925c.068.12-.65-.221-1-.23C667.228,28.1,665.791,28.451,664.308,28.381Z" transform="translate(-636.838 -14.029)"/><path class="i" d="M671.759,32.13l.247-1.777V29.184c-.594.051-4.329,12.914-7.639,9.757a1.723,1.723,0,0,0-.787-.42v0a2.053,2.053,0,0,0-.469-.055,2.03,2.03,0,0,0-.469.055v0a1.742,1.742,0,0,0-.79.42c-3.31,3.157-7.045-9.706-7.638-9.757v1.169l.247,1.777c1.143,8.215,2.785,14.744,8.649,14.777C669.136,46.94,670.615,40.345,671.759,32.13Z" transform="translate(-638.138 -13.794)"/><path class="j" d="M679.018,44.766a29.238,29.238,0,0,0-10.976-2.928.724.724,0,0,0-.073,0c-.437,7.012-1.052,12.509-1.366,17.044a9.624,9.624,0,0,0,2.969.068c1.078-.278,1.833-2.73,3.418-2.888,4.691-.466,6.411-7.468,8.509-10.043Z" transform="translate(-636.533 -12.154)"/><path class="l" d="M673.26,25.224c-.933,9.678-1.745,27.956-2.395,37.376a4.36,4.36,0,0,0,2.123.1c1.076-.279,2.505-1.592,4.079-1.84,2.956-.468,5.994-8.821,8.091-11.4-3.519-3-8.227-15.792-9.4-21.609-.406-2.009-1.292-4.9-1.4-5.8-.61-5.027-6.058-6.562-9.894-6.489-3.837-.072-9.285,1.463-9.894,6.489-.11.9-1,3.793-1.4,5.8-1.172,5.816-5.88,18.6-9.4,21.609,2.1,2.575,5.134,10.929,8.092,11.4,1.571.249,3,1.561,4.079,1.84a4.356,4.356,0,0,0,2.121-.1c-.648-9.421-1.462-27.7-2.395-37.376,1.288.2,2.082,1.121,3.7,1.193,1.307.058,3.157-.567,5.065-.613h.052c1.909.046,3.758.671,5.066.613C671.178,26.344,671.973,25.42,673.26,25.224Z" transform="translate(-639.491 -15.559)"/><rect class="m" width="21.179" height="1.93" rx="0.854" transform="translate(14.345 4.528)"/><path class="n" d="M653.274,23.206h20.093a.967.967,0,0,0,.964-.965h0a.968.968,0,0,0-.964-.966H653.274a.968.968,0,0,0-.965.966h0A.967.967,0,0,0,653.274,23.206Z" transform="translate(-638.385 -14.818)"/></g></svg>