<svg xmlns="http://www.w3.org/2000/svg" xmlns:xlink="http://www.w3.org/1999/xlink" width="58.827" height="58.827" viewBox="0 0 58.827 58.827"><defs><style>.a{fill:url(#a);}.b,.h{fill:#f9d5b4;}.c{fill:#29292a;}.c,.d,.e,.f,.g,.h,.i,.j,.k{fill-rule:evenodd;}.d{fill:#141414;}.e{fill:#f2c4a5;}.f{fill:#363637;}.g{fill:#c3c1ca;}.i{fill:#fff;}.j{fill:#1a1a1a;}.k{fill:#ebe9f4;}</style><linearGradient id="a" y1="0.5" x2="1" y2="0.5" gradientUnits="objectBoundingBox"><stop offset="0" stop-color="#18d5fc"/><stop offset="1" stop-color="#b64cbf"/></linearGradient></defs><g transform="translate(-11.835 -11.835)"><circle class="a" cx="29.413" cy="29.413" r="29.413" transform="translate(11.835 11.835)"/><g transform="translate(20.322 17.207)"><rect class="b" width="7.31" height="4.69" transform="translate(17.255 27.784)"/><g transform="translate(0 32.452)"><g transform="translate(32.962)"><path class="c" d="M368.574,44.493a28.43,28.43,0,0,1,4.375,1.551,6.188,6.188,0,0,1,2.743,2.089c.477.938,1.141,4.4,1.775,8.616a29.5,29.5,0,0,1-6.739,5.1Z" transform="translate(-368.574 -44.493)"/><path class="d" d="M370.55,60.492l-.61-4.918,1.289-.588.558,4.786Q371.179,60.145,370.55,60.492Z" transform="translate(-368.397 -43.134)"/></g><path class="c" d="M348.285,44.493a28.468,28.468,0,0,0-4.376,1.551,6.2,6.2,0,0,0-2.743,2.089c-.477.938-1.14,4.4-1.773,8.616a29.472,29.472,0,0,0,6.739,5.1Z" transform="translate(-339.393 -44.493)"/><path class="d" d="M345.5,60.492l.61-4.918-1.288-.588-.558,4.785Q344.872,60.146,345.5,60.492Z" transform="translate(-338.762 -43.134)"/></g><path class="c" d="M344.593,61.367c-1.134-8.882-3.043-13.669-2.432-14.314,1.389-1.466,9.852-4.1,12.569-4.192.107,0,.216-.006.328-.007a14.146,14.146,0,0,0,9.832,0c.124,0,.245,0,.362.008,2.7.1,11.157,2.731,12.538,4.19.611.645-1.3,5.432-2.431,14.315a29.43,29.43,0,0,1-30.766,0Z" transform="translate(-339.05 -12.253)"/><path class="e" d="M354.455,39.579h7.606v4.252l-2.313.418L355,40.87Z" transform="translate(-337.442 -12.677)"/><path class="f" d="M354.8,41.394c1.514,1.283,1.727,1.641,3.686,1.637l-.035,2.652c-1.538-.208-4.79-2.029-5.1-2.635C354.038,42.182,354.8,41.394,354.8,41.394Z" transform="translate(-337.584 -12.442)"/><path class="f" d="M361.8,41.394c-1.482,1.257-1.717,1.625-3.565,1.636H358.1c-1.038,0-1.259.57-1.272,1.144a1.45,1.45,0,0,0,1.224,1.508c.046-.006.191-.014.239-.024,1.588-.293,4.656-2.024,4.953-2.612C362.565,42.182,361.8,41.394,361.8,41.394Z" transform="translate(-337.134 -12.442)"/><path class="f" d="M356.859,42.843h2.395V65.684c-.4.015-.8.026-1.2.026s-.8-.011-1.2-.026Z" transform="translate(-337.13 -12.254)"/><path class="g" d="M357.991,43.436a.682.682,0,1,1-.682.682A.682.682,0,0,1,357.991,43.436Z" transform="translate(-337.072 -12.178)"/><path class="g" d="M357.991,60.343a.683.683,0,1,1-.682.682A.682.682,0,0,1,357.991,60.343Z" transform="translate(-337.072 -9.987)"/><path class="g" d="M357.991,46.559a.682.682,0,1,1-.682.682A.682.682,0,0,1,357.991,46.559Z" transform="translate(-337.072 -11.773)"/><path class="g" d="M357.991,53.5a.682.682,0,1,1-.682.682A.682.682,0,0,1,357.991,53.5Z" transform="translate(-337.072 -10.874)"/><g transform="translate(28.522 14.369)"><path class="h" d="M365.324,28.775c3.1-1.227,3.07,1.691,2.5,3.741a4.2,4.2,0,0,1-2.046,2.71C363.075,36.6,366.162,30.313,365.324,28.775Z" transform="translate(-364.643 -28.484)"/><path class="e" d="M366.563,29.172a1.8,1.8,0,0,0-.415.043,12.164,12.164,0,0,1-.438,3.1,15.864,15.864,0,0,0-.393,2.134c.183.043.884-.685,1.007-.845a4.1,4.1,0,0,0,.662-1.378,6.258,6.258,0,0,0,.256-2.083,1.508,1.508,0,0,0-.228-.767A.552.552,0,0,0,366.563,29.172Z" transform="translate(-364.556 -28.395)"/></g><g transform="translate(9.853 14.369)"><path class="h" d="M350.914,28.775c-3.1-1.227-3.071,1.691-2.5,3.741a4.2,4.2,0,0,0,2.046,2.71C353.162,36.6,350.075,30.313,350.914,28.775Z" transform="translate(-348.116 -28.484)"/><path class="e" d="M349.5,29.172a1.815,1.815,0,0,1,.416.043,12.108,12.108,0,0,0,.437,3.1,15.857,15.857,0,0,1,.393,2.134c-.183.043-.884-.685-1.006-.845a4.1,4.1,0,0,1-.662-1.378,6.257,6.257,0,0,1-.256-2.083,1.519,1.519,0,0,1,.228-.767A.552.552,0,0,1,349.5,29.172Z" transform="translate(-348.027 -28.395)"/></g><path class="h" d="M355.663,19.4h6.79c3.564,0,6.971,2.95,6.479,6.479L367.7,34.694a14.878,14.878,0,0,1-2.9,7,6.761,6.761,0,0,1-5.752,2.871h0a6.764,6.764,0,0,1-5.748-2.867,15.167,15.167,0,0,1-2.9-7.008l-1.227-8.812C348.692,22.352,352.1,19.4,355.663,19.4Z" transform="translate(-338.131 -15.291)"/><path class="i" d="M354.761,36.023a19.64,19.64,0,0,0,6.962,0A4.029,4.029,0,0,1,354.761,36.023Z" transform="translate(-337.402 -13.138)"/><path class="j" d="M350.3,26.485c-.383,2.705.038,4.7,0,7.245-.237.044-.594-1.383-.648-1.616a21.944,21.944,0,0,1-.453-9.784c.61-5.028,6.057-6.562,9.893-6.489,3.836-.072,9.284,1.462,9.894,6.489a21.943,21.943,0,0,1-.454,9.784c-.054.234-.41,1.66-.647,1.616-.035-2.54.386-4.54,0-7.245-.486-3.434-4.589-5.527-8.8-5.63C354.885,20.958,350.781,23.051,350.3,26.485Z" transform="translate(-338.166 -15.753)"/><g transform="translate(23.773 16.479)"><path class="j" d="M362.232,30.448a.77.77,0,1,0,.77.77A.771.771,0,0,0,362.232,30.448Z" transform="translate(-360.306 -30.339)"/><path class="j" d="M364.177,31.207h-3.738S362.613,29.282,364.177,31.207Z" transform="translate(-360.439 -30.352)"/></g><g transform="translate(14.501 16.499)"><path class="j" d="M353.926,30.447a.77.77,0,1,1-.77.77A.77.77,0,0,1,353.926,30.447Z" transform="translate(-352.111 -30.36)"/><path class="j" d="M352.231,31.225h3.738S353.794,29.3,352.231,31.225Z" transform="translate(-352.231 -30.37)"/></g><path class="j" d="M355.776,29.462a.5.5,0,0,0-.332-.638,17.416,17.416,0,0,0-2.2.079,1.987,1.987,0,0,0-.628.095,2.649,2.649,0,0,0-.7.782c-.044.1.487-.215.761-.245C353.5,29.442,354.634,29.617,355.776,29.462Z" transform="translate(-337.771 -14.072)"/><path class="j" d="M360.509,29.462a.5.5,0,0,1,.332-.638,17.408,17.408,0,0,1,2.2.079,1.978,1.978,0,0,1,.628.095,2.671,2.671,0,0,1,.7.782c.044.1-.487-.215-.761-.245C362.785,29.442,361.651,29.617,360.509,29.462Z" transform="translate(-336.661 -14.072)"/><path class="k" d="M348.81,27.518h20.578V23.663a7.924,7.924,0,0,0-7.9-7.9H356.71a7.924,7.924,0,0,0-7.9,7.9Z" transform="translate(-338.173 -15.763)"/><g transform="translate(8.422 44.192)"><g transform="translate(16.885)"><path class="f" d="M361.8,54.886h8.125v6.478a29.226,29.226,0,0,1-7.709,2.394l-.416-.512Z" transform="translate(-361.797 -54.886)"/><path class="g" d="M365.447,55.53a.682.682,0,1,1-.682.683A.684.684,0,0,1,365.447,55.53Z" transform="translate(-361.412 -54.803)"/></g><path class="f" d="M346.849,54.886h8.124v8.36l-.416.512a29.2,29.2,0,0,1-7.708-2.394Z" transform="translate(-346.849 -54.886)"/><path class="g" d="M350.5,55.53a.682.682,0,1,1-.682.683A.683.683,0,0,1,350.5,55.53Z" transform="translate(-346.464 -54.803)"/></g></g></g></svg>