<svg xmlns="http://www.w3.org/2000/svg" xmlns:xlink="http://www.w3.org/1999/xlink" width="58.827" height="58.827" viewBox="0 0 58.827 58.827"><defs><style>.a{fill:url(#a);}.b{fill:#e3ceb1;}.b,.c,.e,.f,.h,.i,.j,.k,.l,.m{fill-rule:evenodd;}.c{fill:#ad9d88;}.d,.h{fill:#d99662;}.e{fill:#a6754f;}.f,.g{fill:#eddfcc;}.i{fill:#cfaf95;}.j{fill:#fff;}.k{fill:#727272;}.l{fill:#1a1a1a;}.m{fill:#29292a;}</style><linearGradient id="a" y1="0.5" x2="1" y2="0.5" gradientUnits="objectBoundingBox"><stop offset="0" stop-color="#7effd9"/><stop offset="1" stop-color="#007f7d"/></linearGradient></defs><g transform="translate(-5.971 -5.971)"><circle class="a" cx="29.413" cy="29.413" r="29.413" transform="translate(5.971 5.971)"/><g transform="translate(16.041 10.247)"><g transform="translate(30.496 29.888)"><path class="b" d="M306.971,41.253a23.278,23.278,0,0,1,3.555,1.261,5.032,5.032,0,0,1,2.229,1.7c.652,1.282,1.736,8.384,2.407,14.448a29.455,29.455,0,0,1-5.642,3.874l-.33-3.385Z" transform="translate(-306.971 -41.253)"/><path class="c" d="M309.38,61.426l-.314-3.182v-.012l-.019-.187-.965-7.787,1.047-.479,1.291,11.074Q309.908,61.149,309.38,61.426Z" transform="translate(-306.827 -40.148)"/></g><g transform="translate(0 29.888)"><path class="b" d="M288.162,41.253a23.275,23.275,0,0,0-3.555,1.261,5.021,5.021,0,0,0-2.228,1.7c-.653,1.282-1.737,8.384-2.407,14.448a29.455,29.455,0,0,0,5.641,3.873l.33-3.384Z" transform="translate(-279.973 -41.253)"/><path class="c" d="M285.082,61.426l.315-3.182v-.012l.019-.187.965-7.787-1.047-.479-1.291,11.074Q284.556,61.149,285.082,61.426Z" transform="translate(-279.446 -40.148)"/></g><rect class="d" width="5.939" height="3.81" transform="translate(16.405 26.16)"/><path class="e" d="M294.323,37.317h6.18v3.455l-1.88.34-3.857-2.746Z" transform="translate(-278.114 -11.875)"/><path class="b" d="M285.632,62.99c-.025-12.492-1.937-19.5-1.281-20.189,1.128-1.192,8-2.74,10.212-2.817.087,0,.175,0,.265-.006a11.488,11.488,0,0,0,7.988,0c.1,0,.2,0,.294.006,2.2.079,9.066,1.631,10.189,2.816.655.691-1.25,7.675-1.281,20.13a29.457,29.457,0,0,1-26.387.059Z" transform="translate(-279.424 -11.53)"/><path class="f" d="M294.594,38.792c1.231,1.043,1.4,1.333,2.994,1.329l-.028,2.155a9.7,9.7,0,0,1-4.141-2.141C293.971,39.432,294.594,38.792,294.594,38.792Z" transform="translate(-278.231 -11.684)"/><path class="f" d="M300.279,38.792c-1.2,1.021-1.4,1.32-2.9,1.329h-.107c-.844,0-1.023.464-1.034.931a1.178,1.178,0,0,0,1,1.224c.037,0,.154-.011.194-.019a9.819,9.819,0,0,0,4.025-2.121C300.9,39.432,300.279,38.792,300.279,38.792Z" transform="translate(-277.865 -11.684)"/><rect class="g" width="1.864" height="20.905" transform="translate(18.443 28.438)"/><path class="c" d="M297.224,40.42a.59.59,0,1,1-.59.59A.589.589,0,0,1,297.224,40.42Z" transform="translate(-277.814 -11.473)"/><path class="c" d="M297.224,54.158a.589.589,0,1,1-.59.59A.588.588,0,0,1,297.224,54.158Z" transform="translate(-277.814 -9.693)"/><path class="c" d="M297.224,42.958a.589.589,0,1,1-.59.59A.588.588,0,0,1,297.224,42.958Z" transform="translate(-277.814 -11.144)"/><path class="c" d="M297.224,48.6a.588.588,0,1,1-.59.588A.588.588,0,0,1,297.224,48.6Z" transform="translate(-277.814 -10.413)"/><g transform="translate(8.933 13.445)"><g transform="translate(17.664)"><path class="h" d="M304.156,26.968c2.9-1.149,2.872,1.581,2.338,3.5A3.93,3.93,0,0,1,304.581,33C302.052,34.289,304.941,28.406,304.156,26.968Z" transform="translate(-303.519 -26.695)"/><path class="e" d="M305.338,27.34a3.63,3.63,0,0,0-.584.04,11.428,11.428,0,0,1-.41,2.9,14.869,14.869,0,0,0-.368,2c.171.041,1.025-.639,1.137-.791a3.831,3.831,0,0,0,.62-1.289,5.834,5.834,0,0,0,.239-1.95,1.424,1.424,0,0,0-.212-.717A.515.515,0,0,0,305.338,27.34Z" transform="translate(-303.46 -26.612)"/></g><path class="h" d="M290.5,26.968c-2.9-1.149-2.872,1.581-2.338,3.5A3.93,3.93,0,0,0,290.073,33C292.6,34.289,289.714,28.406,290.5,26.968Z" transform="translate(-287.881 -26.695)"/><path class="e" d="M289.173,27.34a1.689,1.689,0,0,1,.389.04,11.328,11.328,0,0,0,.41,2.9,14.669,14.669,0,0,1,.367,2c-.171.041-.828-.639-.941-.791a3.831,3.831,0,0,1-.62-1.289,5.863,5.863,0,0,1-.239-1.95,1.412,1.412,0,0,1,.214-.717A.511.511,0,0,1,289.173,27.34Z" transform="translate(-287.797 -26.612)"/></g><path class="h" d="M294.986,18.2h6.354c3.334,0,6.522,2.761,6.062,6.062l-1.149,8.247a13.941,13.941,0,0,1-2.709,6.553,6.329,6.329,0,0,1-5.382,2.686h0a6.329,6.329,0,0,1-5.379-2.683,14.2,14.2,0,0,1-2.712-6.556l-1.149-8.247C288.463,20.959,291.65,18.2,294.986,18.2Z" transform="translate(-278.819 -14.352)"/><path class="i" d="M301.19,31.35a4.819,4.819,0,0,0,2.161-.529,2.148,2.148,0,0,0,1-1.078,1.459,1.459,0,0,0,.1-.558,1.141,1.141,0,0,0-.134-.512,1.491,1.491,0,0,0-.812-.655,6.374,6.374,0,0,0-2.814-.306,2.626,2.626,0,0,0-1.825.776c-.017.021-.032.043-.044.062a1.733,1.733,0,0,0-.272,1.18,1.608,1.608,0,0,0,.678,1.1c.026.018.051.036.075.051A3.41,3.41,0,0,0,301.19,31.35Z" transform="translate(-277.568 -13.124)"/><path class="i" d="M291.522,30.821a4.82,4.82,0,0,0,2.161.529,3.41,3.41,0,0,0,1.89-.471h0a.827.827,0,0,0,.075-.05,1.609,1.609,0,0,0,.678-1.1,1.738,1.738,0,0,0-.271-1.18h0c-.019-.029-.033-.05-.042-.062a2.631,2.631,0,0,0-1.826-.776,6.374,6.374,0,0,0-2.814.306,1.491,1.491,0,0,0-.812.655,1.139,1.139,0,0,0-.133.512,1.418,1.418,0,0,0,.1.558A2.146,2.146,0,0,0,291.522,30.821Z" transform="translate(-278.619 -13.124)"/><path class="j" d="M293.9,33.682a19.928,19.928,0,0,0,7.051,0A4.081,4.081,0,0,1,293.9,33.682Z" transform="translate(-278.168 -12.346)"/><g transform="translate(22.007 15.713)"><path class="k" d="M301.133,28.794a.721.721,0,1,0,.721.721A.721.721,0,0,0,301.133,28.794Z" transform="translate(-299.332 -28.692)"/><path class="k" d="M302.952,29.5h-3.5S301.489,27.7,302.952,29.5Z" transform="translate(-299.456 -28.704)"/></g><g transform="translate(13.331 15.733)"><path class="k" d="M293.361,28.794a.72.72,0,1,1-.72.721A.72.72,0,0,1,293.361,28.794Z" transform="translate(-291.663 -28.712)"/><path class="k" d="M291.775,29.522h3.5S293.238,27.72,291.775,29.522Z" transform="translate(-291.775 -28.721)"/></g><path class="l" d="M295.093,27.09a.472.472,0,0,0-.312-.6,16.027,16.027,0,0,0-2.057.075,1.825,1.825,0,0,0-.587.088,2.472,2.472,0,0,0-.657.732c-.042.091.455-.2.712-.229C292.962,27.07,294.023,27.234,295.093,27.09Z" transform="translate(-278.483 -13.278)"/><path class="l" d="M299.52,27.09a.471.471,0,0,1,.311-.6,16.026,16.026,0,0,1,2.057.075,1.826,1.826,0,0,1,.587.088,2.457,2.457,0,0,1,.657.732c.042.091-.455-.2-.712-.229C301.65,27.07,300.589,27.234,299.52,27.09Z" transform="translate(-277.444 -13.278)"/><path class="m" d="M290.452,28.276l-1.209-1.491V27.4l1.209,1.491Z" transform="translate(-278.772 -13.239)"/><path class="m" d="M303.881,28.276l1.208-1.491V27.4l-1.208,1.491Z" transform="translate(-276.875 -13.239)"/><path class="l" d="M289.964,24.825c-.357,2.532.037,4.4,0,6.78-.221.042-.556-1.293-.607-1.511a20.545,20.545,0,0,1-.424-9.156c.57-4.7,5.667-6.139,9.257-6.073,3.59-.067,8.687,1.369,9.258,6.073a20.544,20.544,0,0,1-.425,9.156c-.051.218-.385,1.553-.607,1.511-.033-2.377.363-4.247,0-6.78-.454-3.214-4.295-5.171-8.231-5.266C294.258,19.654,290.418,21.611,289.964,24.825Z" transform="translate(-278.852 -14.784)"/><path class="m" d="M293.736,31.894a5.281,5.281,0,0,1-2.389-.586,2.637,2.637,0,0,1-1.221-1.331,1.946,1.946,0,0,1-.134-.747,1.629,1.629,0,0,1,.192-.733,1.971,1.971,0,0,1,1.066-.879,6.9,6.9,0,0,1,3.044-.338,3.081,3.081,0,0,1,2.169.978c.025.034.044.061.055.079h0a2.225,2.225,0,0,1,.349,1.512,2.1,2.1,0,0,1-.878,1.43l-.091.063h0a3.892,3.892,0,0,1-2.162.55Zm-2.157-1.017a4.82,4.82,0,0,0,2.161.529,3.41,3.41,0,0,0,1.89-.471h0a.829.829,0,0,0,.075-.05,1.609,1.609,0,0,0,.678-1.1,1.738,1.738,0,0,0-.271-1.18h0c-.019-.029-.033-.05-.042-.062a2.631,2.631,0,0,0-1.827-.776,6.374,6.374,0,0,0-2.814.306,1.491,1.491,0,0,0-.812.655,1.138,1.138,0,0,0-.133.512,1.416,1.416,0,0,0,.1.558A2.146,2.146,0,0,0,291.578,30.877Z" transform="translate(-278.675 -13.18)"/><path class="m" d="M298.891,29.041a3.165,3.165,0,0,0-3.194,0l-.177-.456a3.651,3.651,0,0,1,3.551,0Z" transform="translate(-277.959 -13.066)"/><g transform="translate(11.969 7.314)"><path class="l" d="M293.072,23.229s1.786,2.792,2.6,3.182,1.006.194,1.006.194l-1.526-4.644Z" transform="translate(-290.245 -21.178)"/><path class="l" d="M295.041,23.229s1.787,2.792,2.6,3.182,1.006.194,1.006.194l-1.526-4.644Z" transform="translate(-289.99 -21.178)"/><path class="l" d="M297.283,23.229s1.785,2.792,2.6,3.182,1.006.194,1.006.194l-1.525-4.644Z" transform="translate(-289.699 -21.178)"/><path class="l" d="M298.971,22.534s1.786,2.792,2.6,3.182,1.008.194,1.008.194l-1.527-4.643Z" transform="translate(-289.48 -21.268)"/><path class="l" d="M290.569,22.833s1.786,2.792,2.6,3.182,1.006.194,1.006.194l-1.526-4.644Z" transform="translate(-290.569 -21.229)"/></g><path class="b" d="M288.574,25.792H307.83V22.185a7.413,7.413,0,0,0-7.393-7.392h-4.471a7.413,7.413,0,0,0-7.392,7.392Z" transform="translate(-278.859 -14.793)"/><path class="m" d="M303.638,31.308a5.277,5.277,0,0,1-2.388.586,3.893,3.893,0,0,1-2.163-.55c-.033-.021-.063-.043-.09-.062a2.1,2.1,0,0,1-.879-1.43,2.226,2.226,0,0,1,.349-1.512c.019-.029.037-.056.055-.08a3.081,3.081,0,0,1,2.169-.978,6.9,6.9,0,0,1,3.044.338,1.974,1.974,0,0,1,1.067.879,1.63,1.63,0,0,1,.192.733,1.949,1.949,0,0,1-.137.747,2.635,2.635,0,0,1-1.22,1.331Zm-2.392.1a4.82,4.82,0,0,0,2.161-.529,2.148,2.148,0,0,0,1-1.078,1.459,1.459,0,0,0,.1-.558,1.141,1.141,0,0,0-.134-.512,1.491,1.491,0,0,0-.812-.655,6.374,6.374,0,0,0-2.814-.306,2.626,2.626,0,0,0-1.825.776c-.017.021-.032.043-.044.062a1.733,1.733,0,0,0-.272,1.18,1.608,1.608,0,0,0,.678,1.1c.026.018.051.036.075.051A3.41,3.41,0,0,0,301.246,31.406Z" transform="translate(-277.625 -13.18)"/><g transform="translate(24.152 14.556)"><path class="j" d="M301.355,31.315a5.152,5.152,0,0,0,.6-.11V27.732c-.2-.026-.4-.044-.6-.053Z" transform="translate(-301.355 -27.679)"/><path class="j" d="M302.228,31.083a4.246,4.246,0,0,0,.644-.276c.044-.025.088-.05.131-.076V28a4.806,4.806,0,0,0-.775-.216Z" transform="translate(-301.242 -27.666)"/></g></g></g></svg>