<svg xmlns="http://www.w3.org/2000/svg" xmlns:xlink="http://www.w3.org/1999/xlink" width="58.825" height="58.828" viewBox="0 0 58.825 58.828"><defs><style>.a,.b,.c,.d,.e,.g,.h,.i,.j,.k{fill-rule:evenodd;}.a{fill:url(#a);}.b{fill:#ebe9f4;}.c{fill:#d6d4de;}.d,.f{fill:#d99662;}.e{fill:#a6754f;}.g,.l{fill:#f6f5fb;}.h{fill:#c3c1ca;}.i{fill:#fff;}.j{fill:#1a1a1a;}.k{fill:#29292a;}</style><linearGradient id="a" y1="0.5" x2="1" y2="0.5" gradientUnits="objectBoundingBox"><stop offset="0" stop-color="#f20011"/><stop offset="1" stop-color="#cc7f7d"/></linearGradient></defs><path class="a" d="M239.65,69.833a29.413,29.413,0,1,0-29.413-29.413A29.469,29.469,0,0,0,239.65,69.833Z" transform="translate(-210.237 -11.007)"/><g transform="translate(12.774 6.49)"><g transform="translate(25.629 28.646)"><path class="b" d="M244.235,42.113a22.064,22.064,0,0,1,3.075.952,4.306,4.306,0,0,1,1.927,1.281c.659,1.128,1.789,7.749,2.3,12.616.1.96.219,2.243.342,3.686a29.412,29.412,0,0,1-4.847,2.7l-.914-8.192Z" transform="translate(-244.235 -42.113)"/><path class="c" d="M246.928,62.558l-.91-8.035v-.01L246,54.372l-.836-5.879.906-.36,1.866,13.961C247.6,62.255,247.267,62.409,246.928,62.558Z" transform="translate(-244.115 -41.333)"/></g><g transform="translate(0 28.646)"><path class="b" d="M229.193,42.113a22.065,22.065,0,0,0-3.075.952,4.307,4.307,0,0,0-1.927,1.281c-.657,1.128-1.789,7.749-2.3,12.616-.1.96-.219,2.243-.342,3.686a29.5,29.5,0,0,0,4.847,2.7l.914-8.192Z" transform="translate(-221.546 -42.113)"/><path class="c" d="M225.942,62.558l.91-8.035v-.01l.016-.141.836-5.879-.906-.36-1.866,13.961C225.265,62.255,225.6,62.409,225.942,62.558Z" transform="translate(-221.107 -41.333)"/></g><g transform="translate(5.948 41.462)"><path class="b" d="M226.812,62.331l0-.232.258-8.608c3.758-.021,6.563-.032,10.308-.032s6.633.239,10.392.261l.256,8.61v.062a29.5,29.5,0,0,1-21.217-.061Z" transform="translate(-226.812 -53.459)"/><path class="c" d="M237.444,63.292l1.618-2.034.107,1.909C238.6,63.227,238.023,63.267,237.444,63.292Z" transform="translate(-225.434 -52.449)"/><path class="c" d="M233.374,63.141l.1-1.883,1.61,2.024Q234.223,63.236,233.374,63.141Z" transform="translate(-225.962 -52.449)"/></g><path class="b" d="M226.512,63.683l.086-1.325c.617-12.093-.7-19.023-.149-19.609a16.914,16.914,0,0,1,5.233-.861c.063,0,2.918.473,2.983.473a7.759,7.759,0,0,0,2.9.52h.012a7.759,7.759,0,0,0,2.9-.52c.066,0,2.921-.476,2.983-.473a16.933,16.933,0,0,1,5.234.861c.555.586-.768,7.516-.15,19.609l.086,1.325a29.485,29.485,0,0,1-22.109,0Z" transform="translate(-220.929 -13.496)"/><g transform="translate(6.399 13.646)"><path class="d" d="M243.246,29.1c2.842-1.125,2.815,1.55,2.291,3.43a3.85,3.85,0,0,1-1.875,2.485C241.183,36.276,244.014,30.51,243.246,29.1Z" transform="translate(-225.214 -28.833)"/><path class="e" d="M244.4,29.465a3.48,3.48,0,0,0-.573.04,11.158,11.158,0,0,1-.4,2.837,14.4,14.4,0,0,0-.36,1.956c.167.04,1-.627,1.115-.775a3.773,3.773,0,0,0,.608-1.263,5.715,5.715,0,0,0,.234-1.91,1.386,1.386,0,0,0-.208-.7A.5.5,0,0,0,244.4,29.465Z" transform="translate(-225.156 -28.752)"/><path class="d" d="M229.775,29.1c-2.842-1.125-2.815,1.55-2.291,3.43a3.85,3.85,0,0,0,1.875,2.485C231.838,36.276,229.007,30.51,229.775,29.1Z" transform="translate(-227.211 -28.833)"/><path class="e" d="M228.477,29.465a1.607,1.607,0,0,1,.381.04,11.158,11.158,0,0,0,.4,2.837,14.4,14.4,0,0,1,.36,1.956c-.167.04-.811-.627-.922-.775a3.775,3.775,0,0,1-.609-1.263,5.744,5.744,0,0,1-.234-1.91,1.386,1.386,0,0,1,.209-.7A.5.5,0,0,1,228.477,29.465Z" transform="translate(-227.129 -28.752)"/></g><rect class="f" width="7.563" height="6.717" transform="translate(12.821 23.736)"/><path class="e" d="M232.676,36.648h7.868v6.091l-2.393.6L233.24,38.5Z" transform="translate(-220.104 -14.175)"/><path class="g" d="M240.913,40.6c-1.753,1.8-2.031,2.328-4.216,2.343h-.157c-1.228-.006-1.489.818-1.5,1.64-.016.852.184.942,1.372,1.386.055-.009.226-.02.284-.033,1.877-.42,5.5-2.9,5.855-3.741A4.239,4.239,0,0,0,240.913,40.6Z" transform="translate(-219.798 -13.664)"/><path class="g" d="M238.882,48.835h5.826V54.83l-.845,1.039h-4.136l-.845-1.039Z" transform="translate(-219.3 -12.596)"/><path class="h" d="M241.5,49.7a.481.481,0,1,1-.481.481A.481.481,0,0,1,241.5,49.7Z" transform="translate(-219.023 -12.484)"/><path class="d" d="M234.173,20.086H240.4c3.268,0,6.392,2.705,5.941,5.941l-1.126,8.081a13.644,13.644,0,0,1-2.654,6.422,6.2,6.2,0,0,1-5.274,2.633h0a6.2,6.2,0,0,1-5.272-2.628,13.916,13.916,0,0,1-2.658-6.426l-1.125-8.081C227.781,22.791,230.906,20.086,234.173,20.086Z" transform="translate(-220.685 -16.321)"/><path class="i" d="M233.549,35.26c2.353.043,3.894.05,6.085,0A3.324,3.324,0,0,1,233.549,35.26Z" transform="translate(-219.991 -14.355)"/><path class="j" d="M229.253,26.58c-.717,2.4.035,4.315,0,6.644-.217.041-.544-1.267-.594-1.482a20.128,20.128,0,0,1-.416-8.972c.559-4.61,5.554-6.017,9.073-5.951,3.517-.067,8.512,1.341,9.072,5.951a20.112,20.112,0,0,1-.417,8.972c-.049.215-.376,1.523-.594,1.482-.031-2.329.355-4.162,0-6.644C245.3,26.011,229.367,26.2,229.253,26.58Z" transform="translate(-220.718 -16.745)"/><path class="j" d="M232.465,24.544s1.751,2.737,2.546,3.119.986.191.986.191L234.5,23.3Z" transform="translate(-220.131 -15.904)"/><path class="j" d="M234.677,24.967s1.75,2.737,2.545,3.118.987.192.987.192l-1.5-4.551Z" transform="translate(-219.845 -15.85)"/><path class="j" d="M236.478,24.516s1.751,2.737,2.546,3.119.986.191.986.191l-1.494-4.551Z" transform="translate(-219.611 -15.908)"/><path class="k" d="M227.89,26.211c8.569-1.909,14.242-1.393,18.869,0v-3.2c0-3.984-3.261-6.26-7.244-6.26h-4.382c-3.983,0-7.244,2.473-7.244,6.457Z" transform="translate(-220.724 -16.753)"/><path class="b" d="M246.759,24.42V23.4c-4.628-1.392-10.3-1.909-18.869,0V24.42C236.459,22.51,242.132,23.027,246.759,24.42Z" transform="translate(-220.724 -16.053)"/><path class="g" d="M232.62,40.6c1.752,1.8,2.029,2.328,4.216,2.343h.157c1.227-.006,1.489.818,1.5,1.64.016.852-.183.942-1.372,1.386-.055-.009-.225-.02-.284-.033-1.876-.42-5.5-2.9-5.856-3.741A4.244,4.244,0,0,1,232.62,40.6Z" transform="translate(-220.323 -13.664)"/><path class="j" d="M232.442,30.478a.8.8,0,1,1-.8.8A.795.795,0,0,1,232.442,30.478Z" transform="translate(-220.237 -14.975)"/><path class="j" d="M230.878,31.183a6.234,6.234,0,0,1,3.427,0S232.31,29.417,230.878,31.183Z" transform="translate(-220.337 -14.985)"/><path class="j" d="M234.09,28.981a.462.462,0,0,0-.306-.585,16,16,0,0,0-2.015.078,1.766,1.766,0,0,0-.576.089c-.238.1-.559.621.06.55C232.008,29.027,233.044,29.126,234.09,28.981Z" transform="translate(-220.335 -15.245)"/><path class="j" d="M240.225,30.478a.8.8,0,1,0,.8.8A.8.8,0,0,0,240.225,30.478Z" transform="translate(-219.229 -14.975)"/><path class="j" d="M242,31.183a6.235,6.235,0,0,0-3.427,0S240.567,29.417,242,31.183Z" transform="translate(-219.34 -14.985)"/><path class="j" d="M238.765,28.981a.463.463,0,0,1,.306-.585,16,16,0,0,1,2.015.078,1.766,1.766,0,0,1,.576.089c.239.1.559.621-.06.55C240.846,29.027,239.811,29.126,238.765,28.981Z" transform="translate(-219.319 -15.245)"/><rect class="l" width="1.538" height="15.149" transform="translate(15.869 29.51)"/><path class="h" d="M236.33,43.157a.481.481,0,1,1-.48.481A.482.482,0,0,1,236.33,43.157Z" transform="translate(-219.693 -13.332)"/><path class="h" d="M236.33,53.112a.481.481,0,1,1-.48.481A.482.482,0,0,1,236.33,53.112Z" transform="translate(-219.693 -12.042)"/><path class="h" d="M236.33,49.083a.481.481,0,1,1-.48.48A.481.481,0,0,1,236.33,49.083Z" transform="translate(-219.693 -12.564)"/><path class="h" d="M236.33,45a.481.481,0,1,1-.48.481A.481.481,0,0,1,236.33,45Z" transform="translate(-219.693 -13.094)"/></g></svg>