<svg xmlns="http://www.w3.org/2000/svg" xmlns:xlink="http://www.w3.org/1999/xlink" width="58.825" height="58.828" viewBox="0 0 58.825 58.828"><defs><style>.a,.c,.d,.e,.f,.g,.i,.j,.k{fill-rule:evenodd;}.a{fill:url(#a);}.b,.f{fill:#d99662;}.c{fill:#a6754f;}.d{fill:#29292a;}.e{fill:#141414;}.g,.h{fill:#363637;}.i{fill:#c3c1ca;}.j{fill:#fff;}.k{fill:#1a1a1a;}</style><linearGradient id="a" y1="0.5" x2="1" y2="0.5" gradientUnits="objectBoundingBox"><stop offset="0" stop-color="#18d5fc"/><stop offset="1" stop-color="#b64cbf"/></linearGradient></defs><path class="a" d="M178.828,69.833a29.413,29.413,0,1,0-29.413-29.413A29.469,29.469,0,0,0,178.828,69.833Z" transform="translate(-149.415 -11.007)"/><g transform="translate(13.93 4.301)"><rect class="b" width="4.969" height="3.188" transform="translate(12.762 25.078)"/><path class="c" d="M172.9,36.485h5.17v2.891l-1.572.284-3.227-2.3Z" transform="translate(-160.302 -12.007)"/><g transform="translate(14.525 48.83)"><path class="d" d="M184.841,62.245l-.175-4.181c-3.277-.014-6.781-.02-10.046-.02h-.014v5.678c.319.011.637.018.958.018A29.367,29.367,0,0,0,184.841,62.245Z" transform="translate(-174.606 -58.044)"/><path class="e" d="M177.019,63.063l-.016-.2-.247.22Z" transform="translate(-174.327 -57.42)"/></g><g transform="translate(6.42 48.83)"><path class="d" d="M167.431,62.315l.178-4.251c3.277-.014,6.781-.02,10.046-.02h.014v5.67c-.391.016-.783.026-1.176.026A29.377,29.377,0,0,1,167.431,62.315Z" transform="translate(-167.431 -58.044)"/><path class="e" d="M174.111,63.077l.017-.218.256.229C174.293,63.085,174.2,63.083,174.111,63.077Z" transform="translate(-166.566 -57.42)"/></g><g transform="translate(0 27.407)"><path class="d" d="M169.919,39.08a5.538,5.538,0,0,0-2.991.767c-3.558,2.537-3.8,8.865-4.145,11.577-.295,2.31-.729,6.948-1.036,10.372a29.394,29.394,0,0,0,4.409,2.243l1.9-14.074Z" transform="translate(-161.747 -39.078)"/><path class="e" d="M165.758,63.357l1.907-13.943v-.007l.016-.114.811-4.736-.88-.291-3,18.6C164.99,63.035,165.373,63.2,165.758,63.357Z" transform="translate(-161.376 -38.406)"/></g><g transform="translate(22.792 27.407)"><path class="d" d="M181.925,39.08a5.533,5.533,0,0,1,2.99.767c3.559,2.537,3.8,8.865,4.147,11.577.295,2.31.73,6.948,1.036,10.372a29.343,29.343,0,0,1-4.409,2.243l-1.9-14.074Z" transform="translate(-181.925 -39.078)"/><path class="e" d="M185.594,63.357l-1.906-13.943v-.007l-.016-.114-.812-4.736.881-.291,3,18.6C186.362,63.035,185.98,63.2,185.594,63.357Z" transform="translate(-181.804 -38.406)"/></g><path class="d" d="M187.3,64.335c.06-9.059-.073-20.843-1.77-24.794a21.538,21.538,0,0,0-6.1-1.372c.051.744-1.686,1.533-2.762,1.588-1.076-.055-2.814-.844-2.763-1.588a21.547,21.547,0,0,0-6.1,1.372c-1.7,3.951-1.83,15.735-1.77,24.794a29.509,29.509,0,0,0,21.255,0Z" transform="translate(-161.191 -11.789)"/><g transform="translate(6.016 14.218)"><path class="f" d="M181.6,27.644c2.575-1.019,2.551,1.405,2.075,3.109a3.488,3.488,0,0,1-1.7,2.251C179.731,34.144,182.3,28.921,181.6,27.644Z" transform="translate(-165.264 -27.402)"/><path class="c" d="M182.651,27.974a3.176,3.176,0,0,0-.52.035,10.071,10.071,0,0,1-.365,2.572,13.351,13.351,0,0,0-.326,1.772c.152.035.909-.568,1.011-.7a3.416,3.416,0,0,0,.55-1.145,5.161,5.161,0,0,0,.212-1.73,1.256,1.256,0,0,0-.189-.637A.457.457,0,0,0,182.651,27.974Z" transform="translate(-165.211 -27.328)"/><path class="f" d="M169.4,27.644c-2.575-1.019-2.551,1.405-2.076,3.109a3.493,3.493,0,0,0,1.7,2.251C171.266,34.144,168.7,28.921,169.4,27.644Z" transform="translate(-167.073 -27.402)"/><path class="c" d="M168.221,27.974a1.469,1.469,0,0,1,.344.035,10.014,10.014,0,0,0,.364,2.572,13.169,13.169,0,0,1,.326,1.772c-.151.035-.735-.568-.836-.7a3.417,3.417,0,0,1-.55-1.145,5.16,5.16,0,0,1-.212-1.73,1.245,1.245,0,0,1,.189-.637A.458.458,0,0,1,168.221,27.974Z" transform="translate(-166.999 -27.328)"/></g><path class="g" d="M173.133,37.575A2.866,2.866,0,0,0,175.6,38.85l-.024,1.8a4.6,4.6,0,0,1-3.214-2.343A6.218,6.218,0,0,0,173.133,37.575Z" transform="translate(-160.371 -11.866)"/><rect class="h" width="1.776" height="17.491" transform="translate(14.388 26.984)"/><path class="i" d="M175.335,50.52a.555.555,0,1,1-.556.555A.556.556,0,0,1,175.335,50.52Z" transform="translate(-160.059 -10.189)"/><path class="i" d="M175.335,41.149a.555.555,0,1,1-.556.556A.556.556,0,0,1,175.335,41.149Z" transform="translate(-160.059 -11.403)"/><path class="i" d="M175.335,45.868a.555.555,0,1,1-.556.555A.555.555,0,0,1,175.335,45.868Z" transform="translate(-160.059 -10.792)"/><path class="g" d="M176.953,44.612h5.807v5.974l-.842,1.037H177.8l-.843-1.037Z" transform="translate(-159.777 -10.954)"/><path class="i" d="M179.574,45.409a.555.555,0,1,1-.556.555A.555.555,0,0,1,179.574,45.409Z" transform="translate(-159.509 -10.851)"/><path class="f" d="M173.381,19.127h5.641c2.961,0,5.791,2.45,5.383,5.382l-1.02,7.322c-.531,3.805-2.2,7.937-7.184,7.937s-6.654-4.134-7.184-7.937L168,24.509C167.59,21.577,170.42,19.127,173.381,19.127Z" transform="translate(-160.942 -14.256)"/><path class="j" d="M172.925,32.875c1.981.027,3.271.062,5.12,0C176.864,35.665,174.109,35.66,172.925,32.875Z" transform="translate(-160.299 -12.475)"/><path class="k" d="M171.929,29.329a.8.8,0,1,1-.8.8A.8.8,0,0,1,171.929,29.329Z" transform="translate(-160.531 -12.935)"/><path class="k" d="M170.521,30.043a5.645,5.645,0,0,1,3.107,0S171.821,28.442,170.521,30.043Z" transform="translate(-160.61 -12.934)"/><path class="k" d="M173.277,27.8a.542.542,0,0,0-.278-.654,11.652,11.652,0,0,0-1.828.087,1.373,1.373,0,0,0-.523.1c-.216.108-.506.695.055.616C171.389,27.851,172.327,27.959,173.277,27.8Z" transform="translate(-160.629 -13.219)"/><path class="k" d="M178.739,29.329a.8.8,0,1,0,.8.8A.8.8,0,0,0,178.739,29.329Z" transform="translate(-159.649 -12.935)"/><path class="k" d="M177.544,27.8a.543.543,0,0,1,.278-.654,11.652,11.652,0,0,1,1.828.087,1.369,1.369,0,0,1,.523.1c.217.108.506.695-.055.616C179.433,27.851,178.494,27.959,177.544,27.8Z" transform="translate(-159.704 -13.219)"/><path class="g" d="M177.76,37.575a2.863,2.863,0,0,1-2.47,1.275l.024,1.8a4.594,4.594,0,0,0,3.214-2.343A6.3,6.3,0,0,1,177.76,37.575Z" transform="translate(-159.992 -11.866)"/><path class="i" d="M175.335,39.026a.556.556,0,1,1-.556.556A.556.556,0,0,1,175.335,39.026Z" transform="translate(-160.059 -11.678)"/><path class="k" d="M180.322,30.043a5.649,5.649,0,0,0-3.109,0S179.021,28.442,180.322,30.043Z" transform="translate(-159.743 -12.934)"/><path class="k" d="M183.8,30.875c.6.115,3.237-9.624-3.426-12.4a4.259,4.259,0,0,0-1.067-2.6,2.185,2.185,0,0,1-.537,1.524,4.246,4.246,0,0,0-1.065-2.579c.1,1.4-1.412,2.44-2.369,2.954-10.627.663-7.339,13.237-6.652,13.106.478-4.4.43-4.149,2.217-5.983.657,2.078,4.053,2.837,5.59,3.079a8.21,8.21,0,0,1-1.455-3.613c.827,1.342,2.242,3.131,5.957,3.275a3.422,3.422,0,0,1-1.126-3.156C182.66,25.939,183.729,25.893,183.8,30.875Z" transform="translate(-160.981 -14.815)"/></g></svg>