<svg xmlns="http://www.w3.org/2000/svg" xmlns:xlink="http://www.w3.org/1999/xlink" width="60.146" height="60.146" viewBox="0 0 60.146 60.146"><defs><style>.a{fill:url(#a);}.b{fill:#d6d4de;}.b,.c,.d,.e,.f,.g,.h,.j,.l,.m,.o{fill-rule:evenodd;}.c{fill:#a61f2a;}.d{fill:#ce3146;}.e,.i{fill:#d99662;}.f{fill:#a6754f;}.g{fill:#e3ceb1;}.h{fill:#ad9d88;}.j{fill:#1a1a1a;}.k,.m{fill:#ebe9f4;}.l{fill:#c3c1ca;}.n{fill:#e6e6e6;}.o{fill:#fff;}</style><linearGradient id="a" y1="0.5" x2="1" y2="0.5" gradientUnits="objectBoundingBox"><stop offset="0" stop-color="#7effd9"/><stop offset="1" stop-color="#007f7d"/></linearGradient></defs><circle class="a" cx="29.413" cy="29.413" r="29.413" transform="matrix(1, -0.023, 0.023, 1, 0, 1.336)"/><g transform="translate(6.07 5.301)"><path class="b" d="M549.8,30.446c.154,1.479,1.219,12.545,1.468,13.322a4.049,4.049,0,0,1,.247.975c-.311-.041-.592-.068-.834-.075-.145,0-.3-.008-.452-.009-1.682.689-6.566,1.1-8.892,1.1s-7.9-.216-9.583-.906l-.163,0a3.78,3.78,0,0,0,.177-.567c.177-.618,1.074-11.233,1.192-12.407C536.452,36.029,547,34.778,549.8,30.446Z" transform="translate(-517.521 -13.13)"/><g transform="translate(14.069 18.012)"><path class="c" d="M531.954,41.085l0,0,.019.031.307-.193.105.168-.307.193.154.247-.35.219C531.906,41.551,531.93,41.327,531.954,41.085Z" transform="translate(-531.552 -29.784)"/><path class="c" d="M532.334,41.817l.078-.049.6.959-.217.136-.03.018.192.308-.168.105-.193-.307-.247.154-.527-.844.02-.173.156-.1-.122-.195.019-.168.079-.05.192.308Z" transform="translate(-531.56 -29.695)"/><path class="d" d="M531.634,43.1l.07.113-.114,0C531.619,43.13,531.619,43.142,531.634,43.1Z" transform="translate(-531.59 -29.502)"/><path class="c" d="M532.359,36.772l.328.523-.217.136-.03.019.192.308-.168.105-.178-.284Z" transform="translate(-531.5 -30.322)"/><path class="c" d="M532.259,37.9l.655-.409.136.218.019.03.308-.192.1.168-.308.192.154.248-.959.6h0l-.164-.264Z" transform="translate(-531.51 -30.229)"/><path class="c" d="M533.346,38.434l.078-.049.6.959-.217.136-.03.019.192.308-.168.1-.193-.308-.247.154-.6-.959h0l.248-.154-.192-.308.168-.105.192.308Z" transform="translate(-531.438 -30.133)"/><path class="c" d="M533.272,40.153l-.05-.078.959-.6.136.218.019.029.307-.192.106.168-.307.192.154.249-.958.6h0C533.391,40.346,533.458,40.451,533.272,40.153Z" transform="translate(-531.379 -29.972)"/><path class="c" d="M534.585,40.415l.078-.049.6.959-.217.136-.03.018.192.308-.169.105-.192-.308-.247.155-.6-.959h0l.248-.155-.193-.307.168-.105.193.308Z" transform="translate(-531.278 -29.876)"/><path class="d" d="M532.205,38.379l.01.016-.012.008Z" transform="translate(-531.511 -30.114)"/><path class="c" d="M532.173,39.118l.078-.05.6.959-.218.137-.029.019.192.307-.168.105-.192-.307-.247.155-.143-.228c.034-.345.068-.707.1-1.081Z" transform="translate(-531.531 -30.025)"/><path class="c" d="M532.15,40.854l-.049-.078.959-.6.136.218.019.03.307-.193.105.168-.307.192.155.249-.959.6h0Z" transform="translate(-531.524 -29.881)"/><path class="c" d="M533.464,41.116l.078-.049.6.959-.218.136-.03.019.192.307-.168.105-.192-.308-.248.155-.6-.959h0l.247-.155-.193-.307.169-.105.193.308Z" transform="translate(-531.423 -29.786)"/><path class="d" d="M532.75,32.365l.3-.186.1.168-.308.193.154.247-.3.191Z" transform="translate(-531.447 -30.917)"/><path class="c" d="M533.1,33.07l.078-.049.6.959-.217.136-.03.019.192.308-.168.105-.193-.308-.247.154-.474-.759.025-.294.1-.061-.081-.129.024-.264.032-.021.192.308Z" transform="translate(-531.454 -30.828)"/><path class="c" d="M533.037,34.789l-.05-.078.96-.6.136.217.019.03.307-.192.105.168-.307.192.155.247-.959.6h0C533.158,34.981,533.223,35.087,533.037,34.789Z" transform="translate(-531.409 -30.667)"/><path class="d" d="M534.35,35.05l.078-.049.6.959-.219.136-.03.019.193.308-.169.105-.192-.307-.247.154-.6-.959h0l.247-.154-.192-.308.168-.1.193.308Z" transform="translate(-531.308 -30.571)"/><path class="d" d="M534.274,36.77l-.047-.078.958-.6.136.218.019.029.307-.192.106.168-.307.192.154.247-.958.6h0Z" transform="translate(-531.248 -30.41)"/><path class="d" d="M535.59,37.031l.078-.049.6.959-.217.136-.03.018.192.308-.168.105-.193-.308-.247.155L535,37.4h0l.248-.154-.193-.308.169-.105.192.307Z" transform="translate(-531.148 -30.315)"/><path class="c" d="M535.515,38.751l-.05-.078.959-.6.137.218.018.029.308-.192.1.168-.307.192.156.247-.96.6h0Z" transform="translate(-531.088 -30.154)"/><path class="d" d="M536.828,39.012l.078-.049.6.959-.218.136-.03.018.192.308-.168.106-.192-.308-.248.155-.6-.959h0l.247-.155-.193-.307.169-.105.193.308Z" transform="translate(-530.987 -30.058)"/><path class="c" d="M532.525,34.954l.227-.142.136.218.019.03.308-.192.1.168-.308.192.154.248-.728.455Z" transform="translate(-531.48 -30.576)"/><path class="c" d="M533.229,35.752l.078-.049.6.959-.217.136-.03.019.192.308-.168.105-.192-.308-.248.155-.6-.959h0l.247-.155-.193-.308.169-.105.192.308Z" transform="translate(-531.453 -30.481)"/><path class="c" d="M533.154,37.471l-.049-.078.959-.6.136.217.019.03.307-.192.105.168-.307.192.155.247-.959.6h0Z" transform="translate(-531.394 -30.319)"/><path class="c" d="M534.467,37.733l.078-.049.6.959-.219.136-.03.019.193.307-.169.105-.192-.308-.247.155-.6-.959h0l.247-.155-.192-.307.169-.105.192.307Z" transform="translate(-531.293 -30.224)"/><path class="c" d="M534.393,39.452l-.049-.078.958-.6.137.218.019.029.307-.192.1.168-.307.192.155.247-.959.6h0Z" transform="translate(-531.233 -30.063)"/><path class="c" d="M535.706,39.714l.079-.049.6.959-.217.136-.03.019.192.307-.168.105-.193-.308-.247.155-.6-.959h0l.248-.155-.193-.307.169-.105.192.308Z" transform="translate(-531.133 -29.967)"/><path class="d" d="M536.08,33.608l-.445.278h0l-.326-.521Q535.683,33.5,536.08,33.608Z" transform="translate(-531.108 -30.764)"/><path class="d" d="M536.786,33.762l.484.775-.217.136-.031.018.192.308-.167.105-.193-.307-.247.155-.6-.959h0l.247-.155-.141-.228c.092.024.183.046.277.068l.033.054.056-.034C536.582,33.721,536.682,33.742,536.786,33.762Z" transform="translate(-531.018 -30.732)"/><path class="d" d="M536.519,35.368l-.05-.079.959-.6.135.217.019.03.307-.193.1.168-.307.193.155.247-.959.6h0Z" transform="translate(-530.958 -30.592)"/><path class="d" d="M537.832,35.629l.078-.049.6.959-.218.136-.03.018.193.308-.169.105-.192-.308-.247.155-.6-.959h0l.247-.154-.192-.308.168-.105.193.308Z" transform="translate(-530.857 -30.496)"/><path class="d" d="M537.756,37.349l-.048-.079.959-.6.135.218.018.03.308-.193.105.168-.307.193.155.247-.959.6h0Z" transform="translate(-530.797 -30.335)"/><path class="d" d="M539.07,37.61l.079-.049.6.959-.218.136-.029.019.192.307-.168.106-.193-.308-.247.155-.6-.959h0l.248-.155-.193-.308.169-.1.192.308Z" transform="translate(-530.697 -30.24)"/><path class="d" d="M532.92,32.046l-.049-.078.107-.068a5.45,5.45,0,0,0,.6.548l-.294.182h0Z" transform="translate(-531.424 -30.953)"/><path class="d" d="M534.905,33.214l.006.009-.218.137-.029.019.193.307-.169.105-.192-.307-.247.155-.6-.959h0l.142-.089A7.332,7.332,0,0,0,534.905,33.214Z" transform="translate(-531.323 -30.864)"/><path class="d" d="M534.157,34.088l-.048-.079.959-.6.136.218.019.029.307-.192.106.167-.308.193.155.247-.958.6h0Z" transform="translate(-531.264 -30.758)"/><path class="d" d="M535.471,34.349l.079-.049.6.959-.217.136-.03.019.192.308-.168.105-.193-.308-.247.155-.6-.959h0l.247-.155-.192-.307.169-.105.192.308Z" transform="translate(-531.163 -30.662)"/><path class="d" d="M535.4,36.069l-.048-.079.958-.6.137.218.019.029.306-.192.106.167-.307.193.154.247-.958.6h0Z" transform="translate(-531.103 -30.501)"/><path class="d" d="M536.711,36.33l.078-.049.6.959-.217.136-.03.018.192.308-.168.1-.193-.308-.247.155-.6-.959h0l.248-.155-.193-.307.169-.105.192.307Z" transform="translate(-531.002 -30.406)"/><path class="d" d="M536.635,38.05l-.049-.079.958-.6.137.218.018.029.308-.193.1.168-.307.193.156.247-.96.6h0Z" transform="translate(-530.943 -30.244)"/><path class="d" d="M537.949,38.311l.078-.049.6.959-.218.136-.029.019.192.307-.169.105-.192-.308-.248.155-.6-.959h0l.247-.155-.192-.308.168-.105.193.308Z" transform="translate(-530.842 -30.149)"/><path class="d" d="M532.256,43.432l.916-.574.136.218.019.03.308-.193.1.168-.307.193.156.247-.21.131C532.956,43.587,532.577,43.513,532.256,43.432Z" transform="translate(-531.504 -29.534)"/><path class="c" d="M534.51,42.134l-.049-.078.959-.6.137.218.017.03.309-.193.1.168-.307.192.155.247-.959.6h0C534.629,42.327,534.7,42.432,534.51,42.134Z" transform="translate(-531.218 -29.715)"/><path class="d" d="M535.824,42.4l.078-.05.6.959-.217.136-.03.019.192.307-.168.105-.193-.308-.247.155-.6-.959h0l.248-.154-.193-.308.169-.105.192.308Z" transform="translate(-531.117 -29.62)"/><path class="d" d="M535.9,43.893l.731-.456.136.218.018.029.308-.192.105.168-.308.192.069.108C536.608,43.941,536.254,43.919,535.9,43.893Z" transform="translate(-531.031 -29.459)"/><path class="d" d="M533.389,42.835l-.049-.078.958-.6.137.218.018.031.308-.193.105.169-.307.191.155.247-.959.6h0C533.508,43.028,533.575,43.134,533.389,42.835Z" transform="translate(-531.363 -29.625)"/><path class="d" d="M534.7,43.1l.078-.05.533.852c-.335-.028-.664-.06-.983-.1l-.214-.34h0l.249-.156L534.172,43l.168-.105.192.308Z" transform="translate(-531.263 -29.529)"/><path class="d" d="M536.753,40.732l-.05-.078.96-.6.135.218.018.029.308-.192.105.168-.307.192.155.247-.959.6h0Z" transform="translate(-530.928 -29.897)"/><path class="d" d="M538.066,40.994l.078-.05.6.959-.218.136-.03.019.193.308-.169.1-.192-.308-.247.155-.6-.959h0l.248-.154-.193-.308.169-.105.192.308Z" transform="translate(-530.827 -29.801)"/><path class="d" d="M537.99,42.713l-.048-.079.959-.6.137.218.019.029.306-.192.106.168-.308.192.155.247-.958.6h0Z" transform="translate(-530.767 -29.64)"/><path class="d" d="M539.3,42.974l.079-.049.6.959-.217.136-.03.019.075.12-.236,0-.007-.011-.018.011-.325-.007-.505-.808h0l.248-.154-.193-.308.169-.105.192.308Z" transform="translate(-530.666 -29.545)"/><path class="c" d="M535.63,41.434l-.049-.079.959-.6.137.218L536.7,41,537,40.81l.105.168-.308.192.156.247-.96.6h0C535.751,41.625,535.817,41.731,535.63,41.434Z" transform="translate(-531.073 -29.806)"/><path class="c" d="M536.945,41.695l.078-.049.6.959-.217.136-.03.019.193.308-.169.1-.192-.307-.248.154-.6-.959h0l.247-.155-.192-.308.167-.1.192.308Z" transform="translate(-530.972 -29.711)"/><path class="d" d="M536.87,43.414l-.049-.078.959-.6.137.218.018.029.307-.192.106.168-.308.192.155.247-.96.6h0Z" transform="translate(-530.912 -29.549)"/><path class="d" d="M538.177,43.675l.078-.049.256.408c-.277-.009-.563-.019-.855-.033l.184-.115-.193-.307.168-.105.193.307Z" transform="translate(-530.805 -29.454)"/><path class="d" d="M538.995,39.33l-.049-.078.959-.6.137.218.019.03.307-.193.105.169-.308.192.155.247-.959.6h0C539.117,39.522,539.181,39.628,538.995,39.33Z" transform="translate(-530.637 -30.079)"/><path class="d" d="M540.309,39.591l.078-.049.6.959-.217.136-.03.019.193.308-.169.1-.192-.308-.248.155-.6-.959h0l.247-.154-.192-.308.168-.1.193.307Z" transform="translate(-530.536 -29.983)"/><path class="d" d="M540.234,41.311l-.049-.079.959-.6.136.217.019.03.307-.192.105.168-.307.192.155.247-.959.6h0C540.354,41.5,540.421,41.609,540.234,41.311Z" transform="translate(-530.476 -29.822)"/><path class="d" d="M541.547,41.573l.078-.049.6.959-.219.136-.03.019.193.308-.169.1-.192-.307-.248.154-.6-.959h0l.247-.155-.192-.307.168-.105.193.308Z" transform="translate(-530.376 -29.726)"/><path class="d" d="M541.472,43.292l-.049-.078.958-.6.137.218.019.031.307-.192.105.168-.307.191.155.249-.959.6h0Z" transform="translate(-530.316 -29.565)"/><path class="d" d="M542.786,43.553l.079-.049.271.435c-.3.024-.594.045-.882.063l-.053-.084h0l.248-.155-.193-.308.168-.1.192.307Z" transform="translate(-530.215 -29.47)"/><path class="d" d="M537.873,40.031l-.048-.079.959-.6.136.217.018.03.309-.193.105.168-.308.193.155.247-.959.6h0C537.994,40.223,538.06,40.329,537.873,40.031Z" transform="translate(-530.782 -29.988)"/><path class="d" d="M539.188,40.292l.078-.049.6.959-.217.136-.03.019.192.308-.168.1-.193-.307-.247.154-.6-.959h0l.248-.154-.193-.308.169-.1.192.308Z" transform="translate(-530.681 -29.892)"/><path class="d" d="M539.113,42.012l-.05-.078.96-.6.136.217.019.03.307-.193.105.168-.307.193.154.247-.958.6h0C539.233,42.2,539.3,42.31,539.113,42.012Z" transform="translate(-530.622 -29.731)"/><path class="d" d="M540.426,42.273l.078-.049.6.959-.217.136-.03.019.193.308-.169.1-.192-.307-.248.155-.6-.959h0l.247-.154-.192-.308.168-.105.193.308Z" transform="translate(-530.521 -29.636)"/><path class="d" d="M540.352,43.993l-.05-.078.959-.6.136.217.019.03.307-.193.105.168-.307.193.156.247-.132.081c-.411.018-.794.029-1.132.033Z" transform="translate(-530.461 -29.474)"/><path class="d" d="M539.943,33.946l-.828.518h0l-.312-.5C539.181,33.973,539.562,33.966,539.943,33.946Z" transform="translate(-530.655 -30.688)"/><path class="d" d="M540.074,34.227l.079-.049.6.959-.217.137-.03.019.192.307-.168.105-.193-.308-.247.155-.6-.959h0l.248-.154-.193-.308.169-.105.192.308Z" transform="translate(-530.567 -30.678)"/><path class="d" d="M540,35.946l-.05-.078.96-.6.136.217.018.029.308-.192.1.168-.308.192.156.248-.96.6h0Z" transform="translate(-530.507 -30.517)"/><path class="d" d="M541.313,36.208l.078-.049.6.959-.219.136-.03.019.193.308-.169.1-.192-.308-.248.155-.6-.959h0l.247-.154-.192-.308.168-.105.193.308Z" transform="translate(-530.406 -30.421)"/><path class="d" d="M538.138,33.935l.149.238-.168.105-.192-.307-.249.155-.157-.251C537.724,33.9,537.931,33.919,538.138,33.935Z" transform="translate(-530.822 -30.698)"/><path class="d" d="M537.64,34.667l-.049-.079.958-.6.137.218.018.03.308-.193.105.168-.307.192.155.249-.959.6h0C537.759,34.859,537.826,34.964,537.64,34.667Z" transform="translate(-530.813 -30.683)"/><path class="d" d="M538.953,34.928l.08-.049.6.959-.217.136-.03.018.192.308-.168.1-.193-.308-.247.155-.6-.959h0l.248-.155-.193-.307.167-.105.193.308Z" transform="translate(-530.712 -30.587)"/><path class="d" d="M538.879,36.647l-.05-.077.959-.6.137.218.018.03.308-.193.105.168-.308.192.155.249-.959.6h0C539,36.84,539.064,36.946,538.879,36.647Z" transform="translate(-530.652 -30.426)"/><path class="d" d="M540.192,36.909l.078-.049.6.959-.217.136-.03.018.192.308-.168.1-.192-.307-.248.154-.6-.959h0l.247-.156-.192-.307.168-.105.192.308Z" transform="translate(-530.551 -30.331)"/><path class="d" d="M542.867,33.487l.086.136-.218.137-.029.018.192.307-.168.105-.193-.307-.247.155-.226-.36Q542.471,33.592,542.867,33.487Z" transform="translate(-530.233 -30.748)"/><path class="d" d="M542.242,34.544l-.049-.078.959-.6.136.218.02.029.306-.192.106.168-.308.192.155.247-.959.6h0C542.362,34.736,542.428,34.842,542.242,34.544Z" transform="translate(-530.216 -30.699)"/><path class="d" d="M543.556,34.806l.078-.05.6.959-.217.136-.03.019.192.308-.167.1-.192-.307-.248.154-.6-.959h0l.248-.155-.193-.308.169-.105.192.308Z" transform="translate(-530.116 -30.603)"/><path class="d" d="M541.495,33.778l.375.6-.218.136-.029.019.193.308-.169.105-.192-.308-.247.155-.563-.9C540.929,33.862,541.213,33.823,541.495,33.778Z" transform="translate(-530.417 -30.71)"/><path class="d" d="M541.12,35.246l-.049-.079.959-.6.136.218.019.029.307-.192.105.168-.307.193.155.246-.959.6h0C541.241,35.437,541.307,35.543,541.12,35.246Z" transform="translate(-530.361 -30.608)"/><path class="d" d="M542.434,35.507l.078-.049.6.959-.217.136-.03.018.192.308-.169.1-.192-.308-.247.155-.6-.959h0l.248-.154-.193-.308.168-.105.193.308Z" transform="translate(-530.261 -30.512)"/><path class="d" d="M544.484,33.136l-.049-.079.427-.267c.193-.089.381-.184.563-.282l.105.167.019.031.307-.192.105.167-.306.193.154.247-.958.6h0C544.605,33.328,544.671,33.434,544.484,33.136Z" transform="translate(-529.926 -30.875)"/><path class="d" d="M545.8,33.4l.078-.05.6.959-.218.136-.029.019.192.308-.169.1-.192-.307-.247.154-.6-.959h0l.248-.155-.193-.308.168-.105.193.308Z" transform="translate(-529.825 -30.785)"/><path class="d" d="M543.849,33.162l.108.173-.168.105-.132-.211Z" transform="translate(-530.027 -30.79)"/><path class="d" d="M543.363,33.843l-.049-.078.96-.6.135.217.019.03.307-.193.105.169-.307.192.155.247-.959.6h0C543.484,34.035,543.55,34.141,543.363,33.843Z" transform="translate(-530.071 -30.79)"/><path class="d" d="M544.677,34.1l.078-.049.6.959-.218.136-.03.019.192.308-.168.105-.192-.308-.248.154-.6-.959h0l.247-.154-.192-.308.167-.105.193.308Z" transform="translate(-529.97 -30.694)"/><path class="d" d="M547.225,31.087l.088.141-.167.105-.062-.1C547.133,31.186,547.179,31.137,547.225,31.087Z" transform="translate(-529.583 -31.059)"/><path class="d" d="M546.727,31.74l-.047-.078.006-.007.952-.593.136.217.019.03.135-.086.023.22-.053.034.065.106.019.185-.889.556h0C546.847,31.932,546.915,32.037,546.727,31.74Z" transform="translate(-529.635 -31.062)"/><path class="d" d="M548.044,33.307l-.587-.94h0l.247-.155-.193-.307.169-.106.192.308.051-.031Z" transform="translate(-529.534 -30.967)"/><path class="d" d="M545.6,32.437l-.008-.012a8.915,8.915,0,0,0,.941-.629l.112.181.019.029.307-.192.106.168-.307.192.154.249-.958.6h0C545.722,32.629,545.788,32.735,545.6,32.437Z" transform="translate(-529.776 -30.967)"/><path class="d" d="M546.919,32.7l.08-.049.6.959-.217.136-.03.019.192.307-.168.106-.193-.308-.247.155-.6-.959h0l.248-.154-.193-.308.169-.105.192.308Z" transform="translate(-529.68 -30.876)"/><path class="d" d="M541.238,37.928l-.049-.079.959-.6.137.218.019.029.306-.192.106.168-.307.192.154.247-.958.6h0Z" transform="translate(-530.346 -30.26)"/><path class="d" d="M542.551,38.189l.079-.049.6.959-.217.136-.03.019.192.308-.168.1-.193-.308-.247.155-.6-.959h0l.247-.155-.192-.308.169-.105.192.308Z" transform="translate(-530.246 -30.165)"/><path class="d" d="M542.477,39.909l-.049-.079.958-.6.137.218.019.029.307-.192.105.168-.307.193.155.246-.959.6h0Z" transform="translate(-530.186 -30.004)"/><path class="c" d="M543.791,40.17l.078-.049.6.959-.217.136-.03.019.193.308-.169.1-.192-.308-.248.155-.6-.959h0l.247-.155-.193-.308.169-.105.193.308Z" transform="translate(-530.085 -29.908)"/><path class="c" d="M543.716,41.89l-.05-.079.96-.6.136.218.018.03.308-.193.105.168-.308.193.156.246-.96.6h0Z" transform="translate(-530.025 -29.747)"/><path class="d" d="M545.029,42.151l.078-.048.6.959-.218.136-.029.019.192.308-.169.1-.192-.307-.248.155-.6-.959h0l.247-.155-.192-.308.168-.1.193.307Z" transform="translate(-529.925 -29.651)"/><path class="d" d="M544.986,43.734l.867-.542.137.218.018.03.308-.193.105.168-.236.148C545.8,43.625,545.4,43.682,544.986,43.734Z" transform="translate(-529.854 -29.49)"/><path class="d" d="M540.117,38.629l-.05-.079.96-.6.135.217.019.029.307-.192.105.168-.307.192.155.248-.959.6h0Z" transform="translate(-530.492 -30.169)"/><path class="d" d="M541.43,38.89l.078-.05.6.959-.219.136-.03.019.193.308-.169.1-.192-.307-.247.155-.6-.959h0l.247-.154-.192-.308.168-.105.193.308Z" transform="translate(-530.391 -30.074)"/><path class="d" d="M541.356,40.609l-.049-.078.958-.6.136.218.02.029.306-.192.106.168-.307.192.154.249-.958.6h0C541.475,40.8,541.542,40.907,541.356,40.609Z" transform="translate(-530.331 -29.913)"/><path class="d" d="M542.669,40.871l.079-.049.6.959-.217.136-.03.019.192.307-.169.106-.192-.308-.247.154-.6-.959h0l.248-.154-.193-.308.169-.105.192.308Z" transform="translate(-530.23 -29.817)"/><path class="d" d="M542.595,42.591l-.05-.079.959-.6.137.218.018.028.308-.192.1.168-.307.192.156.249-.96.6h0C542.714,42.783,542.781,42.888,542.595,42.591Z" transform="translate(-530.171 -29.656)"/><path class="d" d="M543.908,42.852l.078-.049.6.959-.218.136-.007,0c-.191.02-.383.041-.575.059l-.463-.743h0l.248-.154-.192-.308.167-.105.193.307Z" transform="translate(-530.07 -29.561)"/><path class="d" d="M543.482,36.525l-.05-.079.959-.6.136.218.019.029.307-.192.105.167-.307.193.155.247-.959.6h0Z" transform="translate(-530.056 -30.442)"/><path class="d" d="M544.794,36.786l.078-.049.6.959-.218.136-.03.019.193.308-.169.1-.192-.307-.248.154-.6-.959h0l.247-.154-.192-.308.168-.105.193.308Z" transform="translate(-529.955 -30.346)"/><path class="c" d="M544.719,38.506l-.048-.078.958-.6.137.218.019.029.307-.192.1.168-.307.192.155.247-.959.6h0C544.839,38.7,544.906,38.8,544.719,38.506Z" transform="translate(-529.895 -30.185)"/><path class="c" d="M546.034,38.768l.078-.049.6.959-.217.136-.03.019.192.308-.168.105-.193-.308-.247.154-.6-.959h0l.248-.155-.193-.307.169-.106.192.308Z" transform="translate(-529.794 -30.09)"/><path class="c" d="M545.959,40.487l-.05-.078.959-.6.137.218.018.029.308-.192.1.168-.308.192.155.248-.959.6h0C546.08,40.679,546.144,40.785,545.959,40.487Z" transform="translate(-529.735 -29.929)"/><path class="c" d="M547.272,40.749l.078-.049.6.959-.217.136-.03.019.193.308-.169.105-.193-.308-.247.155-.6-.959h0l.248-.155-.192-.308.168-.1.192.307Z" transform="translate(-529.634 -29.833)"/><path class="c" d="M547.2,42.468l-.05-.078.96-.6.135.217.019.03.307-.192.1.168-.307.192.155.247-.958.6h0C547.318,42.66,547.383,42.766,547.2,42.468Z" transform="translate(-529.574 -29.672)"/><path class="d" d="M548.51,42.73l.079-.05.274.439c-.106-.009-.207-.014-.3-.017-.145,0-.3-.008-.452-.009-.047.019-.1.038-.15.058l-.035-.056h0l.246-.154-.191-.308.167-.105.193.307Z" transform="translate(-529.473 -29.576)"/><path class="d" d="M542.359,37.226l-.049-.078.959-.6.137.218.019.03.306-.193.106.168-.307.192.154.247-.958.6h0Z" transform="translate(-530.201 -30.351)"/><path class="d" d="M543.674,37.488l.078-.049.6.959-.217.136-.03.019.193.308-.169.1-.193-.307-.247.154-.6-.959h0l.248-.154-.192-.308.168-.105.192.308Z" transform="translate(-530.1 -30.256)"/><path class="d" d="M543.6,39.207l-.05-.078.959-.6.137.218.018.03.308-.193.1.168-.307.193.156.246-.96.6h0Z" transform="translate(-530.041 -30.095)"/><path class="c" d="M544.912,39.468l.078-.049.6.959-.218.136-.03.019.193.307-.169.106-.192-.308-.248.155-.6-.959h0l.247-.154-.192-.308.169-.105.192.308Z" transform="translate(-529.94 -29.999)"/><path class="c" d="M544.836,41.188l-.048-.078.959-.6.135.218.018.03.308-.193.105.168-.307.192.155.249-.959.6h0C544.956,41.381,545.023,41.486,544.836,41.188Z" transform="translate(-529.88 -29.838)"/><path class="c" d="M546.15,41.449l.079-.049.6.959-.217.136-.03.019.192.308-.168.105-.193-.308-.247.155-.6-.959h0l.248-.155-.193-.308.169-.105.192.308Z" transform="translate(-529.779 -29.742)"/><path class="d" d="M546.074,43.169l-.048-.078.959-.6.137.218.019.029.307-.192.105.168-.308.192.155.248-.577.36c-.153.031-.312.06-.476.089Z" transform="translate(-529.72 -29.581)"/><path class="d" d="M546.886,43.386l-.033-.052.168-.105.07.112Z" transform="translate(-529.613 -29.486)"/><path class="d" d="M545.724,35.123l-.049-.079.958-.6.137.217.019.031.307-.193.105.169-.307.192.155.247-.959.6h0Z" transform="translate(-529.765 -30.624)"/><path class="c" d="M547.038,35.384l.078-.048.6.959-.217.136-.03.019.192.308-.168.1-.193-.307-.247.154-.6-.959h0l.248-.154-.192-.308.168-.1.192.308Z" transform="translate(-529.664 -30.528)"/><path class="c" d="M546.963,37.1l-.05-.078.96-.6.136.217.018.03.308-.192.105.167-.308.193.155.247-.959.6h0Z" transform="translate(-529.605 -30.367)"/><path class="c" d="M548.276,37.365l.078-.049.169.27c.041.38.08.753.12,1.116l-.105-.167-.247.155-.6-.959h0l.247-.155-.192-.308.168-.105.192.308Z" transform="translate(-529.504 -30.272)"/><path class="c" d="M548.2,39.048l-.049-.078.452-.282q.047.446.095.863l-.132.082h0C548.321,39.24,548.387,39.347,548.2,39.048Z" transform="translate(-529.444 -30.074)"/><path class="d" d="M544.6,35.824l-.048-.078.958-.6.136.218.019.029.307-.192.105.168-.306.192.154.247-.958.6h0Z" transform="translate(-529.91 -30.533)"/><path class="c" d="M545.916,36.086l.078-.049.6.959-.218.136-.029.019.192.308-.168.1-.193-.308-.247.155-.6-.959h0l.247-.154-.192-.308.169-.105.192.308Z" transform="translate(-529.81 -30.437)"/><path class="c" d="M545.841,37.8l-.049-.078.959-.6.137.217.018.03.308-.192.105.168-.308.192.155.247-.959.6h0Z" transform="translate(-529.75 -30.276)"/><path class="c" d="M547.155,38.066l.078-.049.6.959-.217.136-.03.019.192.308-.168.105-.193-.308-.247.155-.6-.959h0l.248-.155-.193-.308.169-.1.192.307Z" transform="translate(-529.649 -30.181)"/><path class="c" d="M547.08,39.786l-.05-.078.96-.6.136.217.019.03.307-.192.105.168-.308.192.155.247-.959.6h0C547.2,39.978,547.266,40.084,547.08,39.786Z" transform="translate(-529.59 -30.02)"/><path class="c" d="M548.393,40.047l.078-.049.418.668.045.376-.082.051-.03.019.151.241.011.086-.138.086-.192-.308-.248.156-.6-.959h0l.247-.155-.192-.308.168-.105.192.308Z" transform="translate(-529.489 -29.924)"/><path class="c" d="M548.318,41.745l-.049-.078.657-.411c.046.358.088.647.122.846l-.364.228h0C548.438,41.937,548.5,42.043,548.318,41.745Z" transform="translate(-529.429 -29.741)"/><path class="d" d="M547.966,33.66l-.049-.078.11-.069.03.292Z" transform="translate(-529.475 -30.745)"/><path class="c" d="M546.846,34.422l-.05-.079.958-.6.138.218.018.029.3-.184.021.22-.212.132.155.249-.959.6h0C546.964,34.614,547.031,34.719,546.846,34.422Z" transform="translate(-529.62 -30.715)"/><path class="c" d="M548.159,34.683l.041-.026c.042.411.085.83.128,1.254l-.155.1-.6-.959h0l.247-.155-.192-.308.167-.105.193.307Z" transform="translate(-529.519 -30.619)"/><path class="c" d="M548.083,36.353l-.048-.078.275-.172.076.734Z" transform="translate(-529.459 -30.409)"/></g><g transform="translate(12.908 14.369)"><path class="e" d="M547.77,28.127c3.1-1.226,3.07,1.692,2.5,3.742a4.2,4.2,0,0,1-2.044,2.71C545.521,35.953,548.609,29.666,547.77,28.127Z" transform="translate(-528.421 -27.837)"/><path class="f" d="M549.01,28.525a1.822,1.822,0,0,0-.416.044,12.121,12.121,0,0,1-.438,3.094,15.631,15.631,0,0,0-.392,2.134c.183.043.884-.685,1.005-.845a4.125,4.125,0,0,0,.663-1.378,6.287,6.287,0,0,0,.256-2.083,1.53,1.53,0,0,0-.228-.767A.554.554,0,0,0,549.01,28.525Z" transform="translate(-528.334 -27.747)"/><path class="e" d="M533.36,28.127c-3.1-1.226-3.071,1.692-2.5,3.742a4.2,4.2,0,0,0,2.045,2.71C535.609,35.953,532.522,29.666,533.36,28.127Z" transform="translate(-530.562 -27.837)"/><path class="f" d="M531.943,28.525a1.8,1.8,0,0,1,.415.044,12.126,12.126,0,0,0,.439,3.094,16.043,16.043,0,0,1,.393,2.134c-.183.043-.884-.685-1.006-.845a4.082,4.082,0,0,1-.663-1.378,6.255,6.255,0,0,1-.255-2.083,1.51,1.51,0,0,1,.228-.767A.552.552,0,0,1,531.943,28.525Z" transform="translate(-530.473 -27.747)"/></g><g transform="translate(0 32.365)"><g transform="translate(38.294)"><path class="g" d="M553.037,43.769a33.928,33.928,0,0,1,5.2,1.842,7.334,7.334,0,0,1,3.255,2.481,25.681,25.681,0,0,1,1.26,5.089,29.569,29.569,0,0,1-7.623,7.428Z" transform="translate(-553.037 -43.769)"/><path class="h" d="M554.915,58.994l-.256-2.066,1.531-.7.2,1.708Q555.67,58.486,554.915,58.994Z" transform="translate(-552.827 -42.155)"/></g><path class="g" d="M528.846,43.769a33.886,33.886,0,0,0-5.195,1.842,7.344,7.344,0,0,0-3.257,2.481,25.7,25.7,0,0,0-1.259,5.089,29.575,29.575,0,0,0,7.623,7.429Z" transform="translate(-519.135 -43.769)"/><path class="h" d="M526.053,58.994l.255-2.066-1.529-.7-.2,1.708Q525.3,58.488,526.053,58.994Z" transform="translate(-518.43 -42.155)"/></g><rect class="i" width="8.68" height="5.569" transform="translate(19.642 26.823)"/><path class="f" d="M536.253,37.935h9.031v5.05l-2.747.5L536.9,39.468Z" transform="translate(-516.917 -12.16)"/><path class="e" d="M538.109,18.756h6.79c3.564,0,6.972,2.95,6.479,6.479l-1.228,8.813a14.867,14.867,0,0,1-2.9,7,6.76,6.76,0,0,1-5.752,2.871h0a6.762,6.762,0,0,1-5.748-2.867,15.179,15.179,0,0,1-2.9-7.007l-1.227-8.813C531.137,21.705,534.545,18.756,538.109,18.756Z" transform="translate(-517.522 -14.644)"/><path class="j" d="M541.417,42.371a6.791,6.791,0,0,1-5.782-2.867,15.18,15.18,0,0,1-2.9-7.007l-.247-1.778h0c.789,3.1,2.246,9.521,6,10.281,1.169.237,1.906-.2,2.9-.2s1.718.436,2.885.2c3.758-.76,5.214-7.184,6-10.281h0l-.247,1.778a15.166,15.166,0,0,1-2.9,7.007A6.75,6.75,0,0,1,541.417,42.371Z" transform="translate(-517.405 -13.094)"/><path class="g" d="M523.817,58.871c-1.284-7.393-2.747-11.424-2.145-12.06,1.65-1.742,11.7-4.866,14.927-4.979.125,0,.255-.007.389-.008a16.792,16.792,0,0,0,11.674,0c.148,0,.291,0,.43.009,3.209.115,13.249,3.243,14.89,4.976.6.636-.86,4.667-2.144,12.059a29.407,29.407,0,0,1-38.021,0Z" transform="translate(-518.824 -11.656)"/><path class="e" d="M539.933,42.746c.168,0,.338.007.511.007s.34,0,.509-.007l-.509,12.982Z" transform="translate(-516.44 -11.536)"/><rect class="k" width="1.086" height="0.354" transform="translate(23.473 31.209)"/><path class="j" d="M532.742,25.838c-.383,2.705.04,4.7,0,7.245-.237.044-.593-1.381-.647-1.616a21.942,21.942,0,0,1-.454-9.784c.609-5.028,6.058-6.562,9.893-6.49,3.837-.071,9.284,1.463,9.894,6.49a21.96,21.96,0,0,1-.453,9.784c-.054.235-.411,1.66-.648,1.616-.035-2.54.386-4.54,0-7.245-.484-3.435-4.588-5.527-8.8-5.629C537.332,20.311,533.228,22.4,532.742,25.838Z" transform="translate(-517.558 -15.106)"/><path class="e" d="M535.215,41.841l1.479-.148h8.681l1.515.15a16.793,16.793,0,0,1-11.674,0Z" transform="translate(-517.052 -11.673)"/><path class="f" d="M544.248,41.7l1.471.146a12.61,12.61,0,0,1-1.471.494Z" transform="translate(-515.881 -11.672)"/><path class="f" d="M540.2,41.693h4.531l.044,0v.639a16.158,16.158,0,0,1-2.969.5Z" transform="translate(-516.406 -11.673)"/><path class="l" d="M539.962,42.55a.4.4,0,1,1-.4.4A.4.4,0,0,1,539.962,42.55Z" transform="translate(-516.488 -11.562)"/><path class="m" d="M531.257,26.871h20.578V23.016a7.925,7.925,0,0,0-7.9-7.9h-4.777a7.924,7.924,0,0,0-7.9,7.9Z" transform="translate(-517.564 -15.116)"/><g transform="translate(13.692)"><g transform="translate(11.881)"><path class="d" d="M549.518,23.221l-.134.017.044.36-.29.035.138,1.123h0l.242-.03Z" transform="translate(-540.821 -14.066)"/><path class="d" d="M549,23.742l-.011-.092-1.123.138.032.255,0,.035-.361.044.024.2.361-.044.035.29,1.123-.138h0l-.036-.29.361-.045-.024-.2-.361.044Z" transform="translate(-541.028 -14.01)"/><path class="d" d="M547.642,24.957l.093-.011-.138-1.123-.255.032-.035,0-.044-.359-.2.024.044.36-.289.036.138,1.122h0Z" transform="translate(-541.121 -14.03)"/><path class="d" d="M546.682,24.027l-.012-.091-1.122.137.031.255,0,.035-.361.044.024.2.361-.044.035.29,1.123-.138h0l-.035-.29.36-.044-.024-.2-.36.044Z" transform="translate(-541.328 -13.973)"/><path class="d" d="M545.323,25.241l.092-.01-.138-1.123-.254.032-.034,0-.045-.36-.2.024.044.36-.29.035.138,1.123h0C545.1,25.269,544.975,25.285,545.323,25.241Z" transform="translate(-541.422 -13.993)"/><path class="d" d="M544.363,24.311l-.011-.092-1.123.138.032.255,0,.035-.361.044.024.2.36-.044.036.29L544.446,25h0l-.035-.29.361-.044-.024-.2-.361.044Z" transform="translate(-541.629 -13.937)"/><path class="d" d="M549.5,24.877l-.2.024.086.705h.11Z" transform="translate(-540.8 -13.851)"/><path class="d" d="M549.161,25.054l-.011-.091-1.123.137.032.255,0,.035-.361.044.02.161h.3l.068-.008V25.6h1.141l-.019-.146.361-.044-.024-.2-.361.043Z" transform="translate(-541.007 -13.84)"/><path class="d" d="M547.816,25.615l-.058-.479-.255.032-.035,0-.044-.36-.2.024.044.36-.29.035.047.384Z" transform="translate(-541.1 -13.86)"/><path class="d" d="M546.806,25.339l-.011-.091-1.123.138.021.173H547.2l-.009-.066-.36.044Z" transform="translate(-541.27 -13.803)"/><path class="d" d="M545.458,25.578l-.02-.158-.255.031-.034,0-.045-.36-.2.024.044.36-.29.036.008.062Z" transform="translate(-541.401 -13.823)"/><path class="d" d="M549.438,20.932l-.1.012-.034,0-.045-.36-.2.024.044.36-.29.035.138,1.123h0l.6-.073A7.85,7.85,0,0,0,549.438,20.932Z" transform="translate(-540.863 -14.407)"/><path class="d" d="M548.678,21.117l-.011-.092-1.123.138.032.255,0,.035-.361.044.024.2.361-.044.035.289,1.123-.137h0l-.036-.29.361-.044-.024-.2-.361.044Z" transform="translate(-541.07 -14.35)"/><path class="d" d="M547.32,22.332l.093-.012-.139-1.122-.254.032-.035,0-.044-.359-.2.024.044.36-.289.035.138,1.123h0Z" transform="translate(-541.163 -14.37)"/><path class="d" d="M546.36,21.4l-.011-.091-1.123.137.031.255,0,.035-.359.044.023.2.361-.044.035.29,1.123-.137h0l-.036-.29.361-.045-.024-.2-.359.044Z" transform="translate(-541.37 -14.314)"/><path class="d" d="M545,22.616l.091-.01-.138-1.124-.254.032-.036,0-.044-.36-.2.025.044.359-.289.036.138,1.122h0Z" transform="translate(-541.464 -14.333)"/><path class="d" d="M544.04,21.686l-.011-.092-1.123.138.031.255,0,.035-.36.044.024.2.361-.044.035.29,1.122-.138h0l-.035-.289.36-.045-.024-.2-.36.044Z" transform="translate(-541.67 -14.277)"/><path class="d" d="M549.539,22.253l-.04,0-.034,0-.045-.36-.2.024.044.36-.29.036.138,1.122h0l.424-.052Z" transform="translate(-540.842 -14.237)"/><path class="d" d="M548.839,22.429l-.011-.092-1.123.138.032.255,0,.035-.361.044.024.2.361-.045.035.29,1.122-.138h0l-.035-.29.361-.044-.024-.2-.361.044Z" transform="translate(-541.049 -14.18)"/><path class="d" d="M547.482,23.644l.092-.011-.138-1.122-.255.03-.035,0-.044-.36-.2.025.044.359-.289.036.138,1.123h0Z" transform="translate(-541.142 -14.2)"/><path class="d" d="M546.521,22.714l-.011-.091-1.123.138.031.255,0,.035-.36.044.023.2.361-.044.035.29L546.6,23.4h0l-.035-.29.36-.045-.024-.2-.36.044Z" transform="translate(-541.349 -14.143)"/><path class="d" d="M545.162,23.929l.091-.011-.138-1.123-.254.032-.036,0-.044-.36-.2.024.044.36-.29.035.138,1.123h0Z" transform="translate(-541.443 -14.163)"/><path class="d" d="M544.2,23l-.011-.092-1.123.138.031.255.006.034-.361.044.024.2.36-.044.035.29,1.123-.138h0l-.035-.29.36-.044-.023-.2-.361.044Z" transform="translate(-541.65 -14.107)"/><path class="d" d="M548.528,18.608l.1.814h0l.3-.037A8.1,8.1,0,0,0,548.528,18.608Z" transform="translate(-540.9 -14.664)"/><path class="d" d="M548.356,18.491l-.011-.092-1.123.138.032.255,0,.035-.361.044.024.2.36-.045.036.29,1.122-.138h0l-.036-.29.361-.044-.024-.2-.361.044Z" transform="translate(-541.111 -14.691)"/><path class="d" d="M547,19.706l.091-.011-.137-1.123-.254.032-.036,0-.044-.36-.2.025.044.359-.289.036.137,1.122h0Z" transform="translate(-541.205 -14.71)"/><path class="d" d="M546.037,18.776l-.012-.091-1.122.137.031.255,0,.035-.361.044.024.2.361-.045.035.29,1.123-.137h0l-.035-.29.36-.044-.024-.2-.36.045Z" transform="translate(-541.412 -14.654)"/><path class="d" d="M544.679,19.991l.091-.011-.138-1.123-.255.032-.035,0-.044-.36-.2.024.044.36-.29.035.138,1.123h0Z" transform="translate(-541.505 -14.673)"/><path class="d" d="M543.718,19.06l-.011-.092-1.123.138.031.255,0,.035-.359.043.024.2.36-.045.036.29,1.122-.138h0l-.035-.29.36-.045-.024-.2-.359.044Z" transform="translate(-541.712 -14.617)"/><path class="d" d="M548.909,19.3H548.9l.044.36-.289.036.137,1.122h0l.6-.072A8,8,0,0,0,548.909,19.3Z" transform="translate(-540.884 -14.574)"/><path class="d" d="M548.517,19.8l-.011-.092-1.123.138.032.255,0,.035-.36.045.024.2.361-.045.035.29,1.122-.138h0l-.035-.29.361-.045-.024-.2-.361.044Z" transform="translate(-541.091 -14.521)"/><path class="d" d="M547.158,21.019l.093-.011-.138-1.123-.255.032-.034,0-.045-.36-.2.025.044.359-.29.035.137,1.123h0Z" transform="translate(-541.184 -14.54)"/><path class="d" d="M546.2,20.088,546.187,20l-1.123.138.031.255,0,.035-.36.044.024.2.36-.044.035.29,1.123-.138h0l-.035-.29.36-.044-.024-.2-.36.045Z" transform="translate(-541.391 -14.484)"/><path class="d" d="M544.84,21.3l.092-.011-.138-1.123-.255.032-.035,0-.044-.359-.2.024.045.36-.289.035.138,1.123h0Z" transform="translate(-541.484 -14.503)"/><path class="d" d="M543.879,20.373l-.011-.092-1.123.138.031.255,0,.035-.36.044.024.2.359-.044.036.29,1.122-.138h0l-.035-.29.36-.045-.023-.2-.361.044Z" transform="translate(-541.691 -14.447)"/><path class="d" d="M546.675,17.033l.093-.011-.06-.485a8.062,8.062,0,0,0-.847-.544h-.008l.138,1.123h0Z" transform="translate(-541.247 -15.002)"/><path class="d" d="M545.714,16.15l-.011-.091-1.123.138.032.255,0,.035-.361.045.024.2.361-.044.035.29,1.122-.138h0l-.035-.29.361-.045-.024-.2-.36.044Z" transform="translate(-541.454 -14.994)"/><path class="d" d="M544.357,17.365l.091-.01-.138-1.123-.255.032-.035,0-.044-.361-.2.025.044.36-.29.035.138,1.123h0Z" transform="translate(-541.547 -15.014)"/><path class="d" d="M543.4,16.435l-.011-.091-1.123.138.031.255,0,.035-.36.044.024.2.36-.044.035.29,1.123-.138h0l-.035-.29.36-.044-.024-.2-.36.045Z" transform="translate(-541.754 -14.957)"/><path class="d" d="M547.5,17.161l-.437.054.033.254,0,.035-.36.044.025.2.359-.044.036.289.975-.12A7.888,7.888,0,0,0,547.5,17.161Z" transform="translate(-541.132 -14.851)"/><path class="d" d="M546.836,18.394l.093-.012-.139-1.122-.253.03-.036,0-.044-.359-.2.024.044.359-.288.036.138,1.123h0Z" transform="translate(-541.226 -14.88)"/><path class="d" d="M545.875,17.463l-.011-.092-1.122.138.031.255,0,.035-.359.044.023.2L544.8,18l.035.29,1.123-.138h0l-.035-.29.359-.044-.024-.2-.361.044Z" transform="translate(-541.433 -14.824)"/><path class="d" d="M544.518,18.678l.091-.011-.138-1.122-.255.03-.035,0-.044-.36-.2.025.045.36-.29.035.138,1.122h0Z" transform="translate(-541.526 -14.843)"/><path class="d" d="M543.557,17.748l-.012-.092-1.122.137.032.255,0,.035-.36.044.024.2.36-.044.035.29,1.123-.138h0l-.035-.29.36-.044-.024-.2-.36.045Z" transform="translate(-541.733 -14.787)"/><path class="d" d="M544.113,15.311l0,.03.082-.01-.086-.02Zm.377.1.023.176.376-.046C544.758,15.494,544.625,15.451,544.49,15.412Z" transform="translate(-541.472 -15.091)"/><path class="d" d="M544.193,15.978l.092-.011-.079-.638a7.9,7.9,0,0,0-.808-.151l.11.884h0Z" transform="translate(-541.565 -15.108)"/><path class="d" d="M542.436,15.116l-.336.042.032.254,0,.035-.361.044.025.2.36-.044.035.289,1.124-.138h0l-.036-.29.36-.044-.024-.2-.36.044-.021-.164c-.219-.019-.441-.029-.667-.029Z" transform="translate(-541.775 -15.116)"/></g><path class="d" d="M543,25.526l.093-.01-.138-1.123-.255.03-.035,0-.044-.36-.2.025.044.36-.289.035.139,1.123h0Z" transform="translate(-529.841 -13.956)"/><path class="d" d="M542.043,24.6l-.011-.091-1.123.138.032.255,0,.035-.361.044.024.2.361-.044.035.29,1.123-.137h0l-.036-.29.361-.044-.024-.2-.361.044Z" transform="translate(-530.048 -13.9)"/><path class="d" d="M540.762,25.674l-.122-1-.255.031-.035,0-.044-.36-.2.024.044.361-.289.035.11.9Z" transform="translate(-530.142 -13.919)"/><path class="d" d="M539.725,24.881l-.012-.091-1.122.138.031.255,0,.035-.361.045.024.2.361-.044.026.2h.7l.429-.052h0l-.035-.29.359-.044-.024-.2-.36.044Z" transform="translate(-530.349 -13.863)"/><path class="d" d="M538.4,25.638l-.083-.676-.255.031-.034,0-.044-.36-.2.024.044.36-.29.036.072.58Z" transform="translate(-530.442 -13.882)"/><path class="d" d="M537.406,25.165l-.011-.092-1.123.138.032.255,0,.035-.361.044,0,.036h1.506l0-.02.361-.044-.026-.2-.359.044Z" transform="translate(-530.649 -13.826)"/><path class="d" d="M536.045,25.6,536,25.247l-.255.031-.035,0-.044-.36-.2.024.044.36-.289.035.031.259Z" transform="translate(-530.743 -13.845)"/><path class="d" d="M535.049,25.45l-.011-.092-1.122.138.005.048h1.14Z" transform="translate(-530.912 -13.789)"/><path class="d" d="M542.777,25.541l-.019-.16-.2.024.017.136Z" transform="translate(-529.792 -13.786)"/><path class="d" d="M533.659,25.564l0-.032-.255.032h.26Zm-.295,0-.044-.357-.2.025.041.332Z" transform="translate(-531.015 -13.809)"/><path class="d" d="M542.682,22.9l.091-.011-.138-1.123-.255.032-.034,0-.044-.36-.2.024.044.36-.29.036L542,22.986h0Z" transform="translate(-529.883 -14.296)"/><path class="d" d="M541.721,21.971l-.011-.092-1.122.138.031.255,0,.035-.361.044.024.2.361-.045.035.29,1.123-.138h0l-.036-.29.361-.044-.024-.2-.361.044Z" transform="translate(-530.09 -14.24)"/><path class="d" d="M540.363,23.186l.093-.011-.139-1.123-.254.032-.035,0-.044-.359-.2.024.044.36-.289.036.138,1.122h0Z" transform="translate(-530.183 -14.259)"/><path class="d" d="M539.4,22.256l-.012-.091-1.122.137.031.255,0,.035-.36.044.023.2.361-.045.035.29,1.123-.138h0l-.036-.29.361-.044-.024-.2-.36.044Z" transform="translate(-530.39 -14.203)"/><path class="d" d="M538.044,23.47l.092-.01L538,22.337l-.254.03-.035,0-.045-.36-.2.025.044.36-.289.035.138,1.123h0Z" transform="translate(-530.484 -14.223)"/><path class="d" d="M537.083,22.54l-.011-.092-1.123.138.031.255,0,.035-.36.045.024.2.36-.045.035.29,1.123-.138h0l-.035-.29.361-.045-.024-.2-.361.044Z" transform="translate(-530.691 -14.166)"/><path class="d" d="M535.725,23.755l.091-.011-.137-1.122-.255.031-.035,0-.044-.36-.2.024.044.36-.289.036.138,1.123h0Z" transform="translate(-530.784 -14.186)"/><path class="d" d="M534.764,22.825l-.011-.092-1.122.138.031.255,0,.035-.361.044.024.2.361-.044.035.29,1.123-.138h0l-.036-.29.361-.044-.024-.2-.36.044Z" transform="translate(-530.991 -14.129)"/><path class="d" d="M542.843,24.214l.092-.011L542.8,23.08l-.256.032-.034,0-.044-.359-.2.024.044.36-.289.035.138,1.123h0Z" transform="translate(-529.862 -14.126)"/><path class="d" d="M541.882,23.283l-.011-.092-1.122.138.031.255,0,.035-.361.045.024.2.36-.044.036.29,1.122-.138h0l-.035-.29.361-.044-.024-.2-.361.044Z" transform="translate(-530.069 -14.07)"/><path class="d" d="M540.525,24.5l.091-.012-.138-1.122-.255.032-.035,0-.044-.359-.2.024.045.359-.29.036.138,1.123h0Z" transform="translate(-530.163 -14.089)"/><path class="d" d="M539.564,23.568l-.011-.092-1.123.138.031.255,0,.035-.36.044.024.2.36-.044.035.29,1.123-.137h0l-.035-.29.36-.044-.024-.2-.359.045Z" transform="translate(-530.369 -14.033)"/><path class="d" d="M538.205,24.783l.091-.011-.138-1.123-.254.032-.036,0-.044-.36-.2.025.044.359-.29.036.138,1.122h0Z" transform="translate(-530.463 -14.052)"/><path class="d" d="M537.244,23.853l-.011-.092-1.123.138.032.254,0,.035-.361.044.024.2.36-.044.036.29,1.122-.138h0l-.035-.29.36-.044-.023-.2-.361.044Z" transform="translate(-530.67 -13.996)"/><path class="d" d="M535.886,25.068l.093-.011-.138-1.122-.256.03-.034,0-.044-.359-.2.024.044.36-.289.035.138,1.123h0Z" transform="translate(-530.763 -14.015)"/><path class="d" d="M534.926,24.138l-.012-.092-1.123.138.032.254,0,.035-.361.044.024.2.361-.044.035.29,1.123-.138h0l-.036-.289.361-.045-.024-.2-.361.044Z" transform="translate(-530.97 -13.959)"/><path class="d" d="M542.36,20.276l.091-.011-.138-1.123-.255.031-.034,0-.044-.36-.2.025.044.36-.29.035.139,1.123h0Z" transform="translate(-529.925 -14.636)"/><path class="d" d="M541.4,19.346l-.011-.092-1.123.138.032.255,0,.035-.361.044.024.2.361-.044.035.29,1.123-.138h0l-.036-.29.361-.045-.024-.2-.361.044Z" transform="translate(-530.132 -14.58)"/><path class="d" d="M540.04,20.561l.093-.012-.138-1.122-.255.032-.035,0-.045-.36-.2.025.045.359-.289.036.137,1.123h0Z" transform="translate(-530.225 -14.6)"/><path class="d" d="M539.079,19.63l-.011-.091-1.122.138.031.255,0,.035-.361.044.024.2.361-.044.035.29,1.123-.138h0l-.035-.29.359-.045-.024-.2-.361.044Z" transform="translate(-530.432 -14.543)"/><path class="d" d="M537.722,20.845l.091-.011-.138-1.123-.255.032-.035,0-.044-.36-.2.024.044.36-.29.036.138,1.122h0Z" transform="translate(-530.526 -14.563)"/><path class="d" d="M536.761,19.915l-.011-.092-1.123.138.032.255,0,.035-.36.044.024.2.36-.044.035.29,1.123-.138h0l-.035-.29.36-.044-.024-.2-.36.044Z" transform="translate(-530.732 -14.506)"/><path class="d" d="M535.4,21.13l.091-.011L535.357,20l-.254.03-.035,0-.044-.36-.2.024.044.36-.289.036.137,1.122h0Z" transform="translate(-530.826 -14.526)"/><path class="d" d="M534.442,20.2l-.011-.092-1.122.137.031.255,0,.035-.361.044.024.2.361-.044.035.289,1.122-.137h0l-.035-.29.361-.044-.024-.2-.36.044Z" transform="translate(-531.033 -14.469)"/><path class="d" d="M542.521,21.588l.091-.011-.138-1.122-.255.03-.034,0-.045-.36-.2.024.044.36-.289.036.137,1.123h0Z" transform="translate(-529.904 -14.466)"/><path class="d" d="M541.56,20.658l-.011-.092-1.123.138.032.254,0,.035-.361.044.024.2.36-.044.036.29,1.123-.138h0l-.036-.29.361-.044-.024-.2-.361.044Z" transform="translate(-530.111 -14.41)"/><path class="d" d="M540.2,21.873l.093-.011-.138-1.122-.254.03-.036,0-.044-.36-.2.025.043.359-.289.036.138,1.122h0Z" transform="translate(-530.204 -14.429)"/><path class="d" d="M539.241,20.943l-.012-.092-1.122.138.031.255,0,.035-.36.044.023.2.361-.044.035.29,1.123-.137h0l-.035-.29.36-.044-.024-.2-.36.044Z" transform="translate(-530.411 -14.373)"/><path class="d" d="M537.883,22.158l.091-.011-.138-1.123-.255.032-.035,0L537.5,20.7l-.2.025.044.36-.29.035.139,1.123h0Z" transform="translate(-530.505 -14.393)"/><path class="d" d="M536.922,21.227l-.011-.092-1.123.137.032.255,0,.035-.359.045.024.2.36-.045.036.29,1.122-.137h0l-.035-.29.361-.044-.024-.2-.361.044Z" transform="translate(-530.712 -14.336)"/><path class="d" d="M535.564,22.442l.091-.01-.138-1.123-.255.031-.034,0-.044-.36-.2.025.044.359-.289.036.137,1.123h0Z" transform="translate(-530.805 -14.356)"/><path class="d" d="M534.6,21.512l-.011-.092-1.123.138.032.254,0,.035-.361.044.024.2.361-.044.035.29,1.122-.138h0l-.035-.29.361-.044-.024-.2-.36.044Z" transform="translate(-531.012 -14.299)"/><path class="d" d="M542.037,17.65l.091-.011-.138-1.122-.254.031-.035,0-.045-.36-.2.025.044.36-.29.035.138,1.123h0C541.813,17.679,541.689,17.694,542.037,17.65Z" transform="translate(-529.966 -14.977)"/><path class="d" d="M541.076,16.72l-.011-.092-1.123.138.032.255,0,.035-.361.044.024.2.36-.044.036.29,1.122-.137h0l-.035-.29.361-.045-.024-.2-.361.044Z" transform="translate(-530.173 -14.92)"/><path class="d" d="M539.718,17.935l.093-.011-.138-1.123-.256.032-.034,0-.044-.36-.2.024.044.36-.289.036.138,1.122h0Z" transform="translate(-530.267 -14.94)"/><path class="d" d="M538.757,17l-.011-.091-1.123.137.032.255,0,.035-.361.044.024.2.361-.044.035.29,1.123-.138h0l-.035-.29.36-.044-.024-.2-.361.044Z" transform="translate(-530.474 -14.883)"/><path class="d" d="M537.4,18.22l.091-.011-.138-1.123-.255.031-.035.006-.044-.36-.2.024.044.36-.29.035.138,1.123h0Z" transform="translate(-530.567 -14.903)"/><path class="d" d="M536.439,17.289l-.011-.092-1.123.138.031.254,0,.035-.359.044.024.2.36-.044.035.29,1.123-.138h0l-.035-.29.36-.044-.024-.2-.359.044Z" transform="translate(-530.774 -14.846)"/><path class="d" d="M535.08,18.5l.091-.011-.138-1.122-.253.031-.036,0-.044-.36-.2.025.044.36-.29.035.138,1.123h0Z" transform="translate(-530.868 -14.866)"/><path class="d" d="M534.119,17.574l-.011-.092-1.123.138.032.255,0,.035-.343.042-.015.02.022.179.361-.045.035.29,1.122-.137h0l-.035-.29.361-.044-.024-.2-.361.044Z" transform="translate(-531.075 -14.809)"/><path class="d" d="M542.2,18.963l.091-.011-.138-1.123-.254.032-.035,0-.044-.36-.2.024.044.36-.29.036.138,1.122h0Z" transform="translate(-529.946 -14.806)"/><path class="d" d="M541.238,18.033l-.011-.092-1.123.138.032.254,0,.035-.36.044.024.2.36-.044.036.29,1.122-.138h0l-.035-.289.361-.045-.024-.2-.361.044Z" transform="translate(-530.153 -14.75)"/><path class="d" d="M539.879,19.248l.093-.011-.139-1.123-.254.032-.035,0-.044-.359-.2.024.043.36-.288.035.138,1.123h0Z" transform="translate(-530.246 -14.77)"/><path class="d" d="M538.919,18.317l-.012-.091-1.122.138.031.255,0,.035-.361.044.024.2.361-.045.035.29L539,19h0l-.036-.29.361-.044-.024-.2-.36.044Z" transform="translate(-530.453 -14.713)"/><path class="d" d="M537.561,19.532l.091-.01-.138-1.123-.255.03-.035,0-.044-.36-.2.025.044.36-.29.035.138,1.123h0Z" transform="translate(-530.547 -14.733)"/><path class="d" d="M536.6,18.6l-.011-.092-1.123.138.032.255,0,.035-.36.045.023.2.361-.044.036.289,1.122-.137h0l-.035-.29.36-.044-.024-.2-.36.045Z" transform="translate(-530.753 -14.676)"/><path class="d" d="M535.241,19.817l.091-.011-.138-1.122-.254.031-.035,0-.044-.36-.2.024.044.36-.29.036.138,1.123h0Z" transform="translate(-530.847 -14.696)"/><path class="d" d="M534.281,18.887l-.011-.092-1.123.138.032.255,0,.035-.361.044.024.2.361-.045.035.29,1.123-.138h0l-.036-.29.361-.045-.024-.2-.361.044Z" transform="translate(-531.054 -14.639)"/><path class="d" d="M539.382,15.146l.091-.011,0-.019h-.787l.012.114h0Z" transform="translate(-530.294 -15.116)"/><path class="d" d="M537.063,15.454l.092-.01-.027-.221q-.39.069-.767.175l.018.141h0Z" transform="translate(-530.595 -15.102)"/><path class="d" d="M541.876,16.307l.091-.01-.138-1.123-.254.03-.036,0-.01-.093h-.2l.014.117-.289.035.138,1.123h0Z" transform="translate(-529.987 -15.116)"/><path class="d" d="M540.915,15.408l-.011-.092-1.123.138.032.255,0,.035-.361.045.024.2.36-.045.036.29L541,16.092h0l-.035-.29.36-.044-.023-.2-.361.045Z" transform="translate(-530.194 -15.09)"/><path class="d" d="M539.557,16.623l.092-.012-.137-1.123-.255.032-.035,0-.044-.36-.2.025.044.359-.29.036.139,1.123h0Z" transform="translate(-530.288 -15.11)"/><path class="d" d="M538.6,15.692l-.011-.092-1.122.138.031.255,0,.035-.361.045.024.2.361-.044.035.289,1.123-.137h0l-.036-.29.361-.044-.024-.2-.361.044Z" transform="translate(-530.495 -15.053)"/><path class="d" d="M537.238,16.907l.093-.011-.139-1.123-.254.032-.035,0-.044-.36-.2.024.045.36-.29.035.138,1.124h0Z" transform="translate(-530.588 -15.073)"/><path class="d" d="M536.278,15.977l-.012-.092-1.122.138.031.255,0,.035-.36.044.024.2.36-.044.035.29,1.123-.138h0l-.035-.29.36-.045-.023-.2-.361.044Z" transform="translate(-530.795 -15.016)"/><path class="d" d="M534.914,17.151l.091-.01-.134-1.1a7.84,7.84,0,0,0-.73.474l.089.722h0Z" transform="translate(-530.883 -14.996)"/><path class="d" d="M533.611,16.943l.287-.035h0l-.023-.189c-.089.072-.178.147-.264.224Zm.415-.345.2-.024-.014-.114C534.147,16.506,534.087,16.552,534.026,16.6Z" transform="translate(-530.952 -14.942)"/><path class="d" d="M533.405,24.04l.094-.011-.139-1.123-.254.032-.035,0-.044-.359-.2.024.044.36-.29.036.138,1.122h0Z" transform="translate(-531.085 -14.149)"/><path class="d" d="M532.411,23.11l-.011-.091-1.123.137.031.255,0,.035-.055.007v.2l.079-.01.035.29,1.123-.138h0l-.035-.29.359-.045-.024-.2-.36.044Z" transform="translate(-531.257 -14.092)"/><path class="d" d="M533.568,25.353l.091-.011-.138-1.123-.255.032-.035,0-.044-.359-.2.024.044.36-.29.035.138,1.123h0Z" transform="translate(-531.064 -13.979)"/><path class="d" d="M532.593,24.422l-.011-.091-1.123.138.031.255,0,.035-.237.029v.2l.261-.033.035.29,1.123-.137h0l-.035-.29.36-.044-.024-.2-.36.044Z" transform="translate(-531.257 -13.922)"/><path class="d" d="M533.084,21.414l.091-.01-.138-1.123-.254.032-.036,0-.044-.359-.2.024.045.36-.29.035L532.4,21.5h0Z" transform="translate(-531.127 -14.489)"/><path class="d" d="M532.038,20.484l-.011-.091-.552.068a7.65,7.65,0,0,0-.154.807l.8-.1h0l-.035-.289.359-.045-.024-.2-.36.044Z" transform="translate(-531.248 -14.432)"/><path class="d" d="M533.244,22.728l.093-.012-.138-1.122-.254.03-.036,0-.044-.36-.2.025.045.359-.29.036.138,1.123h0Z" transform="translate(-531.106 -14.319)"/><path class="d" d="M532.228,21.8l-.012-.091-.951.117c0,.113-.008.226-.008.34v.448l1.055-.129h0l-.035-.29.36-.044-.025-.2-.359.044Z" transform="translate(-531.257 -14.262)"/><path class="d" d="M532.733,18.713l.093-.011-.1-.785a7.7,7.7,0,0,0-.569.868Z" transform="translate(-531.14 -14.753)"/><path class="d" d="M532.922,20.1l.093-.011-.138-1.123-.255.032-.035,0-.044-.359-.2.025.044.359-.288.035.138,1.123h0Z" transform="translate(-531.147 -14.659)"/><path class="d" d="M531.654,19.858l.243-.03h0l-.035-.289.359-.044-.024-.2-.339.042C531.784,19.508,531.716,19.682,531.654,19.858Z" transform="translate(-531.205 -14.574)"/></g><rect class="n" width="22.857" height="7.258" rx="1.02" transform="translate(12.575 6.32)"/><g transform="translate(12.575 6.32)"><path class="d" d="M532.866,27.205l-.206-.405-.228.116-.032.016-.164-.323-.176.09.164.324-.259.132.025.05Z" transform="translate(-530.048 -19.947)"/><path class="d" d="M535.885,27.188l0-.007.323-.165-.09-.177-.323.164-.132-.26-.87.443Z" transform="translate(-529.682 -19.929)"/><path class="d" d="M535.448,26.649l.083-.042-.513-1.007-.229.116-.031.016-.164-.323-.177.09.165.323-.26.132.514,1.008h0l.259-.132.165.323.176-.09-.164-.323Z" transform="translate(-529.742 -20.102)"/><path class="d" d="M534.27,27.249l.083-.042-.514-1.008-.228.117-.031.016-.166-.323-.176.09.164.323-.26.132.372.729h.69Z" transform="translate(-529.895 -20.025)"/><path class="d" d="M538.825,27.247l-.391-.767-.228.116-.031.016-.165-.323-.176.09L538,26.7l-.259.132.209.411Z" transform="translate(-529.3 -19.988)"/><path class="d" d="M537.339,26.671l.042.082,1.006-.514-.115-.228-.017-.032.323-.165-.089-.177-.324.165-.132-.26-1.007.514h0C537.235,26.469,537.179,26.359,537.339,26.671Z" transform="translate(-529.392 -20.085)"/><path class="d" d="M537.805,25.448l.083-.042-.514-1.008-.228.117-.032.016-.164-.323-.177.09.164.323-.26.132.514,1.008h0l.259-.132.166.323.177-.09-.164-.323Z" transform="translate(-529.437 -20.258)"/><path class="d" d="M537.291,27.169l-.045-.088-.175.088Zm-.329,0-.142-.279-.176.089.1.19Z" transform="translate(-529.441 -19.91)"/><path class="d" d="M536.376,27.265l.833-.425-.116-.228-.017-.031.323-.164-.089-.177-.323.165-.133-.26-1.007.513h0l.31.608Z" transform="translate(-529.545 -20.007)"/><path class="d" d="M536.626,26.048l.083-.041L536.2,25l-.228.117-.031.015-.164-.323-.177.09.164.323-.259.132.513,1.008h0l.26-.132.164.323.177-.09-.165-.324Z" transform="translate(-529.59 -20.18)"/><path class="d" d="M541.594,27.229l.212-.108-.117-.228-.016-.032L542,26.7l-.09-.177-.323.165-.133-.26-1.007.514h0l.148.292Z" transform="translate(-528.949 -19.971)"/><path class="d" d="M541.223,26.329l.082-.042-.513-1.008-.229.116-.031.016-.165-.324-.177.09.166.323-.26.133.513,1.008h0l.26-.133.164.324.177-.09-.165-.323Z" transform="translate(-528.994 -20.144)"/><path class="d" d="M539.695,25.47l.042.082,1.008-.513-.116-.229-.016-.032.324-.164-.09-.177-.324.165-.133-.261-1.006.514h0Z" transform="translate(-529.087 -20.241)"/><path class="d" d="M540.161,24.247l.083-.042-.513-1.007-.229.116-.031.017-.164-.324-.178.09.164.323-.26.132.514,1.008h0l.26-.132.164.323.176-.09-.164-.323Z" transform="translate(-529.132 -20.414)"/><path class="d" d="M540.657,27.152l-.016-.032-.061.032Zm-.408,0-.064-.128-.248.128Z" transform="translate(-529.015 -19.893)"/><path class="d" d="M540.044,26.929l.083-.042-.514-1.008-.228.117-.032.016-.164-.324-.177.09.165.323-.26.132.514,1.008h0l.26-.132.109.214h.222l-.156-.3Z" transform="translate(-529.147 -20.066)"/><path class="d" d="M538.516,26.07l.043.084,1.008-.514-.116-.229-.016-.03.323-.165-.09-.177-.323.165-.132-.26-1.009.514h0C538.414,25.868,538.358,25.757,538.516,26.07Z" transform="translate(-529.239 -20.163)"/><path class="d" d="M538.983,24.847l.083-.042-.513-1.008-.228.116-.032.016-.164-.323-.177.09.164.323-.26.133.513,1.008h0l.26-.133.166.324.177-.09-.165-.324Z" transform="translate(-529.284 -20.336)"/><path class="d" d="M544.64,27.21l.083-.042-.514-1.008-.228.116-.032.016-.164-.324-.176.09.164.323-.26.133.394.773h.581Z" transform="translate(-528.552 -20.03)"/><path class="d" d="M543.112,26.351l.042.082,1.009-.514-.118-.228-.015-.032.323-.165-.089-.176-.324.165-.133-.261-1.006.514h0Z" transform="translate(-528.644 -20.126)"/><path class="d" d="M543.58,25.128l.083-.042-.514-1.007-.228.116-.032.016-.164-.323-.178.09.165.323-.26.132.514,1.008h0l.259-.132.165.323.177-.09-.164-.324Z" transform="translate(-528.689 -20.299)"/><path class="d" d="M542.052,24.27l.042.081,1.008-.513-.116-.229-.016-.032.323-.165-.09-.176-.323.165-.132-.26-1.009.513h0C541.949,24.067,541.893,23.956,542.052,24.27Z" transform="translate(-528.781 -20.396)"/><path class="d" d="M542.519,23.046,542.6,23,542.088,22l-.228.116-.032.017-.164-.324-.177.09.166.324-.26.132.514,1.008h0l.259-.132.165.323.176-.09-.164-.323Z" transform="translate(-528.826 -20.569)"/><path class="d" d="M543.259,27.21l-.229-.45-.228.117-.031.015-.166-.323-.176.09.164.323-.26.132.048.095Z" transform="translate(-528.704 -19.952)"/><path class="d" d="M541.934,26.951l.042.082,1.008-.513-.115-.229-.017-.032.323-.164-.09-.177-.322.165-.132-.26-1.009.513h0Z" transform="translate(-528.797 -20.049)"/><path class="d" d="M542.4,25.728l.083-.042-.514-1.008-.228.116-.031.016-.165-.324-.177.09.164.324-.259.132.513,1.008h0l.26-.132.164.323.176-.09-.164-.323Z" transform="translate(-528.842 -20.222)"/><path class="d" d="M540.874,24.87l.042.082,1.008-.514-.116-.229-.017-.032.323-.164-.089-.177L541.7,24l-.132-.26-1.008.513h0C540.77,24.668,540.714,24.556,540.874,24.87Z" transform="translate(-528.934 -20.318)"/><path class="d" d="M541.34,23.646l.083-.041-.514-1.008-.228.116-.032.016-.164-.323-.176.09.164.323-.26.133.514,1.007h0l.26-.132.164.324.176-.09-.164-.323Z" transform="translate(-528.979 -20.491)"/><path class="d" d="M531.564,26.991l.042.082,1.008-.514-.116-.228-.016-.032.324-.165-.09-.177-.323.165-.133-.26-1.008.514h0C531.46,26.789,531.4,26.679,531.564,26.991Z" transform="translate(-530.14 -20.043)"/><path class="d" d="M532.031,25.768l.083-.041-.514-1.008-.228.116-.031.016-.165-.323-.177.09.164.323-.26.132.514,1.008h0l.26-.133.164.324.176-.09-.164-.324Z" transform="translate(-530.185 -20.217)"/><path class="d" d="M530.493,24.91l.043.082,1.007-.513-.116-.229-.017-.031.323-.164-.09-.177-.323.165-.132-.26-.92.469v.216Z" transform="translate(-530.268 -20.313)"/><path class="d" d="M530.915,23.664l.083-.042-.514-1.008-.216.111v1.187l.033.065h0l.26-.132.164.323.176-.09-.164-.323Z" transform="translate(-530.268 -20.464)"/><path class="d" d="M530.268,22.426l.077-.041-.077-.151v.192Zm0-.328.268-.138-.09-.176-.177.09Z" transform="translate(-530.267 -20.572)"/><path class="d" d="M531.273,27.218l.112-.056-.116-.229-.017-.03.324-.166-.09-.176-.323.165-.132-.261-.565.288A1.156,1.156,0,0,0,531.273,27.218Z" transform="translate(-530.242 -19.966)"/><path class="d" d="M530.783,26.346l.081-.042-.513-1.008-.084.043v.882a1.169,1.169,0,0,0,.055.358l.1-.053.165.323.177-.09-.166-.323Z" transform="translate(-530.267 -20.117)"/><path class="d" d="M530.268,24.712l.135-.069-.089-.177-.045.023Z" transform="translate(-530.268 -20.224)"/><path class="d" d="M533.921,25.79l.042.082,1.008-.514-.116-.228-.017-.032.324-.165-.09-.176-.323.165-.132-.261-1.009.514h0C533.817,25.588,533.761,25.478,533.921,25.79Z" transform="translate(-529.835 -20.199)"/><path class="d" d="M534.388,24.567l.082-.042-.513-1.008-.23.116-.031.016-.166-.323-.176.09.165.323-.26.133.513,1.008h0l.26-.133.164.324.178-.09-.164-.323Z" transform="translate(-529.88 -20.372)"/><path class="d" d="M532.86,23.709l.042.081,1.009-.513-.117-.229-.016-.032.324-.165-.09-.176-.323.165-.133-.26-1.008.513h0C532.757,23.506,532.7,23.4,532.86,23.709Z" transform="translate(-529.972 -20.469)"/><path class="d" d="M533.327,22.485l.083-.042-.514-1.008-.228.116-.031.016-.165-.323-.177.09.165.324-.26.132.513,1.008h0l.26-.132.164.323.176-.09-.164-.323Z" transform="translate(-530.017 -20.642)"/><path class="d" d="M531.8,21.6l.042.081,1.006-.513-.115-.228-.017-.033.323-.164-.016-.033h-.358l-.04.02-.01-.02h-.593l-.537.273h0Z" transform="translate(-530.11 -20.711)"/><path class="d" d="M532.742,26.39l.042.082,1.009-.513-.117-.229-.015-.032.323-.164-.09-.177-.324.165-.132-.26-1.007.513h0C532.639,26.189,532.582,26.077,532.742,26.39Z" transform="translate(-529.987 -20.121)"/><path class="d" d="M533.209,25.167l.083-.042-.514-1.008-.228.117-.032.016-.164-.324-.177.09.164.323-.26.132.514,1.008h0l.26-.132.164.323.176-.09-.165-.323Z" transform="translate(-530.033 -20.294)"/><path class="d" d="M531.681,24.309l.043.081,1.008-.513-.116-.228-.016-.032.323-.165-.09-.177-.323.165-.132-.26-1.009.513h0C531.579,24.107,531.523,24,531.681,24.309Z" transform="translate(-530.125 -20.391)"/><path class="d" d="M532.148,23.086l.083-.042-.513-1.008-.228.116-.032.016-.164-.324-.177.09.165.323-.26.132.513,1.008h0l.26-.133.165.324.176-.09-.164-.323Z" transform="translate(-530.17 -20.564)"/><path class="d" d="M530.621,22.227l.042.082,1.007-.514-.116-.228-.017-.032.325-.165-.091-.176-.323.165-.132-.261-1.008.514h0C530.518,22.025,530.46,21.915,530.621,22.227Z" transform="translate(-530.262 -20.661)"/><path class="d" d="M531.02,20.876l.081-.043-.04-.079a1.151,1.151,0,0,0-.576.394l.178-.091.165.323.177-.09-.165-.323Z" transform="translate(-530.239 -20.705)"/><path class="d" d="M536.277,24.589l.042.082,1.009-.513-.117-.229L537.2,23.9l.323-.165-.09-.176-.323.165-.133-.261-1.008.514h0C536.174,24.387,536.119,24.277,536.277,24.589Z" transform="translate(-529.53 -20.355)"/><path class="d" d="M536.745,23.366l.082-.041-.513-1.008-.228.116-.032.016-.164-.323-.176.09.164.324-.26.132.514,1.008h0l.259-.132.165.323.177-.09-.166-.324Z" transform="translate(-529.575 -20.528)"/><path class="d" d="M535.217,22.507l.042.082,1.008-.513-.116-.229-.017-.031.324-.165-.09-.177-.323.165-.132-.261-1.009.515h0C535.114,22.306,535.058,22.195,535.217,22.507Z" transform="translate(-529.667 -20.624)"/><path class="d" d="M535.672,21.2l.082-.042-.226-.445h-.878l.407.8h0l.26-.133.166.324.177-.09-.164-.323Z" transform="translate(-529.7 -20.711)"/><path class="d" d="M535.1,25.19l.043.081,1.006-.513-.116-.228-.016-.033.323-.164-.089-.176-.324.164-.132-.26-1.008.514h0C535,24.988,534.94,24.878,535.1,25.19Z" transform="translate(-529.682 -20.277)"/><path class="d" d="M535.566,23.966l.083-.042-.514-1.008-.228.116-.031.016-.165-.323-.177.09.164.324-.259.132.513,1.008h0l.26-.132.164.323.177-.09-.165-.323Z" transform="translate(-529.727 -20.45)"/><path class="d" d="M534.038,23.108l.043.082,1.008-.514-.116-.228-.017-.032.324-.165-.092-.176-.323.164-.132-.26-1.006.514h0C533.935,22.906,533.878,22.8,534.038,23.108Z" transform="translate(-529.819 -20.547)"/><path class="d" d="M534.505,21.876l.083-.042-.514-1.008-.228.116-.032.016-.126-.248H533.5l-.028.014.164.324-.26.133.514,1.008h0l.26-.133.164.323.176-.09-.164-.323Z" transform="translate(-529.865 -20.711)"/><path class="d" d="M532.954,20.922,533,21l.572-.292h-.721Z" transform="translate(-529.933 -20.711)"/><path class="d" d="M538.635,23.388l.042.082,1.006-.514-.116-.228-.016-.032.323-.164-.089-.177-.323.165-.133-.261-1.008.514h0C538.531,23.186,538.474,23.076,538.635,23.388Z" transform="translate(-529.224 -20.51)"/><path class="d" d="M539.1,22.165l.083-.042-.514-1.008-.228.116-.032.016-.164-.323-.177.09.164.323-.259.133.513,1.008h0l.26-.133.164.324.177-.09-.165-.324Z" transform="translate(-529.269 -20.683)"/><path class="d" d="M537.568,21.238l.042.082,1.008-.514-.049-.1H537.3Z" transform="translate(-529.356 -20.711)"/><path class="d" d="M537.456,23.989l.042.082,1.008-.514-.116-.229-.016-.03.324-.165-.091-.176-.323.164-.132-.26-1.007.514h0C537.352,23.787,537.3,23.677,537.456,23.989Z" transform="translate(-529.377 -20.432)"/><path class="d" d="M537.922,22.766l.083-.042-.513-1.007-.229.116-.031.016-.165-.324-.176.09.166.324-.26.132.513,1.008h0l.26-.132.164.323.178-.09-.166-.323Z" transform="translate(-529.422 -20.606)"/><path class="d" d="M536.395,21.907l.042.082,1.009-.513-.118-.229-.016-.032.324-.164-.09-.178-.323.166-.132-.261-1.009.514h0C536.293,21.705,536.236,21.595,536.395,21.907Z" transform="translate(-529.514 -20.702)"/><path class="d" d="M536.134,20.711l.061.122h0l.238-.122Zm.328,0,.158.313.177-.09-.113-.223Z" transform="translate(-529.508 -20.711)"/><path class="d" d="M540.991,22.187l.042.082,1.008-.513-.116-.228-.015-.033.323-.164-.09-.177-.324.165-.133-.26-1.006.514h0Z" transform="translate(-528.919 -20.666)"/><path class="d" d="M541.424,20.837l.083-.042-.042-.083h-.878l.223.438h0l.26-.133.164.324.178-.09-.164-.323Z" transform="translate(-528.931 -20.711)"/><path class="d" d="M539.813,22.788l.042.082,1.008-.514-.117-.228-.015-.032.323-.165-.09-.176-.323.165-.132-.261-1.009.514h0C539.709,22.586,539.654,22.474,539.813,22.788Z" transform="translate(-529.072 -20.588)"/><path class="d" d="M540.28,21.515l.083-.042-.388-.761h-.61l-.213.109.514,1.008h0l.259-.132.165.323.177-.09L540.1,21.6Z" transform="translate(-529.117 -20.711)"/><path class="d" d="M547.683,27.174l-.067-.133-.229.116-.031.016-.164-.323-.178.09.119.233Z" transform="translate(-528.098 -19.916)"/><path class="d" d="M546.53,27.232l.019.038h.108l.922-.47-.116-.228-.016-.032.323-.165-.089-.176-.323.164-.134-.26-1.006.514h0C546.427,27.03,546.37,26.92,546.53,27.232Z" transform="translate(-528.201 -20.012)"/><path class="d" d="M547,26.008l.083-.042-.513-1.008-.229.117-.031.016-.165-.323-.177.089.164.324-.259.132.513,1.008h0l.26-.132.164.323.178-.09-.165-.323Z" transform="translate(-528.246 -20.185)"/><path class="d" d="M545.47,25.15l.042.082,1.008-.513-.116-.229-.017-.032.323-.165-.09-.177-.323.165-.132-.259-1.007.513h0C545.366,24.948,545.31,24.837,545.47,25.15Z" transform="translate(-528.339 -20.282)"/><path class="d" d="M545.936,23.927l.083-.042-.514-1.008-.228.116-.031.016-.165-.323-.176.09.164.323-.259.133.513,1.008h0l.26-.133.164.324.176-.09-.164-.324Z" transform="translate(-528.384 -20.455)"/><path class="d" d="M544.409,23.07l.042.081,1.008-.513-.118-.229-.015-.032.323-.164-.09-.177-.324.165-.132-.261-1.006.514h0C544.3,22.867,544.249,22.756,544.409,23.07Z" transform="translate(-528.476 -20.552)"/><path class="d" d="M544.875,21.832l.083-.042-.514-1.008-.228.116-.032.016-.1-.2h-.223l.149.293-.26.132.514,1.008h0l.26-.133.164.323.177-.09-.164-.323Z" transform="translate(-528.521 -20.711)"/><path class="d" d="M546.289,27.193l-.01-.02-.016-.031.323-.165-.09-.176-.323.164-.132-.26-.959.488Z" transform="translate(-528.348 -19.934)"/><path class="d" d="M545.819,26.609l.081-.042-.513-1.008-.228.116-.032.016-.164-.323-.176.09.164.323-.26.133.514,1.008h0l.259-.133.166.324.176-.09-.164-.324Z" transform="translate(-528.399 -20.108)"/><path class="d" d="M544.291,25.751l.042.081,1.009-.513-.117-.229-.017-.03.324-.165-.09-.176-.323.164-.133-.26-1.008.513h0C544.188,25.548,544.131,25.437,544.291,25.751Z" transform="translate(-528.491 -20.204)"/><path class="d" d="M544.757,24.528l.083-.042-.513-1.008-.229.117-.031.016-.164-.323-.178.09.166.324-.26.132.513,1.008h0l.26-.132.165.323.177-.09-.164-.323Z" transform="translate(-528.536 -20.377)"/><path class="d" d="M543.23,23.669l.042.082,1.007-.514-.116-.228-.016-.032.324-.165-.09-.176-.323.165-.132-.261-1.009.514h0C543.126,23.467,543.071,23.357,543.23,23.669Z" transform="translate(-528.629 -20.474)"/><path class="d" d="M543.7,22.446l.083-.042-.513-1.007-.229.116-.031.016-.166-.323-.177.09.166.324-.26.132.513,1.008h0l.26-.133.164.323.177-.09-.165-.323Z" transform="translate(-528.674 -20.647)"/><path class="d" d="M550.474,26.8l-.491-.962-.228.116-.032.017-.165-.324-.176.09.165.323-.261.133L549.8,27.2h0l.26-.132.046.09a1.2,1.2,0,0,0,.162-.12l-.031-.061.172-.087A1.016,1.016,0,0,0,550.474,26.8Z" transform="translate(-527.804 -20.071)"/><path class="d" d="M548.887,26.031l.042.082,1.008-.514-.116-.229-.016-.03.323-.165-.09-.176-.323.164-.132-.26-1.009.514h0C548.784,25.829,548.727,25.719,548.887,26.031Z" transform="translate(-527.896 -20.168)"/><path class="d" d="M549.354,24.808l.082-.042-.513-1.008-.228.116-.032.016-.164-.323-.178.09.166.324-.26.132.513,1.008h0l.26-.132.165.323.177-.09-.165-.323Z" transform="translate(-527.941 -20.341)"/><path class="d" d="M547.826,23.949l.042.082,1.009-.513-.117-.229-.016-.032.324-.164-.09-.177-.324.165-.132-.26-1.008.513h0C547.723,23.747,547.665,23.636,547.826,23.949Z" transform="translate(-528.033 -20.437)"/><path class="d" d="M548.292,22.726l.083-.042-.513-1.008-.229.116-.031.016-.164-.324-.178.09.165.323-.26.132.513,1.008h0l.26-.133.165.324.176-.09-.164-.323Z" transform="translate(-528.078 -20.611)"/><path class="d" d="M546.765,21.867l.043.084,1.006-.514-.115-.229-.017-.03.323-.165-.089-.177-.323.165-.132-.26-1.009.513h0Z" transform="translate(-528.171 -20.707)"/><path class="d" d="M546.524,20.711l.04.078h0l.15-.078Zm.328,0,.137.268.177-.089-.09-.178Z" transform="translate(-528.161 -20.711)"/><path class="d" d="M549.218,27.252l-.414-.811-.228.116-.031.016-.165-.324-.176.09.164.324-.259.132.232.456Z" transform="translate(-527.956 -19.993)"/><path class="d" d="M547.709,26.631l.041.082,1.009-.513-.118-.228-.016-.032.323-.165-.09-.177-.323.165-.132-.26-1.009.513h0Z" transform="translate(-528.049 -20.09)"/><path class="d" d="M548.175,25.408l.083-.042-.514-1.008-.228.116-.032.016-.164-.323-.177.09.164.323-.259.133.513,1.007h0l.26-.132.164.324.177-.09L548,25.5Z" transform="translate(-528.093 -20.263)"/><path class="d" d="M546.647,24.55l.042.082,1.009-.514-.116-.229-.016-.03.323-.165-.09-.176-.323.164-.132-.26-1.008.514h0C546.544,24.348,546.489,24.236,546.647,24.55Z" transform="translate(-528.186 -20.36)"/><path class="d" d="M547.115,23.327l.083-.042-.514-1.008-.229.117-.031.016-.164-.324-.176.09.164.323-.26.132.514,1.008h0l.259-.132.165.323.176-.09-.164-.323Z" transform="translate(-528.231 -20.533)"/><path class="d" d="M545.587,22.468l.042.082,1.008-.513-.116-.229-.016-.032.323-.165-.09-.177-.323.165-.132-.26-1.009.514h0C545.484,22.266,545.427,22.156,545.587,22.468Z" transform="translate(-528.323 -20.63)"/><path class="d" d="M546.039,21.153l.082-.042-.2-.4h-.877l.385.755h0l.26-.132.164.323.177-.09-.164-.323Z" transform="translate(-528.354 -20.711)"/><path class="d" d="M550.182,22.731l.043.082.359-.183v-.878l-.715.364h0C550.08,22.529,550.024,22.418,550.182,22.731Z" transform="translate(-527.728 -20.576)"/><path class="d" d="M549.627,20.72l-.106.055.515,1.006h0l.26-.132.164.323.169-.086v-.018l-.157-.31.1-.051A1.159,1.159,0,0,0,549.627,20.72Z" transform="translate(-527.773 -20.71)"/><path class="d" d="M550.507,25.513l-.042.021.042.084Z" transform="translate(-527.651 -20.089)"/><path class="d" d="M550.065,25.421l.042.084.492-.252v-.878l-.847.431h0C549.961,25.22,549.906,25.108,550.065,25.421Z" transform="translate(-527.743 -20.236)"/><path class="d" d="M550.532,24.208l.083-.042-.513-1.008-.229.117-.031.015-.166-.323-.176.09.165.323-.26.132.513,1.008h0l.26-.133.164.323.178-.09-.166-.323Z" transform="translate(-527.788 -20.419)"/><path class="d" d="M549,23.349l.042.082,1.006-.514-.115-.228-.017-.032.323-.165-.089-.176-.323.164-.133-.26-1.008.514h0C548.9,23.147,548.845,23.035,549,23.349Z" transform="translate(-527.881 -20.515)"/><path class="d" d="M549.471,22.126l.083-.042-.514-1.008-.228.117-.031.015-.165-.323-.177.09.164.324-.26.132.514,1.008h0l.26-.132.164.323.177-.09-.164-.323Z" transform="translate(-527.926 -20.688)"/><path class="d" d="M547.936,21.193l.042.083,1.007-.513-.025-.051h-1.27Z" transform="translate(-528.01 -20.711)"/><path class="d" d="M543.322,20.876l.041.083.487-.248h-.612Z" transform="translate(-528.587 -20.711)"/><path class="d" d="M542.17,21.555l.042.082,1.008-.514L543.1,20.9l-.017-.032.3-.152H542.3l-.448.229h0C542.066,21.353,542.01,21.242,542.17,21.555Z" transform="translate(-528.766 -20.711)"/></g><path class="o" d="M537.284,35.556a19.745,19.745,0,0,0,6.961,0A4.03,4.03,0,0,1,537.284,35.556Z" transform="translate(-516.784 -12.468)"/><g transform="translate(26.927 15.929)"><path class="j" d="M544.765,29.314a.77.77,0,1,0,.769.769A.77.77,0,0,0,544.765,29.314Z" transform="translate(-542.841 -29.205)"/><path class="j" d="M546.71,30.073h-3.737S545.146,28.148,546.71,30.073Z" transform="translate(-542.973 -29.218)"/></g><g transform="translate(17.459 15.949)"><path class="j" d="M536.285,29.313a.77.77,0,1,1-.769.77A.77.77,0,0,1,536.285,29.313Z" transform="translate(-534.471 -29.225)"/><path class="j" d="M534.591,30.091h3.737S536.154,28.165,534.591,30.091Z" transform="translate(-534.591 -29.235)"/></g><path class="j" d="M538.338,28.434a.537.537,0,0,0-.294-.708,18.45,18.45,0,0,0-2.337-.12,2.072,2.072,0,0,0-.676.043,2.787,2.787,0,0,0-.817.764c-.057.1.535-.183.829-.191C535.927,28.2,537.113,28.492,538.338,28.434Z" transform="translate(-517.182 -13.499)"/><path class="j" d="M542.872,28.434a.537.537,0,0,1,.293-.708,18.477,18.477,0,0,1,2.338-.12,2.071,2.071,0,0,1,.675.043,2.793,2.793,0,0,1,.818.764c.055.1-.537-.183-.83-.191C545.283,28.2,544.1,28.492,542.872,28.434Z" transform="translate(-516.066 -13.499)"/></g></svg>