<svg xmlns="http://www.w3.org/2000/svg" xmlns:xlink="http://www.w3.org/1999/xlink" width="60.278" height="60.278" viewBox="0 0 60.278 60.278"><defs><style>.a{fill:url(#a);}.b,.f{fill:#29292a;}.b,.d,.e,.g,.h,.i,.j{fill-rule:evenodd;}.c,.e{fill:#d99662;}.d{fill:#a6754f;}.g{fill:#c3c1ca;}.h{fill:#fff;}.i{fill:#cfaf95;}.j{fill:#1a1a1a;}</style><linearGradient id="a" y1="0.5" x2="1" y2="0.5" gradientUnits="objectBoundingBox"><stop offset="0" stop-color="#18d5fc"/><stop offset="1" stop-color="#b64cbf"/></linearGradient></defs><circle class="a" cx="29.413" cy="29.413" r="29.413" transform="matrix(0.025, -1, 1, 0.025, 0, 58.808)"/><g transform="translate(5.546 5.826)"><path class="b" d="M614.525,44.786a35.646,35.646,0,0,1,5.469,1.938,7.739,7.739,0,0,1,3.427,2.612,12.622,12.622,0,0,1,.736,2.448,29.568,29.568,0,0,1-7.749,8.193Z" transform="translate(-574.715 -11.732)"/><path class="b" d="M589,44.786a35.643,35.643,0,0,0-5.469,1.938,7.736,7.736,0,0,0-3.428,2.612,14.656,14.656,0,0,0-.826,2.848,29.607,29.607,0,0,0,7.811,8.018Z" transform="translate(-579.281 -11.732)"/><rect class="c" width="9.138" height="5.862" transform="translate(20.176 27.22)"/><path class="d" d="M596.857,38.644h9.506V43.96l-2.891.522-5.935-4.224Z" transform="translate(-577.004 -12.527)"/><path class="b" d="M583.161,57.455c-1.154-5.734-2.191-8.9-1.651-9.468,1.736-1.832,12.313-5.121,15.711-5.24.132,0,.27-.008.41-.009a17.673,17.673,0,0,0,12.288,0c.155,0,.306,0,.453.01,3.377.121,13.946,3.414,15.674,5.237.526.557-.446,3.577-1.566,9.04a29.406,29.406,0,0,1-41.319.428Z" transform="translate(-579.011 -11.997)"/><path class="e" d="M600.73,43.708c.18.006.358.008.538.008s.359,0,.538-.008l-.537,13.667Z" transform="translate(-576.502 -11.871)"/><rect class="f" width="1.142" height="0.373" transform="translate(24.21 31.837)"/><path class="e" d="M595.765,42.756l1.557-.156h9.137l1.595.158a17.673,17.673,0,0,1-12.288,0Z" transform="translate(-577.145 -12.015)"/><path class="d" d="M605.273,42.6l1.549.154a12.823,12.823,0,0,1-1.549.52Z" transform="translate(-575.913 -12.014)"/><path class="d" d="M601.011,42.6h4.768l.046,0v.673a16.955,16.955,0,0,1-3.124.526Z" transform="translate(-576.466 -12.015)"/><path class="g" d="M600.76,43.521a.4.4,0,1,1-.4.4A.4.4,0,0,1,600.76,43.521Z" transform="translate(-576.55 -11.896)"/><path class="e" d="M608.592,28.534c3.1-1.227,3.07,1.691,2.5,3.742a4.209,4.209,0,0,1-2.046,2.709C606.342,36.359,609.43,30.072,608.592,28.534Z" transform="translate(-575.572 -13.875)"/><path class="d" d="M609.831,28.932a1.688,1.688,0,0,0-.415.043,12.175,12.175,0,0,1-.437,3.095,15.641,15.641,0,0,0-.393,2.133c.182.043.883-.683,1.006-.845a4.092,4.092,0,0,0,.661-1.378,6.223,6.223,0,0,0,.256-2.083,1.52,1.52,0,0,0-.227-.767A.554.554,0,0,0,609.831,28.932Z" transform="translate(-575.484 -13.786)"/><path class="e" d="M594.182,28.534c-3.1-1.227-3.07,1.691-2.5,3.742a4.206,4.206,0,0,0,2.046,2.709C596.431,36.359,593.344,30.072,594.182,28.534Z" transform="translate(-577.713 -13.875)"/><path class="d" d="M592.765,28.932a1.686,1.686,0,0,1,.416.043,12.17,12.17,0,0,0,.437,3.095,15.858,15.858,0,0,1,.394,2.133c-.183.043-.884-.683-1.008-.845a4.112,4.112,0,0,1-.662-1.378,6.221,6.221,0,0,1-.255-2.083,1.52,1.52,0,0,1,.227-.767A.552.552,0,0,1,592.765,28.932Z" transform="translate(-577.623 -13.786)"/><path class="e" d="M598.931,19.162h6.79c3.564,0,6.971,2.95,6.48,6.479l-1.228,8.813a14.9,14.9,0,0,1-2.9,7,6.763,6.763,0,0,1-5.752,2.87h0a6.758,6.758,0,0,1-5.747-2.867,15.155,15.155,0,0,1-2.9-7.007l-1.228-8.813C591.96,22.111,595.367,19.162,598.931,19.162Z" transform="translate(-577.581 -15.052)"/><path class="b" d="M607.985,29.057l1.405-.589v.619l-1.405.59Z" transform="translate(-575.562 -13.846)"/><path class="b" d="M593.144,28.468l1.406.589v.619l-1.406-.59Z" transform="translate(-577.485 -13.846)"/><rect class="f" width="1.87" height="0.619" transform="translate(23.786 15.211)"/><path class="h" d="M598.278,36.637c1.136.1,2.2.269,3.286.276s2.151-.175,3.287-.276a4.234,4.234,0,0,1-6.573,0Z" transform="translate(-576.82 -12.787)"/><path class="b" d="M594.938,28.495h6.021l.044.016c.651.249.413,1.55.229,2.561l0,.024a2.162,2.162,0,0,1-1.387,1.468l-.041.014H597.73c-.093-.006-.277,0-.506,0a9.08,9.08,0,0,1-1.974-.113c-.378-.11-.619-.521-.768-1.044a7.914,7.914,0,0,1-.24-1.532c-.084-1.168.617-1.376.619-1.377l.041-.014Z" transform="translate(-577.344 -13.842)"/><path class="i" d="M600.8,28.933h-5.871c-.081.045-.295.226-.25.861a7.466,7.466,0,0,0,.221,1.431c.106.37.246.653.429.706a8.94,8.94,0,0,0,1.833.093c.235,0,.427,0,.529,0h1.974a1.6,1.6,0,0,0,1.019-1.074l0-.023C600.836,30.126,601.021,29.1,600.8,28.933Z" transform="translate(-577.287 -13.786)"/><path class="b" d="M608.263,28.495h-6.022l-.043.016c-.651.249-.413,1.55-.229,2.561l0,.024a2.162,2.162,0,0,0,1.387,1.468l.041.014h2.069c.093-.006.278,0,.506,0a9.081,9.081,0,0,0,1.974-.113c.378-.11.619-.521.769-1.044a8,8,0,0,0,.238-1.532c.084-1.168-.617-1.376-.619-1.377l-.041-.014Z" transform="translate(-576.367 -13.842)"/><path class="i" d="M602.29,28.933h5.871c.081.045.295.226.25.861a7.466,7.466,0,0,1-.221,1.431c-.106.37-.246.653-.429.706a8.935,8.935,0,0,1-1.833.093c-.235,0-.427,0-.529,0h-1.974a1.6,1.6,0,0,1-1.019-1.074l0-.023C602.254,30.126,602.067,29.1,602.29,28.933Z" transform="translate(-576.313 -13.786)"/><path class="j" d="M593.564,26.244c-.383,2.706.039,4.706,0,7.245-.237.045-.594-1.381-.647-1.615a21.925,21.925,0,0,1-.454-9.784c.61-5.028,6.057-6.563,9.893-6.49,3.837-.072,9.284,1.463,9.894,6.49a21.945,21.945,0,0,1-.453,9.784c-.054.234-.411,1.66-.648,1.615-.035-2.539.386-4.539,0-7.245-.484-3.434-4.589-5.527-8.8-5.629C598.154,20.717,594.05,22.81,593.564,26.244Z" transform="translate(-577.616 -15.513)"/><path class="b" d="M592.078,27.277h20.578V23.423a7.923,7.923,0,0,0-7.9-7.9h-4.778a7.924,7.924,0,0,0-7.9,7.9Z" transform="translate(-577.623 -15.523)"/><path class="j" d="M605.3,29.2a.616.616,0,1,0,.617.617A.616.616,0,0,0,605.3,29.2Z" transform="translate(-575.99 -13.75)"/><path class="j" d="M606.854,29.811h-2.99S605.6,28.272,606.854,29.811Z" transform="translate(-576.096 -13.76)"/><path class="j" d="M597.361,29.206a.616.616,0,1,1-.617.616A.616.616,0,0,1,597.361,29.206Z" transform="translate(-577.018 -13.75)"/><path class="j" d="M596.005,29.829h2.989S597.254,28.288,596.005,29.829Z" transform="translate(-577.114 -13.758)"/><path class="j" d="M599.64,28.556a.649.649,0,0,0-.355-.857,22.376,22.376,0,0,0-2.83-.145,2.538,2.538,0,0,0-.819.051,3.406,3.406,0,0,0-.99.926c-.067.119.65-.223,1.005-.232C596.721,28.275,598.157,28.626,599.64,28.556Z" transform="translate(-577.291 -13.966)"/><path class="j" d="M603.315,28.556a.649.649,0,0,1,.355-.857,22.379,22.379,0,0,1,2.83-.145,2.538,2.538,0,0,1,.819.051,3.4,3.4,0,0,1,.988.926c.068.119-.648-.223-1-.232C606.235,28.275,604.8,28.626,603.315,28.556Z" transform="translate(-576.175 -13.966)"/><path class="j" d="M605.467,35.752c.755.21,1.153,1.718,1.156,3.446,0,.992-.137,1.247-.6,1.677a7.368,7.368,0,0,1-8.55,0c-.464-.43-.6-.686-.6-1.677,0-1.728.4-3.236,1.156-3.446a14.145,14.145,0,0,1,7.441,0Zm-3.721,3.737a1.821,1.821,0,0,1,1.257.478,1.7,1.7,0,0,0,1.634.514c.539-.108,1.342-.544,1.3-1.144-.111-1.4-.319-2.766-.711-2.854a18.412,18.412,0,0,0-6.954,0c-.391.088-.6,1.457-.709,2.854-.047.6.757,1.036,1.3,1.144a1.7,1.7,0,0,0,1.635-.514A1.82,1.82,0,0,1,601.746,39.489Z" transform="translate(-577.002 -12.967)"/><g transform="translate(29.575 15.147)"><path class="h" d="M605.464,28.933h.6v3.094c-.2,0-.4,0-.565,0h-.038Z" transform="translate(-605.464 -28.933)"/><path class="h" d="M606.338,28.933h.773v3.024a5.133,5.133,0,0,1-.773.064Z" transform="translate(-605.351 -28.933)"/></g></g></svg>