<svg xmlns="http://www.w3.org/2000/svg" xmlns:xlink="http://www.w3.org/1999/xlink" width="58.826" height="58.827" viewBox="0 0 58.826 58.827"><defs><style>.a{fill:url(#a);}.b,.h{fill:#d99662;}.c{fill:#ebe9f4;}.c,.d,.e,.f,.g,.h,.i,.j,.k{fill-rule:evenodd;}.d{fill:#d6d4de;}.e{fill:#a6754f;}.f{fill:#f6f5fb;}.g{fill:#c3c1ca;}.i{fill:#fff;}.j{fill:#1a1a1a;}.k{fill:#29292a;}</style><linearGradient id="a" y1="0.5" x2="1" y2="0.5" gradientUnits="objectBoundingBox"><stop offset="0" stop-color="#00e9e6"/><stop offset="1" stop-color="#004cbf"/></linearGradient></defs><circle class="a" cx="29.413" cy="29.413" r="29.413"/><g transform="translate(7.609 5.95)"><rect class="b" width="7.767" height="4.983" transform="translate(17.901 27.956)"/><g transform="translate(0 32.915)"><g transform="translate(34.591)"><path class="c" d="M430.061,45.415a30.211,30.211,0,0,1,4.649,1.648,6.567,6.567,0,0,1,2.913,2.22,33.5,33.5,0,0,1,1.454,6.423,29.555,29.555,0,0,1-7.034,5.7Z" transform="translate(-430.061 -45.415)"/><path class="d" d="M431.855,59.958l-.342-2.771,1.369-.625.3,2.575Q432.531,59.565,431.855,59.958Z" transform="translate(-429.873 -43.971)"/></g><path class="c" d="M408.454,45.415a30.173,30.173,0,0,0-4.648,1.648,6.565,6.565,0,0,0-2.914,2.22,33.506,33.506,0,0,0-1.454,6.423,29.555,29.555,0,0,0,7.034,5.7Z" transform="translate(-399.438 -45.415)"/><path class="d" d="M405.817,59.957l.343-2.77-1.369-.625-.3,2.575Q405.142,59.565,405.817,59.957Z" transform="translate(-398.783 -43.971)"/></g><path class="c" d="M404.154,60.352c-1.2-7.524-2.732-11.606-2.155-12.215,1.475-1.558,10.467-4.354,13.355-4.455.113,0,.228-.007.347-.008a15.035,15.035,0,0,0,10.446,0c.131,0,.261,0,.385.008,2.871.1,11.854,2.9,13.322,4.453.577.609-.961,4.691-2.155,12.215a29.415,29.415,0,0,1-33.545,0Z" transform="translate(-399.122 -12.725)"/><path class="e" d="M415.06,40.194h8.081v4.518l-2.458.444-5.044-3.591Z" transform="translate(-397.414 -13.176)"/><g transform="translate(16.346 29.196)"><path class="f" d="M415.445,42.122c1.608,1.365,1.834,1.744,3.916,1.74l-.037,2.817c-1.634-.22-5.09-2.155-5.415-2.8C414.631,42.96,415.445,42.122,415.445,42.122Z" transform="translate(-413.909 -42.122)"/><path class="f" d="M422.833,42.122c-1.576,1.336-1.825,1.727-3.789,1.74H418.9c-1.1,0-1.339.607-1.352,1.215a1.54,1.54,0,0,0,1.3,1.6c.049-.007.2-.014.254-.024,1.686-.312,4.948-2.151,5.263-2.775C423.647,42.96,422.833,42.122,422.833,42.122Z" transform="translate(-413.437 -42.122)"/></g><path class="f" d="M417.856,43.662h1.982V65.586c-.325.01-.654.018-.983.018s-.668-.008-1-.019Z" transform="translate(-397.052 -12.727)"/><path class="g" d="M418.811,44.33a.682.682,0,1,1-.682.682A.683.683,0,0,1,418.811,44.33Z" transform="translate(-397.016 -12.64)"/><path class="g" d="M418.811,62.294a.683.683,0,0,1,.683.682.674.674,0,0,1-.032.2c-.213.006-.428.009-.643.009s-.439,0-.66-.009a.718.718,0,0,1-.032-.2A.683.683,0,0,1,418.811,62.294Z" transform="translate(-397.016 -10.313)"/><path class="g" d="M418.811,47.648a.682.682,0,1,1-.682.682A.683.683,0,0,1,418.811,47.648Z" transform="translate(-397.016 -12.21)"/><path class="g" d="M418.811,55.023a.682.682,0,1,1-.682.682A.683.683,0,0,1,418.811,55.023Z" transform="translate(-397.016 -11.255)"/><g transform="translate(10.709 14.369)"><path class="h" d="M426.126,29.286c3.1-1.226,3.071,1.691,2.5,3.742a4.2,4.2,0,0,1-2.046,2.709C423.877,37.111,426.964,30.825,426.126,29.286Z" transform="translate(-406.777 -28.996)"/><path class="e" d="M427.366,29.684a1.8,1.8,0,0,0-.416.043,12.116,12.116,0,0,1-.438,3.1,16.02,16.02,0,0,0-.393,2.134c.183.043.884-.685,1.006-.845a4.124,4.124,0,0,0,.663-1.378,6.255,6.255,0,0,0,.255-2.083,1.513,1.513,0,0,0-.228-.768A.551.551,0,0,0,427.366,29.684Z" transform="translate(-406.69 -28.906)"/><path class="h" d="M411.715,29.286c-3.1-1.226-3.07,1.691-2.5,3.742a4.194,4.194,0,0,0,2.044,2.709C413.965,37.111,410.877,30.825,411.715,29.286Z" transform="translate(-408.918 -28.996)"/><path class="e" d="M410.3,29.684a1.8,1.8,0,0,1,.415.043,12.213,12.213,0,0,0,.438,3.1,15.627,15.627,0,0,1,.393,2.134c-.182.043-.884-.685-1.005-.845a4.126,4.126,0,0,1-.663-1.378,6.225,6.225,0,0,1-.255-2.083,1.512,1.512,0,0,1,.227-.768A.552.552,0,0,1,410.3,29.684Z" transform="translate(-408.829 -28.906)"/></g><path class="h" d="M416.465,19.915h6.79c3.564,0,6.971,2.949,6.479,6.479l-1.227,8.813a14.88,14.88,0,0,1-2.9,7,6.758,6.758,0,0,1-5.751,2.871h0a6.761,6.761,0,0,1-5.748-2.868,15.163,15.163,0,0,1-2.9-7.006l-1.228-8.813C409.493,22.864,412.9,19.915,416.465,19.915Z" transform="translate(-398.078 -15.803)"/><path class="i" d="M415.563,36.535a19.693,19.693,0,0,0,6.962,0A4.029,4.029,0,0,1,415.563,36.535Z" transform="translate(-397.349 -13.65)"/><path class="j" d="M411.1,27c-.383,2.706.039,4.706,0,7.246-.237.045-.594-1.383-.648-1.616A21.958,21.958,0,0,1,410,22.842c.611-5.027,6.058-6.562,9.894-6.489,3.837-.072,9.284,1.463,9.894,6.489a21.925,21.925,0,0,1-.454,9.784c-.054.234-.41,1.662-.647,1.616-.035-2.54.387-4.54,0-7.246-.486-3.434-4.589-5.526-8.8-5.629C415.688,21.47,411.583,23.562,411.1,27Z" transform="translate(-398.113 -16.265)"/><g transform="translate(24.629 15.89)"><path class="j" d="M423.033,30.438a.77.77,0,1,0,.771.77A.77.77,0,0,0,423.033,30.438Z" transform="translate(-421.11 -30.33)"/><path class="j" d="M424.979,31.2h-3.737S423.415,29.273,424.979,31.2Z" transform="translate(-421.242 -30.343)"/></g><g transform="translate(15.358 15.911)"><path class="j" d="M414.728,30.438a.77.77,0,1,1-.77.77A.77.77,0,0,1,414.728,30.438Z" transform="translate(-412.914 -30.351)"/><path class="j" d="M413.034,31.216h3.737S414.6,29.291,413.034,31.216Z" transform="translate(-413.034 -30.361)"/></g><path class="j" d="M416.557,29.617a.5.5,0,0,0-.276-.664,17.513,17.513,0,0,0-2.2-.113,1.964,1.964,0,0,0-.635.04,2.644,2.644,0,0,0-.768.718c-.052.093.5-.173.779-.178C414.291,29.4,415.406,29.672,416.557,29.617Z" transform="translate(-397.722 -14.648)"/><path class="j" d="M421.336,29.617a.5.5,0,0,1,.276-.664,17.513,17.513,0,0,1,2.2-.113,1.965,1.965,0,0,1,.635.04,2.645,2.645,0,0,1,.768.718c.052.093-.5-.173-.781-.178C423.6,29.4,422.487,29.672,421.336,29.617Z" transform="translate(-396.607 -14.648)"/><path class="k" d="M409.612,28.03H430.19V24.176a7.922,7.922,0,0,0-7.9-7.9h-4.778a7.923,7.923,0,0,0-7.9,7.9Z" transform="translate(-398.12 -16.275)"/></g></svg>