<svg xmlns="http://www.w3.org/2000/svg" xmlns:xlink="http://www.w3.org/1999/xlink" width="58.826" height="58.828" viewBox="0 0 58.826 58.828"><defs><style>.a,.b,.c,.d,.e,.h,.i,.j,.k,.m,.n,.o,.q,.r,.s,.t,.u,.v,.w,.y{fill-rule:evenodd;}.a{fill:url(#a);}.b{fill:#afafaf;}.c{fill:#2d2d2d;}.d{fill:#3f3f3f;}.e,.f{fill:#292929;}.g,.n{fill:#d99662;}.h{fill:#ebe9f4;}.i{fill:#d6d4de;}.j{fill:#f6f5fb;}.k,.l{fill:#c3c1ca;}.m{fill:#a6754f;}.o,.p{fill:#29292a;}.q{fill:#fff;}.r{fill:#cfaf95;}.s{fill:#1a1a1a;}.t{fill:#727272;}.u{fill:#e6e6e6;}.v{fill:#333;}.w{fill:#4d4d4d;}.x,.y{fill:#2f2f2f;}.z{fill:#131313;}</style><linearGradient id="a" y1="0.5" x2="1" y2="0.5" gradientUnits="objectBoundingBox"><stop offset="0" stop-color="#f20011"/><stop offset="1" stop-color="#cc7f7d"/></linearGradient></defs><path class="a" d="M482.936,69.833a29.413,29.413,0,1,0-29.413-29.413A29.47,29.47,0,0,0,482.936,69.833Z" transform="translate(-453.523 -11.007)"/><g transform="translate(6.41 5.686)"><g transform="translate(13.452 19.443)"><path class="b" d="M481.18,45.92l-.432-12.4-9.64-.263.338,12.275Z" transform="translate(-471.107 -33.253)"/><path class="c" d="M471.384,43.336l9.7-.339c-.006-.182-.012-.364-.019-.546l-9.7.339Z" transform="translate(-471.073 -32.062)"/><path class="c" d="M471.3,40.169l9.675-.338c-.006-.182-.011-.363-.018-.544l-9.672.338Z" transform="translate(-471.085 -32.472)"/><path class="c" d="M471.239,38.059l9.658-.338-.02-.546-9.652.338Z" transform="translate(-471.092 -32.745)"/><path class="c" d="M471.151,34.893l9.633-.337c-.007-.182-.014-.364-.019-.546l-9.627.337Z" transform="translate(-471.103 -33.155)"/><path class="c" d="M472.812,33.3l.43,12.3.546.022-.429-12.311Z" transform="translate(-470.886 -33.247)"/><path class="d" d="M473.87,33.329l.431,12.319.546.022-.43-12.326Z" transform="translate(-470.749 -33.244)"/><path class="c" d="M474.928,33.357l.431,12.335.546.022-.43-12.342Z" transform="translate(-470.612 -33.24)"/><path class="d" d="M472.815,45.584l-.429-12.3-1.279-.035.338,12.275Z" transform="translate(-471.107 -33.253)"/><path class="d" d="M475.985,33.386l.431,12.351,1.742.069-.432-12.373Z" transform="translate(-470.475 -33.236)"/><path class="c" d="M478.1,33.444l.432,12.382.547.021-.432-12.388Z" transform="translate(-470.201 -33.229)"/><path class="d" d="M479.157,33.473l.434,12.4.546.022-.432-12.4Z" transform="translate(-470.064 -33.225)"/><g transform="translate(0.065 2.047)"><path class="d" d="M480.8,35.066l-9.636.337.049,1.737,9.649-.337Q480.832,35.934,480.8,35.066Z" transform="translate(-471.165 -35.066)"/><path class="d" d="M480.992,40.342l-9.682.338.047,1.737,9.7-.338Q481.02,41.21,480.992,40.342Z" transform="translate(-471.146 -34.382)"/></g><g transform="translate(0.065 2.131)"><g transform="translate(0 0)"><path class="e" d="M471.214,37.107l1.306-.046-.061-1.737-1.294.045Z" transform="translate(-471.165 -35.116)"/><rect class="f" width="1.737" height="1.738" transform="matrix(0.999, -0.035, 0.035, 0.999, 5.517, 0.061)"/></g><g transform="translate(0.164 5.959)"><path class="e" d="M471.358,42.384l1.351-.047-.061-1.737-1.338.047Z" transform="translate(-471.31 -40.392)"/><rect class="f" width="1.738" height="1.738" transform="translate(5.56 0.061) rotate(-2)"/></g></g><path class="d" d="M473.958,44.3l7.166-.25c-.007-.182-.012-.364-.019-.546l-9.707.34.01.354Z" transform="translate(-471.07 -31.925)"/><path class="d" d="M471.268,39.114l9.667-.338c-.007-.182-.014-.363-.019-.546l-9.662.338Z" transform="translate(-471.089 -32.608)"/><path class="d" d="M471.123,33.8l8.766-.307-8.782-.239h0Z" transform="translate(-471.107 -33.253)"/><g transform="translate(9.093 0.248)"><path class="b" d="M479.591,45.87l-.434-12.4,10.1.275-.43,12.494Z" transform="translate(-479.157 -33.473)"/><path class="c" d="M481.291,44.548l7.28-.255-.019.547Z" transform="translate(-478.881 -32.071)"/><path class="c" d="M488.87,42.725l-9.379.328c-.008-.182-.014-.364-.019-.546l9.417-.329Z" transform="translate(-479.116 -32.345)"/><path class="c" d="M489.007,39.551l-9.627.337c-.006-.182-.012-.364-.019-.544l9.666-.338Z" transform="translate(-479.131 -32.756)"/><path class="c" d="M489.1,37.437l-9.793.341q-.01-.273-.02-.546l9.832-.342Z" transform="translate(-479.14 -33.03)"/><path class="c" d="M489.238,34.263l-10.043.351c-.007-.182-.011-.364-.018-.546l10.08-.352Z" transform="translate(-479.155 -33.441)"/><path class="c" d="M486.048,33.66l.437,12.5-.546-.022-.437-12.49Z" transform="translate(-478.335 -33.45)"/><path class="d" d="M484.99,33.632l.437,12.482-.547-.022-.436-12.475Z" transform="translate(-478.472 -33.454)"/><path class="c" d="M483.934,33.6l.435,12.467-.546-.022-.435-12.459Z" transform="translate(-478.609 -33.458)"/><g transform="translate(2.389 0.065)"><path class="d" d="M487,46.18l-.437-12.506,1.741.047-.43,12.494Z" transform="translate(-480.587 -33.512)"/><path class="d" d="M483.013,33.578l.435,12.45-1.742-.07-.434-12.428Z" transform="translate(-481.272 -33.53)"/></g><path class="c" d="M480.761,33.516l.435,12.42-.547-.022L480.215,33.5Z" transform="translate(-479.02 -33.469)"/><path class="d" d="M479.7,33.488l.432,12.4-.546-.022-.434-12.4Z" transform="translate(-479.157 -33.473)"/><g transform="translate(0.064 1.47)"><path class="d" d="M479.214,35.123l10-.349-.06,1.741-9.876.346Z" transform="translate(-479.214 -34.774)"/><path class="d" d="M479.4,40.4l9.583-.333-.06,1.741-9.462.331Q479.428,41.265,479.4,40.4Z" transform="translate(-479.19 -34.089)"/></g><g transform="translate(2.448 1.47)"><g transform="translate(0)"><path class="e" d="M488.193,36.515l-1.533.054-.061-1.737,1.655-.058Z" transform="translate(-480.641 -34.774)"/><rect class="f" width="1.738" height="1.738" transform="translate(0 0.266) rotate(-2)"/></g><g transform="translate(0.208 5.974)"><path class="e" d="M487.964,41.8l-1.12.039-.061-1.737,1.24-.043Z" transform="translate(-480.825 -40.063)"/><rect class="f" width="1.738" height="1.738" transform="translate(0 0.251) rotate(-2)"/></g></g><path class="d" d="M488.824,43.782l-9.3.325c-.007-.182-.012-.364-.018-.546l9.334-.326Z" transform="translate(-479.112 -32.208)"/><path class="d" d="M489.053,38.494l-9.71.339c-.007-.182-.012-.364-.019-.544l9.749-.341Z" transform="translate(-479.136 -32.893)"/></g></g><rect class="g" width="8.224" height="5.276" transform="translate(18.835 26.399)"/><g transform="translate(0 31.65)"><g transform="translate(36.544)"><path class="h" d="M491.55,44.06a31.983,31.983,0,0,1,4.922,1.746,6.975,6.975,0,0,1,3.086,2.348,32.76,32.76,0,0,1,1.456,6.313,29.6,29.6,0,0,1-7.357,6.58Z" transform="translate(-491.55 -44.06)"/><path class="i" d="M493.458,59.518l-.372-2.992,1.449-.662.317,2.721C494.4,58.909,493.931,59.22,493.458,59.518Z" transform="translate(-491.351 -42.531)"/></g><path class="h" d="M468.661,44.06a31.983,31.983,0,0,0-4.922,1.746,6.962,6.962,0,0,0-3.086,2.348,32.762,32.762,0,0,0-1.456,6.313,29.575,29.575,0,0,0,7.357,6.58Z" transform="translate(-459.198 -44.06)"/><path class="i" d="M465.871,59.518l.37-2.992-1.449-.662-.316,2.721Q465.159,59.071,465.871,59.518Z" transform="translate(-458.514 -42.531)"/></g><path class="h" d="M464.108,59.817c-1.263-7.928-2.883-12.232-2.273-12.875,1.563-1.649,11.083-4.611,14.141-4.717.119,0,.243-.007.367-.007a15.924,15.924,0,0,0,11.061,0c.14,0,.276,0,.408.009,3.041.108,12.552,3.072,14.106,4.714.61.643-1.01,4.946-2.273,12.875a29.411,29.411,0,0,1-35.537,0Z" transform="translate(-458.874 -12.649)"/><g transform="translate(17.225 27.712)"><path class="j" d="M476.075,40.574c1.7,1.445,1.941,1.846,4.146,1.841L480.18,45.4c-1.729-.234-5.388-2.283-5.733-2.965C475.212,41.461,476.075,40.574,476.075,40.574Z" transform="translate(-474.447 -40.574)"/><path class="j" d="M483.9,40.574c-1.668,1.414-1.932,1.829-4.011,1.841h-.15c-1.168,0-1.416.643-1.431,1.288a1.631,1.631,0,0,0,1.377,1.7c.053-.008.216-.016.271-.026,1.786-.33,5.237-2.277,5.571-2.939C484.758,41.461,483.9,40.574,483.9,40.574Z" transform="translate(-473.947 -40.574)"/></g><path class="j" d="M478.626,42.2h2.1V65.771c-.346.012-.692.021-1.043.021s-.707-.009-1.057-.021Z" transform="translate(-456.681 -12.651)"/><path class="k" d="M479.634,61.968A.683.683,0,0,1,480,63.227c-.12,0-.237,0-.357,0s-.247,0-.373,0a.683.683,0,0,1,.366-1.259Z" transform="translate(-456.639 -10.09)"/><path class="k" d="M479.634,46.46a.682.682,0,1,1-.683.683A.682.682,0,0,1,479.634,46.46Z" transform="translate(-456.639 -12.099)"/><path class="k" d="M479.634,54.269a.682.682,0,1,1-.683.682A.681.681,0,0,1,479.634,54.269Z" transform="translate(-456.639 -11.087)"/><path class="j" d="M484.238,55.752h9.14v4.511a29.233,29.233,0,0,1-9.14,3.3Z" transform="translate(-455.954 -10.895)"/><circle class="l" cx="0.683" cy="0.683" r="0.683" transform="translate(32.141 45.761)"/><path class="m" d="M475.633,38.532h8.557v4.785l-2.6.47-5.34-3.8Z" transform="translate(-457.069 -13.126)"/><path class="j" d="M476.009,40.573c1.7,1.445,1.943,1.847,4.146,1.841l-.038,2.984c-1.73-.234-5.389-2.282-5.734-2.964C475.147,41.461,476.009,40.573,476.009,40.573Z" transform="translate(-457.231 -12.862)"/><path class="j" d="M483.88,40.573c-1.667,1.414-1.932,1.829-4.011,1.841h-.149c-1.169,0-1.416.643-1.432,1.289a1.633,1.633,0,0,0,1.378,1.7c.053-.007.214-.016.27-.026,1.786-.33,5.238-2.277,5.572-2.938C484.743,41.461,483.88,40.573,483.88,40.573Z" transform="translate(-456.725 -12.862)"/><path class="k" d="M479.634,42.947a.682.682,0,1,1-.683.681A.68.68,0,0,1,479.634,42.947Z" transform="translate(-456.639 -12.554)"/><g transform="translate(11.874 12.996)"><g transform="translate(18.669)"><path class="n" d="M486.917,27.837c3.1-1.227,3.071,1.691,2.5,3.742a4.2,4.2,0,0,1-2.046,2.709C484.669,35.662,487.755,29.376,486.917,27.837Z" transform="translate(-486.237 -27.546)"/><path class="m" d="M488.157,28.235a1.742,1.742,0,0,0-.416.043,12.124,12.124,0,0,1-.437,3.095,15.884,15.884,0,0,0-.393,2.133c.182.044.884-.683,1.006-.845a4.109,4.109,0,0,0,.663-1.377,6.259,6.259,0,0,0,.254-2.084,1.519,1.519,0,0,0-.227-.767A.552.552,0,0,0,488.157,28.235Z" transform="translate(-486.15 -27.457)"/></g><path class="n" d="M472.507,27.837c-3.1-1.227-3.07,1.691-2.5,3.742a4.2,4.2,0,0,0,2.044,2.709C474.756,35.662,471.667,29.376,472.507,27.837Z" transform="translate(-469.71 -27.546)"/><path class="m" d="M471.09,28.235a1.743,1.743,0,0,1,.416.043,12.123,12.123,0,0,0,.438,3.095,15.856,15.856,0,0,1,.392,2.133c-.182.044-.885-.683-1.005-.845a4.087,4.087,0,0,1-.662-1.377,6.229,6.229,0,0,1-.256-2.084,1.519,1.519,0,0,1,.227-.767A.553.553,0,0,1,471.09,28.235Z" transform="translate(-469.62 -27.457)"/></g><path class="n" d="M477.256,18.465h6.791c3.564,0,6.969,2.95,6.479,6.48L489.3,33.757a14.882,14.882,0,0,1-2.9,7,6.759,6.759,0,0,1-5.751,2.871h0a6.761,6.761,0,0,1-5.748-2.867,15.173,15.173,0,0,1-2.9-7.008l-1.228-8.812C470.285,21.415,473.692,18.465,477.256,18.465Z" transform="translate(-457.704 -15.726)"/><path class="o" d="M486.31,28.361l1.405-.589v.619l-1.405.589Z" transform="translate(-455.685 -14.52)"/><path class="o" d="M471.471,27.772l1.405.589v.619l-1.405-.589Z" transform="translate(-457.608 -14.52)"/><rect class="p" width="1.871" height="0.619" transform="translate(21.988 14.035)"/><path class="q" d="M476.354,35.086a19.7,19.7,0,0,0,6.963,0A4.031,4.031,0,0,1,476.354,35.086Z" transform="translate(-456.975 -13.573)"/><path class="o" d="M479.053,27.972h-6.022l-.043.017c-.651.246-.413,1.549-.229,2.56l0,.024c.281,1.549,6.053,2.739,6.747.322a7.994,7.994,0,0,0,.238-1.532c.084-1.167-.617-1.376-.619-1.377l-.041-.014Z" transform="translate(-457.467 -14.495)"/><path class="r" d="M473.08,28.41h5.872c.08.045.295.226.25.861a7.5,7.5,0,0,1-.221,1.432c-.512,1.788-5.569.918-5.786-.274l0-.023C473.044,29.6,472.857,28.579,473.08,28.41Z" transform="translate(-457.413 -14.438)"/><path class="o" d="M480.8,27.972h6.021l.043.017c.652.246.415,1.549.229,2.56l0,.024c-.282,1.549-6.053,2.739-6.747.322a7.9,7.9,0,0,1-.238-1.532c-.085-1.167.616-1.376.618-1.377l.041-.014Z" transform="translate(-456.49 -14.495)"/><path class="r" d="M486.66,28.41h-5.87c-.081.045-.3.226-.25.861a7.4,7.4,0,0,0,.22,1.432c.512,1.788,5.569.918,5.786-.274l0-.023C486.7,29.6,486.882,28.579,486.66,28.41Z" transform="translate(-456.434 -14.438)"/><path class="s" d="M471.891,26.764c-.383,2.706.039,4.706,0,7.245-.237.045-.593-1.381-.647-1.615a21.926,21.926,0,0,1-.454-9.784c.61-5.028,6.057-6.562,9.894-6.49,3.836-.071,9.283,1.463,9.893,6.49a21.942,21.942,0,0,1-.453,9.784c-.054.234-.411,1.66-.648,1.615-.034-2.539.387-4.539,0-7.245-.485-3.434-4.589-5.527-8.8-5.629C476.479,21.237,472.374,23.33,471.891,26.764Z" transform="translate(-457.739 -16.03)"/><g transform="translate(25.892 14.518)"><path class="t" d="M483.912,28.989a.77.77,0,1,0,.77.77A.769.769,0,0,0,483.912,28.989Z" transform="translate(-481.987 -28.881)"/><path class="t" d="M485.857,29.749H482.12S484.294,27.823,485.857,29.749Z" transform="translate(-482.12 -28.893)"/></g><g transform="translate(16.424 14.538)"><path class="t" d="M475.433,28.988a.77.77,0,1,1-.77.77A.77.77,0,0,1,475.433,28.988Z" transform="translate(-473.618 -28.901)"/><path class="t" d="M473.738,29.767h3.738S475.3,27.841,473.738,29.767Z" transform="translate(-473.738 -28.911)"/></g><path class="s" d="M477.348,27.821a.5.5,0,0,0-.276-.665,17.5,17.5,0,0,0-2.2-.113,2,2,0,0,0-.635.04,2.624,2.624,0,0,0-.767.718c-.053.093.5-.172.779-.178C475.082,27.6,476.2,27.875,477.348,27.821Z" transform="translate(-457.349 -14.616)"/><path class="s" d="M482.127,27.821a.5.5,0,0,1,.276-.665,17.512,17.512,0,0,1,2.2-.113,2,2,0,0,1,.635.04A2.645,2.645,0,0,1,486,27.8c.053.093-.5-.172-.779-.178C484.393,27.6,483.28,27.875,482.127,27.821Z" transform="translate(-456.233 -14.616)"/><g transform="translate(3.01 29.583)"><path class="k" d="M496.489,45.16a29.214,29.214,0,0,0-10.974-2.927c-.1,0,.029,0-.073,0-.439,7.012-1.054,12.509-1.366,17.044a9.627,9.627,0,0,0,2.967.067c1.076-.277,1.834-2.729,3.417-2.887,4.693-.467,6.412-7.468,8.51-10.042Z" transform="translate(-458.985 -42.23)"/><path class="k" d="M464.345,45.16a29.224,29.224,0,0,1,10.974-2.927c.1,0-.027,0,.077,0,.437,7.012,1.049,12.509,1.363,17.044a9.635,9.635,0,0,1-2.969.067c-1.076-.277-1.833-2.729-3.418-2.887-4.691-.467-6.411-7.468-8.509-10.042Z" transform="translate(-461.863 -42.23)"/></g><g transform="translate(2.309)"><g transform="translate(8.464)"><path class="u" d="M484.7,16.468l-.714,10.2a19.794,19.794,0,0,0-2.993-.387h-.053c-1.907.046-3.757.671-5.064.613-1.623-.072-2.418-1-3.706-1.193.183,1.9.363,4.142.537,6.579l-3.97-.278c.407-1.38.727-2.636.934-3.671.407-2.009,1.293-4.9,1.4-5.8.61-5.028,6.058-6.562,9.893-6.489A14.3,14.3,0,0,1,484.7,16.468Z" transform="translate(-468.735 -16.04)"/><path class="v" d="M473.965,17.351l10.034.7c-.012.181-.026.363-.038.544l-10.767-.753A8.037,8.037,0,0,1,473.965,17.351Z" transform="translate(-468.157 -15.871)"/><path class="v" d="M471.735,19.315l12.327.862c-.011.181-.025.363-.037.544l-12.6-.881C471.519,19.658,471.624,19.483,471.735,19.315Z" transform="translate(-468.387 -15.616)"/><path class="v" d="M470.7,22.419l13.227.924c-.012.182-.026.364-.038.544l-13.321-.931C470.614,22.764,470.658,22.583,470.7,22.419Z" transform="translate(-468.498 -15.214)"/><path class="v" d="M470.163,24.5l1.84.129c.018.181.036.365.053.55l-2.032-.141c.046-.18.093-.36.139-.538Zm1.994.14,8.18.572a23.514,23.514,0,0,0-2.56.368l-3.943-.276a7.49,7.49,0,0,0-1.677-.664Zm10.456.731,1.214.085-.009.123C483.432,25.509,483.027,25.434,482.613,25.369Z" transform="translate(-468.568 -14.945)"/><path class="v" d="M469.427,27.622l2.984.208.043.55-3.155-.22C469.344,27.976,469.387,27.8,469.427,27.622Z" transform="translate(-468.662 -14.54)"/><path class="v" d="M468.891,29.7l3.776.264.038.549-3.97-.278C468.788,30.056,468.84,29.876,468.891,29.7Z" transform="translate(-468.735 -14.271)"/><path class="v" d="M469.775,31.409l.465-6.668c.329-1.252.636-2.382.7-2.888.024-.194.054-.383.093-.567l-.711,10.16C470.139,31.435,469.956,31.422,469.775,31.409Z" transform="translate(-468.6 -15.361)"/><path class="w" d="M470.828,31.82l.856-12.231a6.13,6.13,0,0,1,.6-.827l-.916,13.1Z" transform="translate(-468.464 -15.688)"/><path class="v" d="M471.882,32.034l.2-2.857c.072.922.143,1.888.216,2.886l-.416-.029Zm.448-6.411.518-7.423a7.232,7.232,0,0,1,.579-.452l-.566,8.085C472.689,25.754,472.512,25.683,472.33,25.622Z" transform="translate(-468.327 -15.819)"/><path class="v" d="M475.389,26.857l.724-10.361q.276-.076.556-.14l-.731,10.456C475.748,26.834,475.564,26.85,475.389,26.857Z" transform="translate(-467.873 -16)"/><path class="w" d="M476.456,26.742l.733-10.495c.185-.033.369-.061.553-.087l-.734,10.486C476.82,26.68,476.636,26.712,476.456,26.742Z" transform="translate(-467.735 -16.025)"/><path class="v" d="M477.527,26.542l.731-10.444c.185-.017.368-.03.549-.04l-.726,10.393C477.894,26.48,477.708,26.511,477.527,26.542Z" transform="translate(-467.596 -16.038)"/><path class="w" d="M469.456,27.79l-.191,2.731-.53-.037C469.021,29.513,469.264,28.6,469.456,27.79Z" transform="translate(-468.735 -14.518)"/><path class="w" d="M473.306,26.269l.617-8.813a10.218,10.218,0,0,1,1.8-.8L475.01,26.8A5.142,5.142,0,0,1,473.306,26.269Z" transform="translate(-468.143 -15.96)"/><path class="w" d="M478.6,26.364l.721-10.323c.125,0,.248,0,.369,0,.439-.009.9,0,1.37.041l-.715,10.236c-.209-.017-.419-.029-.628-.035h-.053C479.3,26.294,478.947,26.323,478.6,26.364Z" transform="translate(-467.457 -16.04)"/><path class="v" d="M480.711,26.378l.717-10.242c.18.021.36.047.541.077l-.717,10.244C481.074,26.427,480.894,26.4,480.711,26.378Z" transform="translate(-467.183 -16.028)"/><path class="w" d="M481.759,26.542l.715-10.233c.18.037.359.079.538.124l-.714,10.2Z" transform="translate(-467.048 -16.006)"/><g transform="translate(0.905 0)"><path class="w" d="M472.328,27.448l-2.792-.2c.01-.05.021-.1.029-.148.1-.485.225-1.02.36-1.567l2.252.157Q472.254,26.539,472.328,27.448Z" transform="translate(-469.536 -14.81)"/><path class="w" d="M483.94,22.968l-13.145-.918c0-.026.008-.051.01-.073a6.609,6.609,0,0,1,.41-1.64l12.845.9Q484,22.1,483.94,22.968Z" transform="translate(-469.373 -15.484)"/><path class="w" d="M483.82,17.576l-8.9-.621a13.773,13.773,0,0,1,5.239-.912,14.3,14.3,0,0,1,3.734.425Z" transform="translate(-468.838 -16.041)"/></g><g transform="translate(5.41)"><g transform="translate(0 5.047)"><rect class="x" width="1.738" height="1.738" transform="translate(0 1.734) rotate(-86.03)"/><rect class="x" width="1.738" height="1.738" transform="matrix(0.07, -0.998, 0.998, 0.07, 5.948, 2.149)"/></g><g transform="translate(1.581)"><path class="y" d="M475.51,16.658l-.017.256-.569-.04C475.117,16.8,475.314,16.725,475.51,16.658Z" transform="translate(-474.924 -15.96)"/><path class="y" d="M479.158,17.289l.087-1.248c.125,0,.249,0,.369,0,.439-.009.9,0,1.37.041l-.093,1.326Z" transform="translate(-474.375 -16.04)"/></g></g><path class="w" d="M472.606,18.316l11.449.8c-.012.182-.025.363-.038.544l-11.9-.832A6.81,6.81,0,0,1,472.606,18.316Z" transform="translate(-468.297 -15.746)"/><path class="w" d="M470.437,23.459l13.438.94c-.012.181-.026.363-.038.544L470.3,24Z" transform="translate(-468.533 -15.079)"/><path class="w" d="M469.172,28.662l3.367.236.041.549-3.551-.249C469.079,29.017,469.126,28.838,469.172,28.662Z" transform="translate(-468.697 -14.405)"/></g><g transform="translate(23.174 0.303)"><path class="u" d="M482.474,16.309l-.715,10.233a13.275,13.275,0,0,0,2.61.322c1.622-.072,2.418-1,3.706-1.193-.214,2.2-.419,4.845-.618,7.728l4.588.321a52.893,52.893,0,0,1-1.473-5.42c-.4-2.009-1.291-4.9-1.4-5.8C488.72,18.774,485.614,16.966,482.474,16.309Z" transform="translate(-481.758 -16.309)"/><path class="v" d="M487.033,18.27l-4.752-.332c-.011.182-.024.363-.037.543l5.368.376A6.593,6.593,0,0,0,487.033,18.27Z" transform="translate(-481.695 -16.098)"/><path class="v" d="M488.77,20.508l-6.635-.464c-.014.182-.026.363-.038.544l6.85.479Q488.869,20.779,488.77,20.508Z" transform="translate(-481.714 -15.825)"/><path class="v" d="M489.656,23.745l-7.743-.541-.037.544,7.926.553Z" transform="translate(-481.743 -15.416)"/><path class="v" d="M490.3,25.908l-2.337-.164c-.017.178-.032.36-.047.543l2.516.176c-.042-.182-.086-.368-.131-.556Zm-5.014-.351-3.521-.246,0,.066a13.3,13.3,0,0,0,2.612.322A4.247,4.247,0,0,0,485.283,25.556Z" transform="translate(-481.758 -15.143)"/><path class="v" d="M490.482,29.095l-3.487-.244-.041.544,3.681.256C490.582,29.464,490.531,29.278,490.482,29.095Z" transform="translate(-481.085 -14.684)"/><path class="v" d="M491.215,31.263l-4.374-.306-.037.544,4.588.321C491.331,31.634,491.274,31.448,491.215,31.263Z" transform="translate(-481.104 -14.411)"/><path class="v" d="M490.844,31.654l-.005.076.031,0Z" transform="translate(-480.581 -14.321)"/><path class="v" d="M488.223,32.774l.634-9.048c-.192-.733-.352-1.366-.424-1.771l-.753,10.782Z" transform="translate(-480.991 -15.577)"/><path class="w" d="M487.147,33.025l.89-12.736a6.042,6.042,0,0,0-.482-.908l-.416,5.948c.091-.023.185-.042.282-.056-.214,2.2-.419,4.845-.618,7.728Z" transform="translate(-481.104 -15.911)"/><path class="v" d="M486.578,25.7l.485-6.951a6.852,6.852,0,0,0-.511-.513l-.54,7.724C486.2,25.871,486.387,25.782,486.578,25.7Z" transform="translate(-481.207 -16.059)"/><g transform="translate(2.369 0.735)"><path class="w" d="M490.468,32.513l.122-1.753c-.4-1.36-.714-2.6-.921-3.619-.116-.576-.272-1.227-.437-1.881l-.5,7.132Z" transform="translate(-483.223 -15.885)"/><path class="w" d="M485.622,26.431l.6-8.525a8.935,8.935,0,0,0-1.676-.947l-.687,9.822c.084,0,.164,0,.243,0A4.469,4.469,0,0,0,485.622,26.431Z" transform="translate(-483.855 -16.96)"/></g><path class="v" d="M483.345,26.787l.7-10.031c-.176-.064-.355-.123-.533-.18L482.8,26.711C482.99,26.741,483.171,26.767,483.345,26.787Z" transform="translate(-481.622 -16.274)"/><path class="w" d="M482.3,26.638l.714-10.2c-.179-.045-.358-.087-.538-.124l-.715,10.233Z" transform="translate(-481.758 -16.309)"/><g transform="translate(0.216)"><path class="w" d="M487.034,28.479l3.263.227c-.164-.635-.3-1.226-.408-1.758l0-.012-2.713-.19Q487.1,27.585,487.034,28.479Z" transform="translate(-481.29 -14.957)"/><path class="w" d="M481.949,22.831l7.525.526a14.648,14.648,0,0,1-.328-1.48c-.011-.1-.026-.193-.041-.288l-7.034-.491Q482.009,21.964,481.949,22.831Z" transform="translate(-481.949 -15.689)"/><path class="w" d="M482.318,17.5l3.774.264a10.84,10.84,0,0,0-3.69-1.458Z" transform="translate(-481.901 -16.309)"/></g><g transform="translate(2.596 0.735)"><path class="y" d="M489.639,26.919l-.564-.04-.121,1.734,1.095.076c-.164-.635-.3-1.226-.408-1.758Z" transform="translate(-483.422 -15.675)"/><rect class="x" width="1.738" height="1.737" transform="translate(0 6.574) rotate(-85.997)"/><path class="y" d="M484.468,16.96l-.043.626,1.394.1A9.155,9.155,0,0,0,484.468,16.96Z" transform="translate(-484.009 -16.96)"/></g><path class="w" d="M488.138,19.406l-5.93-.415-.037.544,6.3.441A6.063,6.063,0,0,0,488.138,19.406Z" transform="translate(-481.704 -15.962)"/><path class="w" d="M489.986,24.826l-1.921-.133-.051.542,2.115.148-.142-.557Zm-2.118-.148-6.027-.421c-.012.182-.026.363-.038.544l4.842.339A5.509,5.509,0,0,1,487.868,24.678Z" transform="translate(-481.752 -15.279)"/><path class="w" d="M490.836,30.178l-3.918-.274-.039.544,4.123.288C490.944,30.548,490.89,30.363,490.836,30.178Z" transform="translate(-481.095 -14.548)"/></g><g transform="translate(0 13.082)"><path class="u" d="M473.455,27.831l-2.984-.209c-1.4,6.109-5.86,17.944-9.228,20.821,2.1,2.575,5.135,10.929,8.091,11.4,1.573.248,3,1.561,4.081,1.84a4.361,4.361,0,0,0,2.119-.1C474.959,53.236,474.257,37.942,473.455,27.831Z" transform="translate(-461.242 -27.622)"/><path class="v" d="M470.182,56.8l4.388.307-.036-.549-6.258-.437c.049.011.1.021.146.029A5.772,5.772,0,0,1,470.182,56.8Z" transform="translate(-460.331 -23.93)"/><path class="v" d="M466.194,54.4l8.545.6-.033-.549-8.926-.624C465.918,54.026,466.055,54.219,466.194,54.4Z" transform="translate(-460.654 -24.227)"/><path class="v" d="M464.142,51.084l10.635.743-.032-.549-10.909-.764Z" transform="translate(-460.906 -24.656)"/><path class="v" d="M462.966,48.884l11.825.828-.031-.549-12.1-.847C462.76,48.5,462.862,48.691,462.966,48.884Z" transform="translate(-461.059 -24.941)"/><path class="v" d="M461.744,45.621l12.964.906-.032-.549L462.182,45.1Q461.96,45.383,461.744,45.621Z" transform="translate(-461.177 -25.357)"/><path class="v" d="M463.2,43.607l11.186.782-.032-.549-10.841-.758C463.407,43.262,463.3,43.437,463.2,43.607Z" transform="translate(-460.989 -25.619)"/><path class="v" d="M464.831,40.547l9.137.638-.032-.549-8.857-.619Z" transform="translate(-460.777 -26.016)"/><path class="v" d="M465.758,38.5l7.949.556-.032-.549-7.692-.539C465.908,38.141,465.833,38.319,465.758,38.5Z" transform="translate(-460.657 -26.282)"/><path class="v" d="M467,35.406l6.331.443-.034-.549-6.1-.426C467.13,35.05,467.065,35.229,467,35.406Z" transform="translate(-460.496 -26.682)"/><path class="v" d="M467.741,33.341l5.338.374-.036-.549-5.12-.358C467.864,32.985,467.8,33.164,467.741,33.341Z" transform="translate(-460.4 -26.95)"/><path class="v" d="M468.735,30.236l3.97.278-.038-.549-3.776-.264C468.84,29.876,468.788,30.056,468.735,30.236Z" transform="translate(-460.271 -27.353)"/><path class="v" d="M469.3,28.16l3.155.22-.043-.549-2.984-.209C469.387,27.8,469.344,27.976,469.3,28.16Z" transform="translate(-460.198 -27.622)"/><path class="v" d="M463.66,42.993l-.5,7.207.483.908.647-9.27C464.079,42.238,463.869,42.624,463.66,42.993Z" transform="translate(-460.994 -25.78)"/><path class="w" d="M464.92,40.657l-.828,11.852c.159.295.322.588.485.879l.987-14.129C465.353,39.736,465.138,40.2,464.92,40.657Z" transform="translate(-460.873 -26.114)"/><path class="v" d="M466.218,37.854l-1.184,16.93c.163.272.325.537.491.794l1.354-19.372C466.664,36.758,466.443,37.31,466.218,37.854Z" transform="translate(-460.751 -26.51)"/><path class="v" d="M470.213,27.66l-2.239,32.028a2.051,2.051,0,0,0,.487.147l.049.008L470.756,27.7Z" transform="translate(-460.37 -27.617)"/><path class="w" d="M471.269,27.733,469.012,60c.181.061.357.132.532.21l2.268-32.435Z" transform="translate(-460.235 -27.608)"/><path class="v" d="M472.321,27.866,470.038,60.5c.18.1.355.2.526.3L472.6,31.669C472.509,30.342,472.416,29.068,472.321,27.866Z" transform="translate(-460.102 -27.59)"/><path class="v" d="M473.6,52.039l-.457,6.547a4.812,4.812,0,0,0,.553-.091l.158-2.261C473.767,54.937,473.682,53.528,473.6,52.039Z" transform="translate(-459.701 -24.458)"/><g transform="translate(0.021 0.19)"><path class="w" d="M461.263,46.307l0,.046a18.5,18.5,0,0,1,1.566,2.508l.344-4.92A11.126,11.126,0,0,1,461.263,46.307Z" transform="translate(-461.261 -25.697)"/><path class="w" d="M467.553,35.169l-1.564,22.364a8.275,8.275,0,0,0,1.62,1.766l2.2-31.509A71.187,71.187,0,0,1,467.553,35.169Z" transform="translate(-460.648 -27.79)"/><path class="w" d="M472.784,35.466l-1.728,24.709a4.868,4.868,0,0,0,1.087.488,3.154,3.154,0,0,0,.614.09l.818-11.679C473.326,44.671,473.062,39.927,472.784,35.466Z" transform="translate(-459.992 -26.795)"/></g><g transform="translate(0.044 3.52)"><path class="w" d="M472.835,31.032l-4.206-.294q-.251.83-.539,1.7l4.865.34Q472.9,31.893,472.835,31.032Z" transform="translate(-460.399 -30.738)"/><path class="w" d="M473.474,36.367l-6.612-.462c-.218.567-.442,1.134-.673,1.694l7.392.517Q473.527,37.237,473.474,36.367Z" transform="translate(-460.645 -30.069)"/><path class="w" d="M474.141,41.7l-9.48-.663c-.288.588-.581,1.151-.874,1.681l10.454.731Z" transform="translate(-460.956 -29.403)"/><path class="w" d="M474.8,47.048,461.281,46.1a15,15,0,0,1,1.178,1.825l12.444.87Z" transform="translate(-461.281 -28.747)"/><path class="w" d="M474.739,52.336l-10.3-.72c.351.628.709,1.244,1.074,1.817l9.331.652Q474.79,53.233,474.739,52.336Z" transform="translate(-460.872 -28.033)"/><path class="w" d="M474.246,57.593l-3.129-.218a4.628,4.628,0,0,0,1.018.45,4.361,4.361,0,0,0,2.119-.1Z" transform="translate(-460.007 -27.287)"/></g><g transform="translate(0.044 3.52)"><path class="y" d="M468.09,32.443l1.092.077.121-1.734-.674-.047Q468.378,31.568,468.09,32.443Z" transform="translate(-460.399 -30.738)"/><g transform="translate(6.633 5.874)"><rect class="x" width="1.738" height="1.738" transform="translate(0 1.734) rotate(-85.998)"/><path class="y" d="M472.54,36.306l-.12,1.734.352.025q-.053-.879-.106-1.75Z" transform="translate(-466.471 -35.89)"/></g><g transform="translate(6.217 11.822)"><rect class="x" width="1.738" height="1.738" transform="translate(0 1.734) rotate(-85.998)"/><path class="y" d="M472.172,41.572l-.121,1.733,1.118.078-.1-1.749Z" transform="translate(-466.103 -41.156)"/></g><g transform="translate(0 17.356)"><path class="y" d="M462.459,47.928l.409.028.122-1.734-1.709-.12A15,15,0,0,1,462.459,47.928Z" transform="translate(-461.281 -46.103)"/><rect class="x" width="1.738" height="1.738" transform="translate(5.801 2.148) rotate(-85.997)"/><path class="y" d="M471.8,46.838l-.121,1.733,1.734.121.077-1.091-.038-.648Z" transform="translate(-459.933 -46.008)"/></g><g transform="translate(5.386 23.718)"><rect class="x" width="1.738" height="1.738" transform="translate(0 1.733) rotate(-85.993)"/><rect class="x" width="1.738" height="1.738" transform="translate(5.948 2.15) rotate(-85.998)"/></g><path class="y" d="M472.749,57.915l.031-.424-1.663-.116a4.628,4.628,0,0,0,1.018.45A3.155,3.155,0,0,0,472.749,57.915Z" transform="translate(-460.007 -27.287)"/></g><path class="w" d="M467.221,55.532l7.482.523-.035-.549-8.027-.561A6.658,6.658,0,0,0,467.221,55.532Z" transform="translate(-460.542 -24.082)"/><path class="w" d="M463.551,49.984l11.233.785-.031-.549-11.5-.8Z" transform="translate(-460.982 -24.798)"/><path class="w" d="M462.537,44.618l12,.839-.031-.549L462.893,44.1C462.773,44.278,462.656,44.452,462.537,44.618Z" transform="translate(-461.074 -25.487)"/><path class="w" d="M465.306,39.521l8.529.6-.032-.55-8.262-.577C465.463,39.169,465.385,39.347,465.306,39.521Z" transform="translate(-460.715 -26.149)"/><path class="w" d="M467.377,34.375l5.827.407-.035-.549-5.6-.392C467.5,34.018,467.441,34.2,467.377,34.375Z" transform="translate(-460.447 -26.816)"/><path class="w" d="M469.029,29.2l3.551.249-.041-.549-3.367-.236C469.126,28.838,469.079,29.017,469.029,29.2Z" transform="translate(-460.233 -27.487)"/></g><g transform="translate(27.096 14.47)"><path class="u" d="M487.218,28.851l3.487.244c1.726,6.381,5.729,16.551,8.817,19.189-2.1,2.575-5.134,10.929-8.091,11.4-1.572.248-3,1.561-4.08,1.84a4.372,4.372,0,0,1-2.121-.1C485.783,53.4,486.454,38.94,487.218,28.851Z" transform="translate(-485.23 -28.851)"/><path class="v" d="M485.26,57.305l2.88.2a3.9,3.9,0,0,1-.79.328,4.372,4.372,0,0,1-2.121-.1Z" transform="translate(-485.23 -25.164)"/><path class="v" d="M491.727,56.186l-6.365-.444.035-.544,7.188.5A2.958,2.958,0,0,1,491.727,56.186Z" transform="translate(-485.213 -25.437)"/><path class="v" d="M494.891,53.233l-9.337-.652.032-.546,9.626.673C495.107,52.888,495,53.062,494.891,53.233Z" transform="translate(-485.188 -25.847)"/><path class="v" d="M496.2,51.209l-10.526-.736.031-.544,10.781.753C496.392,50.858,496.3,51.033,496.2,51.209Z" transform="translate(-485.172 -26.12)"/><path class="v" d="M498.04,48.162l-12.185-.853.03-.544,12.452.871Q498.19,47.89,498.04,48.162Z" transform="translate(-485.149 -26.53)"/><path class="v" d="M499.312,46.134,485.974,45.2l.031-.544,12.736.89A6.946,6.946,0,0,0,499.312,46.134Z" transform="translate(-485.134 -26.803)"/><path class="v" d="M496.587,42.769l-10.435-.73.033-.546,10.093.706C496.381,42.394,496.484,42.583,496.587,42.769Z" transform="translate(-485.111 -27.213)"/><path class="v" d="M495.3,40.562l-9.03-.63.033-.546,8.732.611C495.125,40.188,495.214,40.375,495.3,40.562Z" transform="translate(-485.095 -27.486)"/><path class="v" d="M493.658,37.272l-7.2-.5.034-.544,6.937.485C493.507,36.9,493.584,37.085,493.658,37.272Z" transform="translate(-485.07 -27.896)"/><path class="v" d="M492.689,35.088l-6.094-.427.035-.544,5.854.41C492.551,34.713,492.621,34.9,492.689,35.088Z" transform="translate(-485.053 -28.169)"/><path class="v" d="M491.392,31.822,486.8,31.5l.037-.544,4.374.306C491.274,31.448,491.331,31.634,491.392,31.822Z" transform="translate(-485.026 -28.578)"/><path class="v" d="M490.635,29.652l-3.681-.256.041-.544,3.487.244C490.531,29.278,490.582,29.464,490.635,29.652Z" transform="translate(-485.007 -28.851)"/><path class="v" d="M497.811,45.987l-.027.392c-.2.265-.4.575-.611.919l.129-1.84C497.473,45.653,497.644,45.831,497.811,45.987Z" transform="translate(-483.683 -26.699)"/><path class="w" d="M496.862,44.878l-.271,3.87c-.2.372-.415.762-.627,1.163l.4-5.746C496.532,44.417,496.7,44.655,496.862,44.878Z" transform="translate(-483.839 -26.867)"/><path class="v" d="M495.94,43.437l-.565,8.079c-.207.385-.416.77-.628,1.152l.7-10.08C495.615,42.882,495.776,43.165,495.94,43.437Z" transform="translate(-483.997 -27.071)"/><path class="v" d="M493.256,37.757,491.834,58.1a3.409,3.409,0,0,1-.573.37l1.528-21.864C492.943,36.991,493.1,37.376,493.256,37.757Z" transform="translate(-484.449 -27.846)"/><path class="w" d="M492.381,35.489l-1.643,23.5a4.134,4.134,0,0,0-.557.139l1.741-24.891C492.07,34.654,492.223,35.071,492.381,35.489Z" transform="translate(-484.589 -28.153)"/><path class="v" d="M491.522,33.025l-1.867,26.7c-.192.088-.382.185-.567.286l1.983-28.359Q491.287,32.328,491.522,33.025Z" transform="translate(-484.73 -28.488)"/><path class="v" d="M488.666,28.949l-2.283,32.657a4.289,4.289,0,0,1-.543-.045l2.282-32.649Z" transform="translate(-485.151 -28.843)"/><path class="w" d="M487.556,28.875l-2.277,32.56-.049-.012c.553-8.027,1.224-22.482,1.988-32.571Z" transform="translate(-485.23 -28.851)"/><g transform="translate(1.884 0.151)"><path class="w" d="M495.184,42l-.869,12.442a16.985,16.985,0,0,1-1.933,2.719l1.284-18.379C494.161,39.917,494.67,41,495.184,42Z" transform="translate(-486.187 -27.715)"/><path class="w" d="M490.827,30.277,488.7,60.74a6.975,6.975,0,0,1-1.561.762c-.078.02-.158.036-.237.05l2.277-32.568,1.314.093C490.593,29.464,490.706,29.865,490.827,30.277Z" transform="translate(-486.898 -28.985)"/></g><g transform="translate(0.224 3.568)"><path class="w" d="M486.778,32.01l4.848.34c.193.585.4,1.182.611,1.785l-5.574-.391Q486.719,32.866,486.778,32.01Z" transform="translate(-485.268 -32.01)"/><path class="w" d="M486.441,37.278l7.508.525c.254.609.513,1.211.776,1.8l-8.388-.586Q486.388,38.142,486.441,37.278Z" transform="translate(-485.31 -31.327)"/><path class="w" d="M486.131,42.549l10.856.759a20.617,20.617,0,0,0,1.2,1.825l-12.15-.849Z" transform="translate(-485.35 -30.645)"/><path class="w" d="M485.834,47.82l11.877.83c-.291.535-.591,1.1-.9,1.68l-11.078-.775Z" transform="translate(-485.388 -29.962)"/><path class="w" d="M485.532,53.09l8.977.628a12.9,12.9,0,0,1-1.279,1.653l-7.8-.546C485.462,54.264,485.5,53.684,485.532,53.09Z" transform="translate(-485.428 -29.279)"/></g><g transform="translate(2.127 3.721)"><rect class="x" width="1.738" height="1.738" transform="matrix(0.069, -0.998, 0.998, 0.069, 1.663, 1.734)"/><g transform="translate(1.246 5.948)"><path class="y" d="M493.8,39.4l-.316-.021.042-.6C493.616,38.994,493.708,39.2,493.8,39.4Z" transform="translate(-487.534 -37.233)"/><rect class="x" width="1.738" height="1.739" transform="matrix(0.07, -0.998, 0.998, 0.07, 0, 1.734)"/></g><g transform="translate(0.831 11.896)"><rect class="x" width="1.738" height="1.738" transform="translate(5.949 2.151) rotate(-86.035)"/><rect class="x" width="1.738" height="1.739" transform="matrix(0.07, -0.998, 0.998, 0.07, 0, 1.734)"/></g><g transform="translate(0.415 17.844)"><rect class="x" width="1.738" height="1.738" transform="matrix(0.07, -0.998, 0.998, 0.07, 5.948, 2.15)"/><rect class="x" width="1.738" height="1.738" transform="translate(0 1.734) rotate(-85.996)"/></g><g transform="translate(0 23.793)"><path class="y" d="M492.383,55.249l.116-1.672,1.108.078A13.223,13.223,0,0,1,492.383,55.249Z" transform="translate(-486.431 -53.161)"/><rect class="x" width="1.738" height="1.737" transform="matrix(0.07, -0.998, 0.998, 0.07, 0, 1.734)"/></g></g><path class="w" d="M489.151,57.065l-3.857-.27.036-.543,4.727.33C489.744,56.73,489.443,56.9,489.151,57.065Z" transform="translate(-485.222 -25.301)"/><path class="w" d="M495.569,52.222l-9.954-.7.033-.546,10.218.716C495.766,51.873,495.668,52.048,495.569,52.222Z" transform="translate(-485.18 -25.984)"/><path class="w" d="M498.7,47.15l-12.789-.895.031-.544,13.1.916Q498.877,46.871,498.7,47.15Z" transform="translate(-485.141 -26.667)"/><path class="w" d="M495.92,41.663l-9.706-.678.031-.546,9.391.657Q495.778,41.384,495.92,41.663Z" transform="translate(-485.103 -27.35)"/><path class="w" d="M493.163,36.18l-6.635-.464.035-.544,6.385.446C493.018,35.8,493.091,35.992,493.163,36.18Z" transform="translate(-485.062 -28.032)"/><path class="w" d="M491,30.736l-4.123-.288.039-.544,3.918.274C490.89,30.363,490.944,30.548,491,30.736Z" transform="translate(-485.016 -28.715)"/></g></g><path class="z" d="M.855,0H20.325a.854.854,0,0,1,.854.854v.222a.854.854,0,0,1-.854.854H.854A.854.854,0,0,1,0,1.076V.855A.855.855,0,0,1,.855,0Z" transform="translate(12.413 4.234)"/><rect class="z" width="22.022" height="1.93" rx="0.854" transform="translate(11.992 6.164)"/><g transform="translate(27.714 13.972)"><path class="q" d="M484.337,28.41h-.6v3.223c.207-.033.409-.073.6-.121Z" transform="translate(-483.733 -28.41)"/><path class="q" d="M485.381,28.41h-.774v3a4.313,4.313,0,0,0,.774-.319Z" transform="translate(-483.62 -28.41)"/></g></g></svg>