<svg xmlns="http://www.w3.org/2000/svg" width="18" height="20" viewBox="0 0 18 20"><defs><style>.a{fill:#004e6e;fill-rule:evenodd;}</style></defs><path class="a" d="M5.138,20a6.942,6.942,0,0,1-1.171-.095l-.218-.041C1.378,19.371,0,17.555,0,14.791V5.209a7.406,7.406,0,0,1,.06-.96C.409,1.564,2.254,0,5.138,0h7.725C16.059,0,17.97,1.92,18,5.132v9.659C18,18.048,16.084,20,12.863,20Zm0-18.543c-2.456,0-3.7,1.263-3.7,3.752v9.582c0,2.489,1.245,3.752,3.7,3.752h7.716c2.455,0,3.692-1.263,3.692-3.752V5.209c0-2.489-1.237-3.752-3.692-3.752Zm8.168,12.777a.718.718,0,0,0-.713-.724H5.382a.724.724,0,0,0,0,1.448h7.211A.718.718,0,0,0,13.306,14.234Zm-.713-4.963a.722.722,0,0,1,.691.339.745.745,0,0,1,0,.78.722.722,0,0,1-.691.339H5.382a.735.735,0,0,1,0-1.458Zm-3.816-3.5a.729.729,0,0,0-.643-.729H5.391a.734.734,0,0,0,0,1.457H8.134A.729.729,0,0,0,8.777,5.771Z" transform="translate(0)"/></svg>