<svg xmlns="http://www.w3.org/2000/svg" width="16.5" height="16.5" viewBox="0 0 16.5 16.5"><defs><style>.a{fill:none;stroke:#4385a7;stroke-linecap:round;stroke-linejoin:round;stroke-width:1.5px;fill-rule:evenodd;}</style></defs><g transform="translate(-0.25 -0.25)"><path class="a" d="M14.673,1h2.45a1.845,1.845,0,0,1,1.836,1.853v2.47a1.845,1.845,0,0,1-1.836,1.853h-2.45a1.845,1.845,0,0,1-1.837-1.853V2.853A1.845,1.845,0,0,1,14.673,1Z" transform="translate(-2.959)"/><path class="a" d="M2.837,1H5.286A1.845,1.845,0,0,1,7.123,2.853v2.47A1.845,1.845,0,0,1,5.286,7.176H2.837A1.845,1.845,0,0,1,1,5.323V2.853A1.845,1.845,0,0,1,2.837,1Z"/><path class="a" d="M2.837,12.766H5.286a1.845,1.845,0,0,1,1.837,1.853v2.47a1.845,1.845,0,0,1-1.837,1.853H2.837A1.845,1.845,0,0,1,1,17.089v-2.47A1.845,1.845,0,0,1,2.837,12.766Z" transform="translate(0 -2.941)"/><path class="a" d="M14.673,12.766h2.45a1.845,1.845,0,0,1,1.836,1.853v2.47a1.845,1.845,0,0,1-1.836,1.853h-2.45a1.845,1.845,0,0,1-1.837-1.853v-2.47A1.845,1.845,0,0,1,14.673,12.766Z" transform="translate(-2.959 -2.941)"/></g></svg>