<svg xmlns="http://www.w3.org/2000/svg" xmlns:xlink="http://www.w3.org/1999/xlink" width="58.514" height="58.515" viewBox="0 0 58.514 58.515"><defs><style>.a,.b,.d,.e,.f,.g,.h,.i,.j,.k,.l{fill-rule:evenodd;}.a{fill:url(#a);}.b{fill:#a3a1a8;}.c,.d{fill:#ebe9f4;}.e{fill:#d6d4de;}.f{fill:#ffcaa6;}.g{fill:#1a1a1a;}.h{fill:#d7d7dc;}.i{fill:#e5e4ee;}.j{fill:#dad8e1;}.k{fill:#e1e0e7;}.l{fill:#fff;}</style><linearGradient id="a" y1="0.5" x2="1" y2="0.5" gradientUnits="objectBoundingBox"><stop offset="0" stop-color="#b600ff"/><stop offset="1" stop-color="#cc4cbf"/></linearGradient></defs><path class="a" d="M606.2,341.927a29.258,29.258,0,1,1-29.257,29.257A29.257,29.257,0,0,1,606.2,341.927Z" transform="translate(-576.947 -341.927)"/><g transform="translate(8.159 6.657)"><path class="b" d="M596.493,362.792c1.624-3.149,4.539-6.288,7.98-6.56a6.609,6.609,0,0,1,3.816.82,12.156,12.156,0,0,1,4.116,3.867c.694.983.367,2.97.327,4.217a26.877,26.877,0,0,1-1.048,6.181c-.072.47-2.892,8.639-2.892,8.639s-2.928,6.975-4.156,8.566a25.259,25.259,0,0,1-2.061,2.4c-3.382-4.449-6.359-12.071-6.876-19.608C595.5,368.407,595.449,364.813,596.493,362.792Z" transform="translate(-582.803 -346.819)"/><rect class="c" width="8.087" height="6.095" transform="translate(17.364 28.35)"/><path class="d" d="M613.634,377.192s3.621.844,5.975,1.64a3.714,3.714,0,0,1,1.742,2.008,25.837,25.837,0,0,1,1.418,6.255,29.431,29.431,0,0,1-6.683,5.194Z" transform="translate(-580.572 -344.226)"/><path class="e" d="M616.048,390.919l1.175-3.846.335,2.907Q616.818,390.472,616.048,390.919Z" transform="translate(-580.274 -343.005)"/><path class="d" d="M593.344,377.192s-3.622.844-5.976,1.64c-.815.276-1.331,1.2-1.74,2.008a25.84,25.84,0,0,0-1.418,6.255,29.391,29.391,0,0,0,6.682,5.194Z" transform="translate(-584.209 -344.226)"/><path class="e" d="M590.091,390.92l-1.175-3.847-.335,2.906Q589.319,390.472,590.091,390.92Z" transform="translate(-583.669 -343.005)"/><path class="d" d="M620.56,391.79c1.04-4.984,2.035-9.665,2.51-12.632-4.3-1.5-8.531-3.383-13.05-3.668l-5.184.03-3.607-.021c-2.791-.017-11.84,2.617-14.209,3.545.5,2.927,1.453,7.7,2.425,12.8a29.268,29.268,0,0,0,31.115-.054Z" transform="translate(-583.862 -344.437)"/><path class="e" d="M599.076,373.084h9.459v5.289l.635,1.724-10.138-6.547Z" transform="translate(-582.377 -344.734)"/><path class="f" d="M600.866,351.7h7.061c3.706,0,7.248,3.069,6.737,6.738l-1.275,9.164a15.485,15.485,0,0,1-3.011,7.281,7.028,7.028,0,0,1-5.981,2.985h0a7.032,7.032,0,0,1-5.979-2.981,15.784,15.784,0,0,1-3.012-7.285l-1.276-9.164C593.618,354.766,597.161,351.7,600.866,351.7Z" transform="translate(-582.989 -347.377)"/><path class="g" d="M608.665,355.161a21.987,21.987,0,0,1-5.827,3.5c-7.474,2.508-7.151,3.021-7.852,4.046-.311.456.244,2.386.222,4-1.559-3.734-2.151-9.507-1.026-11.881,5.478-11.566,21.528-7.218,21.664,5.076a14.742,14.742,0,0,1-.489,3.985,3.477,3.477,0,0,1-1.565,2.236C613.979,360.894,609.865,360.008,608.665,355.161Z" transform="translate(-583.048 -347.825)"/><path class="h" d="M590.342,372.179a41.332,41.332,0,0,1,1.851-11.445,39.853,39.853,0,0,1,4.119-9.355c1.735-2.471,5.353-3.486,8.261-3.525,2.983-.039,5.034.473,6.859,1.792,3.831,2.766,5.424,8.055,5.369,13.425-.073,6.939-.579,13.156-.145,15.543s1.735,3.325,1.735,4.12a70.115,70.115,0,0,1,.217,7.518c-.062,1.756.008,3.79.025,5.858a29.3,29.3,0,0,1-25.135,1.431,5.025,5.025,0,0,0-.4-1.292c-3.082-6.789-2.994-18.169-2.752-24.071Zm14.792-14.913c-2.59.2-7.135,3.4-8.138,6.07-1.027,2.727-.754,6.526-.637,9.017a37.594,37.594,0,0,0,6.876,19.608,25.26,25.26,0,0,0,2.061-2.4c1.228-1.59,4.156-8.566,4.156-8.566s2.82-8.17,2.892-8.639a26.864,26.864,0,0,0,1.048-6.181c.04-1.247.367-3.234-.327-4.217a12.156,12.156,0,0,0-4.116-3.867A6.609,6.609,0,0,0,605.134,357.265Z" transform="translate(-583.464 -347.852)"/><path class="d" d="M614.23,367.815a53.5,53.5,0,0,0,.043,8.331,7.414,7.414,0,0,0,.181.766c-.29,4.028-.562,7.14-.615,11.594-.019,1.651-.1,4-.31,6.453a29.308,29.308,0,0,1-4.013,1.356c.386-1.82.762-4.218,1.216-7.447C611.643,382.365,612.691,373.251,614.23,367.815Z" transform="translate(-581.081 -345.385)"/><path class="i" d="M614.012,375.912c.535,1.833,1.554,2.651,1.554,3.354a70.125,70.125,0,0,1,.217,7.518c-.061,1.756.008,3.79.025,5.858a29.316,29.316,0,0,1-2.72,1.317c.21-2.448.291-4.8.31-6.453C613.45,383.052,613.722,379.94,614.012,375.912Z" transform="translate(-580.64 -344.384)"/><path class="d" d="M595.434,366.232s-1.121-6.326.071-9.577,2.6-4.735,4.446-5.675a8.245,8.245,0,0,1,5.061-1.193c2.134.145,4.808,1.157,5.856,2.385s3.325,2.639,3.506,6.759.144,11.675-1.59,16.373a39.414,39.414,0,0,1-7.072,12.334h0c1.369-2.62,3.157-6.883,3.157-6.883s2.82-8.17,2.892-8.639a23.546,23.546,0,0,0,.609-6.24c-.24-5.2-3.963-7.065-8.229-6.989-3.4.061-6.317.946-7.754,4.28a13.164,13.164,0,0,0-.63,4.091C595.548,366.607,595.434,366.232,595.434,366.232Z" transform="translate(-582.881 -347.617)"/><path class="j" d="M590.342,371.866a41.332,41.332,0,0,1,1.851-11.445,39.832,39.832,0,0,1,4.125-9.365c.118-.144.653-.761.735-.663.374.445.372,1.988.9,2.628a12.99,12.99,0,0,0-1.86,3.556c-1.192,3.252-.071,9.578-.071,9.578s.115.375.323,1.025a15.959,15.959,0,0,0,.444,5.054c1.952,6.862,4.843,12.12,6.452,19.413,0,0-1.688,3.353-6.817,6.6a28.48,28.48,0,0,1-2.921-1.018,5.012,5.012,0,0,0-.4-1.292C590.011,389.148,590.1,377.767,590.342,371.866Z" transform="translate(-583.464 -347.539)"/><path class="k" d="M590.342,371.541a41.317,41.317,0,0,1,1.851-11.444l.04-.125.018-.058.022-.065.038-.117,0-.008v0l.11-.33.007-.022.006-.015.042-.122.015-.044.027-.079.036-.1.007-.021.042-.121.012-.037.03-.085.031-.094.01-.027.043-.12.011-.03.031-.091.029-.085.013-.034.043-.121.035-.1.008-.021.029-.08.013-.04.044-.119,0-.015.039-.1.026-.071.018-.047.043-.118,0-.008.04-.108.024-.064.02-.054.044-.116h0l.044-.115.021-.055.022-.06.043-.11v0l.044-.115.02-.048.025-.065.039-.1,0-.01.045-.113.017-.042.027-.071.039-.094.006-.017.044-.111.015-.035.03-.076.036-.087.01-.022.045-.109.01-.028.035-.081.033-.079.011-.029.045-.108.009-.021.036-.085.03-.072.015-.034.045-.106.007-.016.038-.09.028-.065.017-.039.046-.1,0-.009.042-.094.025-.057.02-.045.045-.1v0l.044-.1.024-.051.021-.049.044-.1h0l.045-.1.021-.044.024-.054.042-.089,0-.008.045-.1.018-.037.027-.058.039-.081.006-.013.045-.094.016-.03,0-.007.064-.13.008-.017.046-.092.011-.026.034-.064c0,.015-1.331,12.314-1.186,19.683s.289,11.566.579,15.11.433,5.963,1.843,6.794a10.911,10.911,0,0,0,3.155,1.143,27.787,27.787,0,0,1-2.971,2.177A28.458,28.458,0,0,1,593.5,396.9a5.025,5.025,0,0,0-.4-1.292C590.011,388.823,590.1,377.442,590.342,371.541Z" transform="translate(-583.464 -347.214)"/><path class="l" d="M600.688,370.131a19.8,19.8,0,0,0,5.784,0,3.191,3.191,0,0,1-5.784,0Z" transform="translate(-582.172 -345.099)"/><g transform="translate(14.714 17.16)"><path class="g" d="M599.212,363.229a.856.856,0,1,1-.857.855A.856.856,0,0,1,599.212,363.229Z" transform="translate(-597.175 -363.112)"/><path class="g" d="M597.3,363.883h3.742S598.869,362.177,597.3,363.883Z" transform="translate(-597.305 -363.125)"/><g transform="translate(9.646)"><path class="g" d="M607.5,363.229a.856.856,0,1,0,.856.855A.856.856,0,0,0,607.5,363.229Z" transform="translate(-605.797 -363.112)"/><path class="g" d="M609.63,363.883h-3.74S608.065,362.177,609.63,363.883Z" transform="translate(-605.89 -363.125)"/></g></g><path class="e" d="M594.961,360.9a9.049,9.049,0,0,1,4.071-5.688c-3.075,3.266-3.654,5.291-3.987,7.692C595,362.272,594.966,361.591,594.961,360.9Z" transform="translate(-582.88 -346.942)"/><path class="e" d="M613.009,361.434c-1.183-3-3.381-5.767-6.425-6.752,3.175,1.109,5.563,5.266,6.418,8.955C613.015,362.871,613.017,362.131,613.009,361.434Z" transform="translate(-581.444 -347.008)"/><g transform="translate(13.616 14.739)"><path class="g" d="M605.556,362.108c-.1-.276-.164-.465-.107-.578a11.418,11.418,0,0,1,2.593-.517,2.647,2.647,0,0,1,2.744,1.143,2.755,2.755,0,0,0-2.588-.471C607.021,361.934,605.734,362.586,605.556,362.108Z" transform="translate(-595.202 -360.97)"/><path class="g" d="M601.556,362.108c.1-.276.165-.465.107-.578a11.4,11.4,0,0,0-2.592-.517,2.646,2.646,0,0,0-2.744,1.143,2.753,2.753,0,0,1,2.588-.471C600.093,361.934,601.38,362.586,601.556,362.108Z" transform="translate(-596.327 -360.97)"/></g></g></svg>