<svg xmlns="http://www.w3.org/2000/svg" xmlns:xlink="http://www.w3.org/1999/xlink" width="58.515" height="58.515" viewBox="0 0 58.515 58.515"><defs><style>.a,.c,.d,.e,.f,.g,.h,.i,.j,.k,.l,.m,.n{fill-rule:evenodd;}.a{fill:url(#a);}.b,.f{fill:#d99662;}.c{fill:#a6754f;}.d{fill:#29292a;}.e{fill:#141414;}.g{fill:#ffcaa6;}.h{fill:#1a1a1a;}.i{fill:#fff;}.j{fill:#e5e3ec;}.k{fill:#cdcbd4;}.l{fill:#c4c3c9;}.m{fill:#d6d4de;}.n{fill:#d0ced6;}</style><linearGradient id="a" y1="0.5" x2="1" y2="0.5" gradientUnits="objectBoundingBox"><stop offset="0" stop-color="#00e9e6"/><stop offset="1" stop-color="#004cbf"/></linearGradient></defs><path class="a" d="M667.027,341.927a29.258,29.258,0,1,1-29.258,29.257A29.258,29.258,0,0,1,667.027,341.927Z" transform="translate(-637.769 -341.927)"/><g transform="translate(7.154 6.454)"><rect class="b" width="8.087" height="6.095" transform="translate(18.265 28.649)"/><path class="c" d="M659.8,373.169h9.458v5.289l-2.683-.334-6.818-4.489Z" transform="translate(-642.205 -344.52)"/><g transform="translate(0.425 34.438)"><g transform="translate(34.521)"><path class="d" d="M675.238,378.321s3.621.843,5.976,1.64c.813.275,1.331,1.2,1.739,2.006a18.271,18.271,0,0,1,1.12,4.367,29.387,29.387,0,0,1-6.648,5.457Z" transform="translate(-675.238 -378.321)"/><path class="e" d="M678.262,389.8l.49-1.6.135,1.174C678.681,389.521,678.472,389.664,678.262,389.8Z" transform="translate(-674.864 -377.1)"/></g><path class="d" d="M653.35,378.321s-3.622.843-5.975,1.64c-.816.275-1.333,1.2-1.742,2.006a18.323,18.323,0,0,0-1.119,4.367,29.437,29.437,0,0,0,6.647,5.457Z" transform="translate(-644.514 -378.321)"/><path class="e" d="M649.422,389.8l-.489-1.6-.135,1.173C649,389.52,649.211,389.663,649.422,389.8Z" transform="translate(-643.984 -377.1)"/></g><path class="d" d="M683.371,390.341c.624-3.991,1.216-7.607,1.608-10.055-4.3-1.5-9.412-3.384-13.93-3.668l-5.183.03-3.607-.021c-2.792-.017-12.72,2.617-15.089,3.545.425,2.473,1,6.268,1.589,10.462a29.262,29.262,0,0,0,34.612-.292Z" transform="translate(-643.761 -344.094)"/><path class="f" d="M656.651,361.578c-3.224-1.275-3.193,1.758-2.6,3.891a4.372,4.372,0,0,0,2.126,2.818C658.989,369.714,655.779,363.177,656.651,361.578Z" transform="translate(-642.949 -345.99)"/><path class="c" d="M655.181,362a1.906,1.906,0,0,1,.433.045,12.6,12.6,0,0,0,.456,3.218,16.646,16.646,0,0,1,.409,2.219c-.191.044-.921-.712-1.047-.879a4.307,4.307,0,0,1-.689-1.434,6.494,6.494,0,0,1-.265-2.165,1.575,1.575,0,0,1,.235-.8A.572.572,0,0,1,655.181,362Z" transform="translate(-642.86 -345.901)"/><path class="f" d="M671.726,360.709c3.225-1.276,3.193,1.757,2.6,3.891a4.366,4.366,0,0,1-2.126,2.817C669.388,368.845,672.6,362.308,671.726,360.709Z" transform="translate(-640.814 -346.097)"/><path class="c" d="M673.019,362a1.919,1.919,0,0,0-.433.045,12.635,12.635,0,0,1-.454,3.218,16.1,16.1,0,0,0-.409,2.219c.19.044.919-.712,1.046-.879a4.261,4.261,0,0,0,.689-1.434,6.531,6.531,0,0,0,.266-2.165,1.587,1.587,0,0,0-.237-.8A.571.571,0,0,0,673.019,362Z" transform="translate(-640.727 -345.901)"/><path class="g" d="M661.595,351.782h7.061c3.706,0,7.248,3.069,6.738,6.738l-1.278,9.164a15.456,15.456,0,0,1-3.011,7.281,7.027,7.027,0,0,1-5.98,2.986h0a7.03,7.03,0,0,1-5.977-2.982,15.782,15.782,0,0,1-3.015-7.285l-1.275-9.164C654.345,354.851,657.889,351.782,661.595,351.782Z" transform="translate(-642.817 -347.163)"/><path class="h" d="M669.393,355.246s-3.814-.849-6.6.085c-7.473,2.507-6.209,6.045-6.91,7.07-.312.456.077,2.775.056,4.384-1.56-3.733-2.151-9.507-1.026-11.881,5.477-11.566,21.528-7.218,21.664,5.076a14.79,14.79,0,0,1-.489,3.985,3.468,3.468,0,0,1-1.565,2.236C674.709,360.979,671.9,359.071,669.393,355.246Z" transform="translate(-642.876 -347.611)"/><path class="i" d="M661.08,370.5c1.131.1,2.186.267,3.27.275,1.083-.008,2.139-.175,3.27-.275a4.213,4.213,0,0,1-6.539,0Z" transform="translate(-642.042 -344.85)"/><path class="j" d="M658,379.286c.133-2.646-1.452-6.754-2.335-9.32a24.923,24.923,0,0,1-1.146-6.858c-.214-5.053.152-9.5,3.6-12.4a11.988,11.988,0,0,1,8.217-3.037,11.232,11.232,0,0,1,11.436,9.886,28.555,28.555,0,0,1,.252,6.775c-.367,4.174-.638,5.888-2.641,9.557-1.379,2.525-1.2,5.228-.133,6.021,1.772,1.315,6.244,2.328,9.25,3.54,1.252.5,1.352.383,2.031,1.582a11.265,11.265,0,0,1,1.388,5.084,29.255,29.255,0,0,1-43.785-.475,10.28,10.28,0,0,1,2.442-5.574c.976-1.09,6.44-1.842,8.022-2.443,1.61-.612,3.3-.318,3.4-2.339Zm14.426-3.813a12.225,12.225,0,0,0,1.407-2.521,11.429,11.429,0,0,0,1.256-5.112c-.006-3.143.081-5.056-1.44-7.244a8.926,8.926,0,0,0-14.038-.635c-1.673,2.062-2.567,3.309-2.135,8.376a15.768,15.768,0,0,0,2.993,7.14,7.03,7.03,0,0,0,5.977,2.982h0A7.027,7.027,0,0,0,672.423,375.473Z" transform="translate(-644.136 -347.671)"/><path class="k" d="M672.279,374.842q-.024,1.7-.129,3.231c-1.688,4.263-4.363,10.723-10.51,10.174a7.069,7.069,0,0,0,1.861-.415C668.08,386.369,671.408,379.3,672.279,374.842Z" transform="translate(-641.973 -344.313)"/><path class="l" d="M659.756,388.187a12.2,12.2,0,0,1-1.189-1.849c1.988,1.773,2.545,2.362,7.1,1.548a9.1,9.1,0,0,1-5.091.548A5.437,5.437,0,0,1,659.756,388.187Z" transform="translate(-642.353 -342.892)"/><path class="m" d="M669.908,349.5c.042.028.083.058.125.088,2.63,5.507,4.094,11.047,3.2,15.871,0,0-.92,1.531-1.33,2.027v-.5c.071-.179.165-.4.284-.666.544-1.219.621-4.158.189-6.965A67.139,67.139,0,0,0,669.908,349.5Z" transform="translate(-640.951 -347.445)"/><path class="m" d="M655.122,365.618c-.693-4.239.685-9.1,3.06-13.907a59.126,59.126,0,0,0-2.276,8.938,16.606,16.606,0,0,0-.058,5.247Q655.464,365.755,655.122,365.618Z" transform="translate(-642.801 -347.172)"/><path class="j" d="M658.264,376.682c-.365-2.624-2.958-6.229-3.761-8.563a22.044,22.044,0,0,1-.987-4.715,13.679,13.679,0,0,0,2.717,1.22c0,.584.024,1.2.08,1.865a15.769,15.769,0,0,0,2.993,7.14,7.03,7.03,0,0,0,5.977,2.982h0a7.027,7.027,0,0,0,5.98-2.986,12.227,12.227,0,0,0,1.407-2.521,11.426,11.426,0,0,0,1.256-5.112c0-.615-.018-1.237-.054-1.86a26.756,26.756,0,0,0,2.982-1.519c-.363,4.081-.646,5.8-2.63,9.429a19.419,19.419,0,0,0-1.892,4.282c-1.98,2.13-4.076,4.089-7.048,4.244C663.278,380.674,660.588,379.087,658.264,376.682Z" transform="translate(-642.977 -345.824)"/><path class="j" d="M673.873,364.133c-.916.412-1.952.847-3.023,1.253-4.525,1.715-6,1.67-9.8.7-1.7-.431-3.417-.96-4.811-1.465a13.679,13.679,0,0,1-2.717-1.22,22.044,22.044,0,0,0,.987,4.715c.8,2.334,2.151,5.843,2.3,8.563,2.324,2.4,6.479,3.991,8.485,3.886,2.971-.154,6.02-2.088,8-4.216a8.331,8.331,0,0,1,.942-4.31c1.984-3.633,2.267-5.348,2.63-9.429A26.756,26.756,0,0,1,673.873,364.133Z" transform="translate(-642.977 -345.824)"/><path class="n" d="M675.61,365.528c.087-.569.158-1.175.226-1.848-.869.827-2.021,1.93-3.554,3.4-6.152,5.893-11.425,3.051-11.425,3.051C665.6,373.866,672.7,368.22,675.61,365.528Z" transform="translate(-642.069 -345.693)"/><path class="m" d="M654.169,366.788q.12.42.254.816c.156.453.331.948.516,1.475,6.849,5.775,12.339,6.175,18.583-.388C665.36,375.251,662.352,372.14,654.169,366.788Z" transform="translate(-642.896 -345.308)"/><path class="k" d="M655.85,371.936c.164.594.309,1.191.422,1.773,2.611,2.122,4.345,3.176,9.739,4.275C666.012,377.984,659.386,375.934,655.85,371.936Z" transform="translate(-642.688 -344.672)"/><path class="k" d="M647.924,380.77c1.836,6.618,5.111,10.829,8.624,13.386a29.133,29.133,0,0,0,5.989,1.307c-5.447-1.776-11.147-7.184-14.612-14.693Zm27.3,13.309c2.691-2.448,5.271-6.143,8.576-10.994-5.3,5.91-9.447,10.493-13.768,12.247A29.123,29.123,0,0,0,675.226,394.079Z" transform="translate(-643.668 -343.58)"/><path class="l" d="M656.471,375.208l0-.038c3.342,1.892,5.616,3.939,8.407,3.883,2.689-.053,5.251-2.407,8.043-4.211-1.979,2.128-5.028,5.527-8,5.681C662.924,380.626,658.8,377.593,656.471,375.208Z" transform="translate(-642.612 -344.313)"/><path class="m" d="M656.477,375.928c.011-.242.009-.5,0-.758,2.255,15.37,5.985,16.466,8.718,16.3,2.4-.147,5.757-2.174,7.731-16.628-.167,11.791-3.285,17.53-7.63,17.584-4.663.056-8.707-5.491-8.853-16.143A3.036,3.036,0,0,0,656.477,375.928Z" transform="translate(-642.616 -344.313)"/><g transform="translate(15.703 16.814)"><path class="h" d="M660.019,362.739a.857.857,0,1,1-.856.856A.857.857,0,0,1,660.019,362.739Z" transform="translate(-657.982 -362.623)"/><path class="h" d="M658.112,363.394h3.74S659.677,361.688,658.112,363.394Z" transform="translate(-658.112 -362.636)"/></g><g transform="translate(24.763 16.814)"><path class="h" d="M667.785,362.739a.857.857,0,1,0,.856.856A.856.856,0,0,0,667.785,362.739Z" transform="translate(-666.082 -362.623)"/><path class="h" d="M669.915,363.394h-3.74S668.35,361.688,669.915,363.394Z" transform="translate(-666.175 -362.636)"/></g><g transform="translate(14.311 14.401)"><path class="h" d="M666.1,361.627c-.1-.276-.164-.465-.106-.579a11.406,11.406,0,0,1,2.592-.517,2.647,2.647,0,0,1,2.744,1.144,2.754,2.754,0,0,0-2.588-.472C667.567,361.453,666.28,362.1,666.1,361.627Z" transform="translate(-655.748 -360.488)"/><path class="h" d="M662.1,361.627c.1-.276.164-.465.106-.579a11.393,11.393,0,0,0-2.592-.517,2.647,2.647,0,0,0-2.744,1.144,2.755,2.755,0,0,1,2.588-.472C660.639,361.453,661.926,362.1,662.1,361.627Z" transform="translate(-656.873 -360.488)"/></g></g></svg>