<svg xmlns="http://www.w3.org/2000/svg" xmlns:xlink="http://www.w3.org/1999/xlink" width="58.515" height="58.515" viewBox="0 0 58.515 58.515"><defs><style>.a,.c,.d,.e,.f,.g,.h,.i,.j,.k,.l,.m,.n,.o{fill-rule:evenodd;}.a{fill:url(#a);}.b,.f{fill:#d99662;}.c{fill:#a6754f;}.d{fill:#29292a;}.e{fill:#141414;}.g{fill:#e3ceb1;}.h{fill:#ad9d88;}.i{fill:#ffe8bb;}.j{fill:#1a1a1a;}.k{fill:#345a87;}.l{fill:#2d4969;}.m{fill:#31547c;}.n{fill:#466891;}.o{fill:#fff;}</style><linearGradient id="a" y1="0.5" x2="1" y2="0.5" gradientUnits="objectBoundingBox"><stop offset="0" stop-color="#b600ff"/><stop offset="1" stop-color="#cc4cbf"/></linearGradient></defs><path class="a" d="M180.451,341.927a29.258,29.258,0,1,1-29.257,29.257A29.257,29.257,0,0,1,180.451,341.927Z" transform="translate(-151.194 -341.927)"/><g transform="translate(13.761 6.843)"><rect class="b" width="4.41" height="2.83" transform="translate(13.073 22.105)"/><path class="c" d="M174.947,367.217h4.588v2.567l-1.4.251L175.275,368Z" transform="translate(-162.019 -345.644)"/><g transform="translate(14.545 44.909)"><path class="d" d="M186.615,393.247l-.221-5.242c-3.26-.013-6.746-.019-10-.019h-.012v6.746c.316.011.634.018.952.018A29.22,29.22,0,0,0,186.615,393.247Z" transform="translate(-176.386 -387.986)"/><path class="e" d="M179.021,394.1l-.1-1.3-1.516,1.351C177.948,394.148,178.487,394.129,179.021,394.1Z" transform="translate(-176.26 -387.391)"/></g><g transform="translate(6.436 44.909)"><path class="d" d="M169.169,393.317v-.024l.222-5.289c3.26-.013,6.746-.019,10-.019h.013v6.738c-.389.016-.779.026-1.171.026A29.2,29.2,0,0,1,169.169,393.317Z" transform="translate(-169.169 -387.986)"/><path class="e" d="M175.816,394.111l.1-1.309,1.518,1.353h-.027C176.874,394.155,176.343,394.139,175.816,394.111Z" transform="translate(-168.348 -387.391)"/></g><path class="f" d="M166.482,391.69c-.091-.32-.424-.348-.675-.32Q166.142,391.535,166.482,391.69Z" transform="translate(-163.149 -342.66)"/><path class="g" d="M171.665,369.017a5.5,5.5,0,0,0-2.975.762c-3.54,2.526-3.781,8.821-4.126,11.519-.324,2.543-.818,7.918-1.122,11.357a29.23,29.23,0,0,0,4.339,2.234l2.027-15.043Z" transform="translate(-163.441 -345.422)"/><path class="h" d="M167.431,394.248l2.027-15.043.81-4.721-.846-.28-3.152,19.535Q166.845,394,167.431,394.248Z" transform="translate(-163.091 -344.781)"/><path class="f" d="M188.059,391.69c.091-.32.424-.348.675-.32Q188.4,391.535,188.059,391.69Z" transform="translate(-160.399 -342.66)"/><path class="g" d="M183.707,369.017a5.5,5.5,0,0,1,2.975.762c3.54,2.526,3.781,8.821,4.125,11.519.325,2.543.819,7.918,1.124,11.357a29.232,29.232,0,0,1-4.339,2.234l-2.027-15.043Z" transform="translate(-160.936 -345.422)"/><path class="g" d="M188.94,395.246c-.113-11.72-.525-22.958-1.734-25.776a21.471,21.471,0,0,0-6.064-1.364c.051.74-1.679,1.526-2.749,1.58-1.071-.054-2.8-.839-2.748-1.58a21.471,21.471,0,0,0-6.064,1.364c-1.21,2.818-1.62,14.056-1.734,25.776a29.345,29.345,0,0,0,21.093,0Z" transform="translate(-162.896 -345.534)"/><path class="i" d="M175.2,351.212h5.271c2.766,0,5.411,2.29,5.029,5.03l-.953,6.839a11.544,11.544,0,0,1-2.247,5.436,5.247,5.247,0,0,1-4.464,2.229h0a5.249,5.249,0,0,1-4.463-2.227,11.776,11.776,0,0,1-2.249-5.438l-.953-6.839C169.794,353.5,172.438,351.212,175.2,351.212Z" transform="translate(-162.613 -347.622)"/><path class="j" d="M181.026,353.8a51.418,51.418,0,0,0-6.125,1.337c-5.579,1.871-3.562,3.528-4.085,4.293-.234.34.182,1.782.165,2.983-1.164-2.786-1.606-7.1-.766-8.868,4.09-8.633,16.072-5.389,16.172,3.789a11.028,11.028,0,0,1-.364,2.975,2.591,2.591,0,0,1-1.169,1.67C184.993,358.076,182.891,356.511,181.026,353.8Z" transform="translate(-162.658 -347.957)"/><path class="j" d="M181.022,353.865a11,11,0,0,0-4.928.065c-5.58,1.871-4.635,4.511-5.158,5.275-.233.342.058,2.072.042,3.273-1.164-2.785-1.606-7.1-.765-8.867,4.089-8.634,16.07-5.388,16.172,3.789a11.107,11.107,0,0,1-.365,2.974,2.6,2.6,0,0,1-1.169,1.671C184.989,358.145,182.892,356.72,181.022,353.865Z" transform="translate(-162.658 -347.948)"/><path class="k" d="M171.854,370.362a18.69,18.69,0,0,0-1.311-5.7,18.551,18.551,0,0,1-.856-5.118c-.16-3.773.112-7.092,2.69-9.257a8.953,8.953,0,0,1,6.134-2.266c4.033,0,8.217,2.352,8.89,7.13.393,2.806-.153,6.074-.406,9.011-.122,1.426-1.271,2.775-1.115,3.953.235,1.781.783,1.6,1.233,1.506.781-.164.783.627.5,1.162-.5.958.849.9,1.964,1.74a6.614,6.614,0,0,1,2.738,6.119c-.022.316.345.854.478,1.249.247.734-.252,1.416.022,2.088s.613.922-.731,5.006.42,4.649.4,6.758c-.008.723-.007,1.651,0,2.594a29.113,29.113,0,0,1-10.867,3.227c.469-1.327,1.137-2.71.753-3.672-.8-1.992-1.47-5.056-1.27-6.176a18.282,18.282,0,0,1,.747-2.591s-2.217,3.089-8.044,3.885,2.434-4.945-2.613-3.621-7.547.308-7.1-2.413c1.189-7.236,1.876-11.621,5.061-13.161,1.158-.56,2.749.137,2.709-1.449Zm11.2-1.592a10.256,10.256,0,0,0,1.012-1.583,8.364,8.364,0,0,0,.974-4.115c0-2.347-.3-4.868-1.439-6.5a5.939,5.939,0,0,0-9.749-.474c-1.249,1.539-2.167,3.567-1.844,7.35a11.573,11.573,0,0,0,2.12,5.326A5.248,5.248,0,0,0,178.59,371h0A5.285,5.285,0,0,0,183.054,368.77Z" transform="translate(-163.368 -348.017)"/><path class="l" d="M187.167,369.3a5.3,5.3,0,0,1,1.071.59,8.31,8.31,0,0,1,.724.612l-7.909,9.991-1.593,1.594a13.1,13.1,0,0,1,1.37-2.615,19.062,19.062,0,0,0,1.519-2.764l-4.557,2.738,8.891-8.07-11.805,4.458S182.982,372.366,187.167,369.3Z" transform="translate(-162.028 -345.387)"/><path class="k" d="M179.739,396.468l.039-.113.047-.129.048-.129.048-.13.048-.129h0l.048-.129.049-.129h0l.047-.129.047-.128.046-.128.045-.127.044-.127.042-.126.039-.125c.012-.042.025-.084.037-.125s.024-.082.035-.122.021-.081.031-.121l.029-.121c.009-.039.018-.079.026-.118s.015-.08.021-.118.014-.078.018-.116.011-.078.015-.115.008-.075.01-.112,0-.074.006-.111V393.4c0-.036,0-.071,0-.107s-.007-.071-.011-.1a1.017,1.017,0,0,0-.016-.1.979.979,0,0,0-.021-.1c-.008-.033-.017-.065-.027-.1s-.022-.064-.035-.1l-.037-.094-.037-.1-.037-.1-.036-.1-.036-.1-.037-.1h0l-.035-.1-.036-.1-.035-.1h0l-.036-.106h0l-.034-.1h0l-.034-.108-.035-.108-.033-.107-.034-.11h0l-.031-.11-.033-.109h0l-.031-.11h0l-.031-.111-.03-.11h0l-.03-.111-.029-.111-.028-.111-.029-.111h0l-.027-.11-.028-.112h0l-.026-.111-.026-.109h0l-.026-.11-.024-.11h0l-.024-.109-.024-.109h0l-.022-.108h0l-.021-.107-.021-.107h0l-.02-.106-.019-.106h0l-.019-.1-.017-.1-.017-.1h0l-.015-.1h0l-.016-.1h0l-.015-.1-.012-.1-.012-.094-.011-.093h0l-.011-.091-.009-.09h0l-.008-.089-.008-.085-.006-.085-.006-.082,0-.082,0-.078,0-.076v-.146h0v-.071l0-.066h0l0-.065h0c0-.02,0-.042,0-.062h0l.007-.06h0l.007-.056h0l.009-.054h0l.01-.054h0l.009-.053h0l.011-.054h0l.011-.053.011-.055h0l.011-.055h0l.012-.055h0l.012-.055h0l.014-.055h0l.013-.054h0l.013-.056h0l.013-.055.015-.056.015-.056h0l.013-.054.016-.056.015-.056.015-.055.016-.055.016-.055.016-.053h0l.015-.054.016-.054h0l.015-.053h0l.016-.053h0l.016-.052h0l.016-.052h0l.016-.052.016-.048h0l.016-.049.015-.049h0l.016-.048h0l.015-.047h0l.016-.046.015-.045h0l.015-.045h0l.015-.043h0l.013-.044h0l.013-.042h0l.013-.039h0l.014-.039h0l.013-.037h0l.011-.037h0l.012-.036h0l.011-.034h0l.011-.033h0l.011-.031h0l.01-.03h0l.01-.028h0l.009-.027h0l.009-.025h0l.009-.024h0l.008-.02h0l.008-.02h0l.006-.018h0l.007-.017h0l.006-.016h0l0-.012h0l0-.011h0l0-.01h0l0-.007h0l0-.006h0v0h0a23.377,23.377,0,0,0,6.074-5.2,20.711,20.711,0,0,0,3.085-5.784,6.67,6.67,0,0,1,.34,2.892c-.022.317.345.855.478,1.251.247.734-.252,1.415.022,2.088s.613.921-.731,5.006.42,4.649.4,6.758h0v.1h0v.1h0v.106h0v.108h0v.109h0v.11h0v.346h0v.118h0v.12h0v.12h0v.122h0v.248h0v.126h0V393h0v.126h0v.127h0v.129h0v.257h0v.093A29.053,29.053,0,0,1,179.739,396.468Z" transform="translate(-161.495 -344.924)"/><path class="m" d="M185.537,394.564c.783-6.043.821-12.492,1.076-17.374a117.332,117.332,0,0,1,.03,16.975Q186.094,394.376,185.537,394.564Z" transform="translate(-160.71 -344.412)"/><path class="l" d="M179.219,385.678a18.487,18.487,0,0,1,.746-2.582,23.3,23.3,0,0,0,3.469-2.511,5.347,5.347,0,0,1,.312,1.455c.01,1.544-1.083,1.111-1.779,1.606C180.409,384.749,181.2,385.133,179.219,385.678Z" transform="translate(-161.491 -343.992)"/><path class="m" d="M185.519,378.521a39.279,39.279,0,0,1-.212,10.745,51.755,51.755,0,0,1-1.01,5.579c-.146.04-.293.08-.442.119A98.285,98.285,0,0,0,185.519,378.521Z" transform="translate(-160.918 -344.247)"/><path class="n" d="M184.358,379.565c.171-.173.342-.353.509-.537a54.047,54.047,0,0,1-.157,6.211,28.107,28.107,0,0,1-2.493,10.08l-.009,0A101.438,101.438,0,0,0,184.358,379.565Z" transform="translate(-161.122 -344.184)"/><path class="n" d="M172.67,355.611c.038-.051.075-.1.115-.147a5.914,5.914,0,0,1,9.508.147Z" transform="translate(-162.3 -347.384)"/><path class="n" d="M167.9,372.9c.733.119,2.624-1.311,4.091-1.311s1.986.019,1.986.019S172.8,373.32,167.9,372.9Z" transform="translate(-162.89 -345.104)"/><path class="m" d="M166.787,377.911a2.509,2.509,0,0,1,1.526-1.74c1.058-.376,2.439-.2,3.567-.884l2.161-1.311s-.757,1.17-1.389,1.928C171.2,377.65,168.9,376.377,166.787,377.911Z" transform="translate(-163.027 -344.809)"/><path class="n" d="M165.75,381.4c3.219,1.194,6.16.027,9.377-.617l-1.371-.406.058-1.6S172.889,381.864,165.75,381.4Z" transform="translate(-163.156 -344.215)"/><path class="l" d="M170.147,360.146a14.3,14.3,0,0,1,3.208-9.758A24.9,24.9,0,0,0,170.147,360.146Z" transform="translate(-162.617 -347.724)"/><path class="l" d="M184.755,359.746c-.146-3.2-1.9-6.544-4.376-9.686a44.185,44.185,0,0,1,3.039,6.179,12.384,12.384,0,0,1,.851,3.822C184.44,359.952,184.6,359.848,184.755,359.746Z" transform="translate(-161.348 -347.764)"/><path class="m" d="M181.146,348.967a7.86,7.86,0,0,1,4.338,6.063c.394,2.806-.152,6.074-.4,9.011-.122,1.426-1.271,2.775-1.115,3.953.235,1.781.783,1.6,1.233,1.506a.989.989,0,0,1,.211-.021,9.717,9.717,0,0,1-5.881,4.015c5.116-5.269,5.834-12.145,3.835-19.823C182.531,350.476,181.407,349.223,181.146,348.967Z" transform="translate(-161.453 -347.9)"/><path class="j" d="M174.782,357.821a.481.481,0,0,0-.246-.581,10.446,10.446,0,0,0-1.622.079,1.174,1.174,0,0,0-.464.088c-.192.1-.449.617.049.546C173.107,357.867,173.939,357.963,174.782,357.821Z" transform="translate(-162.357 -346.878)"/><path class="j" d="M179.531,357.821a.483.483,0,0,1,.246-.581,10.446,10.446,0,0,1,1.622.079,1.163,1.163,0,0,1,.463.088c.193.1.451.617-.048.546C181.207,357.867,180.374,357.963,179.531,357.821Z" transform="translate(-161.455 -346.878)"/><g transform="translate(9.781 13.252)"><path class="o" d="M174.845,364c1.945-.04,2.775-.03,4.826,0-.648,1.365-1.253,2.118-2.369,2.118S175.493,365.362,174.845,364Z" transform="translate(-171.812 -359.298)"/><path class="j" d="M173.609,359.838a.862.862,0,1,1-.862.863A.862.862,0,0,1,173.609,359.838Z" transform="translate(-172.072 -359.808)"/><path class="j" d="M172.146,360.442a4.84,4.84,0,0,1,3.11,0S173.447,359.023,172.146,360.442Z" transform="translate(-172.146 -359.812)"/><g transform="translate(7.781)"><path class="j" d="M180.567,359.838a.862.862,0,1,0,.862.863A.863.863,0,0,0,180.567,359.838Z" transform="translate(-178.993 -359.808)"/><path class="j" d="M182.182,360.442a4.844,4.844,0,0,0-3.111,0S180.881,359.023,182.182,360.442Z" transform="translate(-179.071 -359.812)"/></g></g></g></svg>