<svg xmlns="http://www.w3.org/2000/svg" xmlns:xlink="http://www.w3.org/1999/xlink" width="58.518" height="58.518" viewBox="0 0 58.518 58.518"><defs><style>.a,.b,.d,.e,.f,.g,.h,.i,.j,.k,.l{fill-rule:evenodd;}.a{fill:url(#a);}.b{fill:#a6754f;}.c,.f{fill:#d99662;}.d{fill:#29292a;}.e{fill:#141414;}.g{fill:#1a1a1a;}.h{fill:#c2468e;}.i{fill:#d1549d;}.j{fill:#936;}.k{fill:#ad4076;}.l{fill:#fff;}</style><linearGradient id="a" y1="0.5" x2="1" y2="0.5" gradientUnits="objectBoundingBox"><stop offset="0" stop-color="#b6c4ff"/><stop offset="1" stop-color="#c9ff15"/></linearGradient></defs><g transform="translate(0)"><path class="a" d="M545.383,341.927a29.259,29.259,0,1,1-29.258,29.258A29.259,29.259,0,0,1,545.383,341.927Z" transform="translate(-516.125 -341.927)"/><path class="b" d="M538.449,373.468h8.987v5.29l-2.549-.335-6.477-4.489Z" transform="translate(-513.227 -338.029)"/><rect class="c" width="7.683" height="6.096" transform="translate(25.854 35.439)"/><path class="d" d="M552.279,378.62s3.442.843,5.677,1.64c.773.276,1.265,1.2,1.654,2.006a24.91,24.91,0,0,1,1.276,5.761,29.323,29.323,0,0,1-6.451,4.573Z" transform="translate(-511.513 -337.392)"/><path class="e" d="M554.939,390.927l.7-2.427.207,1.892Q555.4,390.668,554.939,390.927Z" transform="translate(-511.184 -336.171)"/><path class="d" d="M533,378.62s-3.442.843-5.677,1.64c-.773.276-1.265,1.2-1.654,2.006a24.854,24.854,0,0,0-1.275,5.761,29.317,29.317,0,0,0,6.449,4.573Z" transform="translate(-514.96 -337.392)"/><path class="e" d="M529.489,390.926l-.7-2.426-.208,1.892Q529.029,390.667,529.489,390.926Z" transform="translate(-514.442 -336.171)"/><path class="d" d="M559.407,391.758c.734-4.428,1.429-8.5,1.837-11.173-4.082-1.5-8.105-3.383-12.4-3.669l-4.924.029-3.427-.02c-2.653-.017-11.248,2.616-13.5,3.545.433,2.647,1.1,6.809,1.775,11.35a29.271,29.271,0,0,0,30.636-.063Z" transform="translate(-514.637 -337.603)"/><path class="f" d="M540.044,352.174h7.061c3.706,0,7.248,3.066,6.737,6.737l-1.276,9.163a15.49,15.49,0,0,1-3.01,7.283,7.036,7.036,0,0,1-5.982,2.985h0a7.034,7.034,0,0,1-5.978-2.982,15.766,15.766,0,0,1-3.013-7.286l-1.275-9.163C532.8,355.24,536.339,352.174,540.044,352.174Z" transform="translate(-513.863 -340.661)"/><g transform="translate(22.837 23.836)"><path class="g" d="M538.413,363.255a.939.939,0,1,1-.938.939A.939.939,0,0,1,538.413,363.255Z" transform="translate(-536.18 -363.127)"/><path class="g" d="M536.322,363.972h4.1S538.038,362.1,536.322,363.972Z" transform="translate(-536.322 -363.141)"/></g><g transform="translate(32.482 23.836)"><path class="g" d="M546.672,363.255a.939.939,0,1,0,.939.939A.938.938,0,0,0,546.672,363.255Z" transform="translate(-544.804 -363.127)"/><path class="g" d="M549.009,363.972h-4.1S547.293,362.1,549.009,363.972Z" transform="translate(-544.906 -363.141)"/></g><path class="f" d="M535.1,361.969c-3.225-1.275-3.193,1.758-2.6,3.89a4.364,4.364,0,0,0,2.125,2.818C537.439,370.105,534.229,363.567,535.1,361.969Z" transform="translate(-513.995 -339.487)"/><path class="b" d="M533.632,362.386a1.908,1.908,0,0,1,.432.045,12.657,12.657,0,0,0,.455,3.218,16.5,16.5,0,0,1,.409,2.219c-.19.044-.919-.712-1.047-.88a4.287,4.287,0,0,1-.688-1.433,6.5,6.5,0,0,1-.266-2.166,1.584,1.584,0,0,1,.237-.8A.575.575,0,0,1,533.632,362.386Z" transform="translate(-513.906 -339.399)"/><path class="f" d="M550.177,361.1c3.224-1.275,3.192,1.758,2.6,3.891a4.37,4.37,0,0,1-2.126,2.817C547.839,369.236,551.049,362.7,550.177,361.1Z" transform="translate(-511.86 -339.595)"/><path class="b" d="M551.468,362.386a1.914,1.914,0,0,0-.431.045,12.557,12.557,0,0,1-.455,3.218,16.3,16.3,0,0,0-.409,2.219c.19.044.92-.712,1.046-.88a4.269,4.269,0,0,0,.69-1.433,6.5,6.5,0,0,0,.265-2.166,1.573,1.573,0,0,0-.237-.8A.575.575,0,0,0,551.468,362.386Z" transform="translate(-511.773 -339.399)"/><path class="g" d="M547.842,355.636s-3.812-.847-6.6.087c-7.474,2.507-6.209,6.045-6.91,7.07-.312.456.076,2.774.055,4.384-1.56-3.733-2.151-9.507-1.025-11.881,5.477-11.565,21.528-7.218,21.664,5.075a14.824,14.824,0,0,1-.489,3.985,3.463,3.463,0,0,1-1.565,2.236C553.158,361.37,550.348,359.462,547.842,355.636Z" transform="translate(-513.923 -341.109)"/><path class="h" d="M535.7,378a25.056,25.056,0,0,0-1.757-7.64,24.874,24.874,0,0,1-1.148-6.857c-.212-5.053.152-9.5,3.606-12.4a11.987,11.987,0,0,1,8.217-3.038c5.4,0,11.008,3.152,11.907,9.554.528,3.757-.2,8.136-.542,12.071-.165,1.91-1.7,3.716-1.494,5.3.316,2.385,1.049,2.143,1.653,2.015,1.045-.22,1.048.842.671,1.558-.893,1.7-1.193,3.379,1.03,3.819,4.206.833.57-.165,5.94,2.313,1.044.481.155,4.492.125,4.916s.462,1.145.639,1.674a1.613,1.613,0,0,1,.073.306,29.251,29.251,0,0,1-40.621-.2c.206-3.051.489-6.225,2.972-7.344,2.092-.944,4.151-1.353,5.908-2.021,1.611-.612,2.876-1.427,2.822-4.019Zm15-2.131a13.844,13.844,0,0,0,1.356-2.122,11.194,11.194,0,0,0,1.3-5.512c0-3.143-.407-6.521-1.928-8.709-3.187-4.58-9.383-5.166-13.061-.635-1.673,2.061-2.9,4.779-2.47,9.846a15.5,15.5,0,0,0,2.838,7.136,7.034,7.034,0,0,0,5.977,2.982h0A7.083,7.083,0,0,0,550.7,375.865Z" transform="translate(-515.008 -341.169)"/><path class="i" d="M558.949,379.891c.447.228,1.03.511,1.8.864,1.043.481.448,4.492.417,4.916s.462,1.145.64,1.674l.021.07a29.218,29.218,0,0,1-13.288,7.452,26.156,26.156,0,0,0,10.412-14.975Z" transform="translate(-511.975 -337.235)"/><path class="j" d="M548.536,393.408c.653-.478,1.388-1.053,2.154-1.716.1.293.2.64.283.988Q549.776,393.094,548.536,393.408Z" transform="translate(-511.975 -335.777)"/><path class="h" d="M553.631,388.927a25.653,25.653,0,0,1,.255,2.6l-.326.163Q553.609,390.328,553.631,388.927Z" transform="translate(-511.354 -336.118)"/><path class="k" d="M552.011,390.325q.342-.349.682-.719c.026.749.042,1.578.038,2.48-.285.126-.574.246-.864.364Q551.945,391.4,552.011,390.325Z" transform="translate(-511.564 -336.034)"/><path class="h" d="M556.659,390.5c.116-2.922.2-5.689.333-8.156.134,2.619.258,5.177.342,7.692Q557,390.27,556.659,390.5Z" transform="translate(-510.971 -336.932)"/><path class="j" d="M554.649,376.588a1.657,1.657,0,0,0,1.255,2.167l-11.059,14.122-2.136,2.136a17.531,17.531,0,0,1,1.835-3.5,25.6,25.6,0,0,0,2.035-3.7l-6.106,3.671,11.911-10.81-15.815,5.972S550.381,381.085,554.649,376.588Z" transform="translate(-513.454 -337.643)"/><path class="i" d="M536.654,358.235c.051-.066.1-.133.154-.2a7.923,7.923,0,0,1,12.737.2Z" transform="translate(-513.444 -340.321)"/><path class="k" d="M530.259,381.13c.981.158,3.516-1.758,5.48-1.758s2.662.027,2.662.027S536.824,381.7,530.259,381.13Z" transform="translate(-514.234 -337.299)"/><path class="i" d="M525.338,388.391a3.29,3.29,0,0,1,1.966-2.1c1.418-.5,3.267-.267,4.779-1.184l2.894-1.757s-1.013,1.568-1.861,2.584c-1.907,2.286-4.886.711-7.663,2.554Z" transform="translate(-514.842 -336.807)"/><path class="k" d="M533.641,392.948c1.88-.319,3.765-.857,5.729-1.251l-1.835-.543.078-2.144s-.751,2.5-5.572,3.318Q532.828,392.661,533.641,392.948Z" transform="translate(-514.014 -336.108)"/><path class="k" d="M533.274,364.05a19.165,19.165,0,0,1,4.3-13.072C534.972,355.018,533.928,359.807,533.274,364.05Z" transform="translate(-513.867 -340.808)"/><path class="k" d="M552.844,363.775c-.2-4.291-2.547-8.764-5.862-12.976a59.154,59.154,0,0,1,4.071,8.276,16.646,16.646,0,0,1,1.139,5.122C552.421,364.053,552.64,363.911,552.844,363.775Z" transform="translate(-512.167 -340.83)"/><path class="i" d="M548.008,349.335a10.531,10.531,0,0,1,5.812,8.124c.528,3.757-.2,8.136-.542,12.071-.165,1.91-1.7,3.716-1.494,5.3.316,2.385,1.049,2.143,1.653,2.015a1.308,1.308,0,0,1,.282-.029c-1.531,2.389-3.89,4.2-7.878,5.38,6.853-7.057,7.815-16.268,5.137-26.557C549.866,351.356,548.359,349.68,548.008,349.335Z" transform="translate(-512.308 -341.011)"/><path class="l" d="M539.509,370.232a22.467,22.467,0,0,0,6.586,0c-1.189,1.561-2.316,2.089-3.294,2.1C541.823,372.321,540.7,371.793,539.509,370.232Z" transform="translate(-513.091 -338.429)"/><g transform="translate(21.751 20.813)"><path class="g" d="M544.584,361.59c-.1-.276-.163-.464-.1-.579a11.393,11.393,0,0,1,2.591-.517,2.649,2.649,0,0,1,2.745,1.144,2.749,2.749,0,0,0-2.588-.471C546.049,361.417,544.762,362.068,544.584,361.59Z" transform="translate(-534.23 -360.451)"/><path class="g" d="M540.585,361.59c.1-.276.164-.464.106-.579a11.405,11.405,0,0,0-2.591-.517,2.65,2.65,0,0,0-2.745,1.144,2.749,2.749,0,0,1,2.588-.471C539.121,361.417,540.408,362.068,540.585,361.59Z" transform="translate(-535.355 -360.451)"/></g></g></svg>