<svg xmlns="http://www.w3.org/2000/svg" xmlns:xlink="http://www.w3.org/1999/xlink" width="58.515" height="58.515" viewBox="0 0 58.515 58.515"><defs><style>.a,.b,.c,.d,.f,.g,.h,.i,.j,.k,.l{fill-rule:evenodd;}.a{fill:url(#a);}.b,.e{fill:#ebe9f4;}.c{fill:#d6d4de;}.d{fill:#25725e;}.f{fill:#d99662;}.g{fill:#1a1a1a;}.h{fill:#32ad93;}.i{fill:#309e87;}.j{fill:#59bca8;}.k{fill:#47b59e;}.l{fill:#fff;}</style><linearGradient id="a" y1="0.5" x2="1" y2="0.5" gradientUnits="objectBoundingBox"><stop offset="0" stop-color="#b6c4ff"/><stop offset="1" stop-color="#e90054"/></linearGradient></defs><path class="a" d="M241.274,341.927a29.258,29.258,0,1,1-29.258,29.257A29.257,29.257,0,0,1,241.274,341.927Z" transform="translate(-212.016 -341.927)"/><g transform="translate(13.156 7.832)"><g transform="translate(23.526 28.377)"><path class="b" d="M244.663,374.153a28.323,28.323,0,0,1,3.528.947,5.028,5.028,0,0,1,2.211,1.274c.754,1.122,2.052,7.71,2.643,12.554.089.735.19,1.661.3,2.7a29.181,29.181,0,0,1-5.564,2.872l-.951-7.379Z" transform="translate(-244.663 -374.153)"/><path class="c" d="M247.656,393.754l-.944-7.222v-.009l-.019-.142-.957-5.848,1.038-.36,2.021,13.112C248.419,393.448,248.04,393.605,247.656,393.754Z" transform="translate(-244.53 -373.409)"/></g><path class="d" d="M231.986,361.6c1.357-2.689,3.858-5.343,6.784-5.574a5.6,5.6,0,0,1,3.243.7,10.333,10.333,0,0,1,3.5,3.288c.591.836.313,2.525.278,3.584a22.728,22.728,0,0,1-.891,5.254c-.061.4-2.457,7.343-2.457,7.343s-2.489,5.929-3.534,7.281a21.621,21.621,0,0,1-1.751,2.044,31.962,31.962,0,0,1-5.846-16.666C231.195,366.372,231.119,363.317,231.986,361.6Z" transform="translate(-222.796 -348.019)"/><g transform="translate(12.726 24.099)"><rect class="e" width="5.149" height="4.876" transform="translate(0.45)"/><path class="c" d="M235.078,370.346H241.1v4.231l-1.708-.267-4.341-3.592Z" transform="translate(-235.051 -370.346)"/></g><g transform="translate(0 28.377)"><path class="b" d="M232.4,374.153a28.267,28.267,0,0,0-3.528.947,5.021,5.021,0,0,0-2.211,1.274c-.755,1.122-2.053,7.71-2.643,12.554-.09.735-.19,1.661-.3,2.7a29.112,29.112,0,0,0,5.564,2.871l.949-7.377Z" transform="translate(-223.725 -374.153)"/><path class="c" d="M228.79,393.754l.944-7.222v-.009l.018-.142.958-5.848-1.039-.36-2.02,13.111Q228.215,393.53,228.79,393.754Z" transform="translate(-223.24 -373.409)"/></g><g transform="translate(5.389 39.608)"><path class="b" d="M228.521,393.2l.006-.453.256-8.566c3.738-.021,6.53-.033,10.257-.033s6.6.239,10.338.261l.255,8.566,0,.343a29.361,29.361,0,0,1-21.117-.118Z" transform="translate(-228.521 -384.149)"/><path class="c" d="M238.972,394.24l1.819-2.289.121,2.16C240.271,394.176,239.625,394.217,238.972,394.24Z" transform="translate(-227.229 -383.185)"/><path class="c" d="M235.077,394.068l.115-2.117L237,394.225Q236.028,394.176,235.077,394.068Z" transform="translate(-227.711 -383.185)"/></g><path class="b" d="M228.209,394.426l.1-1.535c.615-12.033-.7-17.24-.149-17.823.316-.149,7.818-2.07,8.176-2.073a7.723,7.723,0,0,0,2.881.517h.012a7.722,7.722,0,0,0,2.88-.517c3.858.82,5.366,1.163,8.175,2.663.553.584-.762,5.2-.148,17.234l.1,1.593a29.329,29.329,0,0,1-22.03-.058Z" transform="translate(-223.194 -345.919)"/><path class="f" d="M235.708,352.167h6c3.149,0,6.161,2.607,5.727,5.727l-1.085,7.789a13.151,13.151,0,0,1-2.558,6.19,5.977,5.977,0,0,1-5.084,2.538h0a5.975,5.975,0,0,1-5.081-2.535,13.418,13.418,0,0,1-2.562-6.193l-1.084-7.789C229.546,354.774,232.557,352.167,235.708,352.167Z" transform="translate(-222.957 -348.493)"/><path class="g" d="M242.337,355.11a18.722,18.722,0,0,1-4.954,2.974c-6.353,2.13-6.077,2.567-6.673,3.438-.265.388.207,2.029.189,3.4-1.326-3.173-1.828-8.082-.873-10.1,4.656-9.831,18.3-6.135,18.416,4.313a12.586,12.586,0,0,1-.416,3.388,2.953,2.953,0,0,1-1.33,1.9C246.853,359.984,243.356,359.231,242.337,355.11Z" transform="translate(-223.007 -348.875)"/><path class="h" d="M226.761,369.577a35.142,35.142,0,0,1,1.572-9.727,33.882,33.882,0,0,1,3.5-7.954c1.475-2.1,4.551-2.963,7.022-3a9.071,9.071,0,0,1,5.829,1.525c3.256,2.352,4.611,6.847,4.564,11.41-.062,5.9-.492,11.183-.124,13.211s1.475,2.827,1.475,3.5a59.545,59.545,0,0,1,.184,6.391c-.124,3.5.369,8.294-.553,11.736q-.137.506-.294.972a29.365,29.365,0,0,1-18.052.943c-.064-.468-.133-1-.211-1.608-.553-4.3-1.907-3.412-2.109-4.883a5.959,5.959,0,0,0-.469-2.061c-2.619-5.772-2.545-15.445-2.338-20.461ZM239.335,356.9c-2.2.173-6.065,2.89-6.919,5.158-.872,2.318-.639,5.547-.542,7.665a31.962,31.962,0,0,0,5.846,16.666,21.629,21.629,0,0,0,1.751-2.044c1.046-1.352,3.534-7.281,3.534-7.281s2.4-6.944,2.457-7.343a22.731,22.731,0,0,0,.891-5.254c.036-1.06.313-2.748-.278-3.584a10.334,10.334,0,0,0-3.5-3.288A5.6,5.6,0,0,0,239.335,356.9Z" transform="translate(-223.361 -348.897)"/><path class="i" d="M247.907,365.866a45.472,45.472,0,0,0,.037,7.082,6.322,6.322,0,0,0,.154.652c-.246,3.424-.476,6.068-.522,9.856-.039,3.282-.357,9.835-1.724,13.036a29.319,29.319,0,0,1-7.572.992c-.687,0-1.367-.026-2.042-.073.178-.063.372-.128.584-.191,2.427-.738,3.81-1.229,5.192-2.643s1.936-3.81,2.919-10.815C245.71,378.234,246.6,370.488,247.907,365.866Z" transform="translate(-222.178 -346.8)"/><path class="j" d="M247.041,372.749c.455,1.557,1.321,2.253,1.321,2.851a59.548,59.548,0,0,1,.184,6.391c-.124,3.5.369,8.294-.553,11.736q-.137.506-.294.972a28.907,28.907,0,0,1-2.9.943c1.366-3.2,1.684-9.754,1.724-13.036C246.565,378.818,246.795,376.173,247.041,372.749Z" transform="translate(-221.121 -345.95)"/><path class="j" d="M231.089,364.521s-.953-5.376.062-8.141,2.211-4.025,3.779-4.824a7.007,7.007,0,0,1,4.3-1.013,8.2,8.2,0,0,1,4.978,2.028c.891,1.044,2.827,2.243,2.98,5.745s.122,9.924-1.352,13.918a33.515,33.515,0,0,1-6.01,10.483h0c1.162-2.229,2.683-5.852,2.683-5.852s2.4-6.944,2.457-7.343a19.973,19.973,0,0,0,.518-5.3c-.2-4.418-3.369-6.007-6.994-5.941-2.893.053-5.37.806-6.59,3.638a11.2,11.2,0,0,0-.537,3.479C231.186,364.84,231.089,364.521,231.089,364.521Z" transform="translate(-222.865 -348.697)"/><path class="k" d="M226.761,369.311a35.143,35.143,0,0,1,1.572-9.727,33.836,33.836,0,0,1,3.508-7.962c.1-.124.555-.647.624-.564.317.38.317,1.691.762,2.235a11,11,0,0,0-1.58,3.021c-1.015,2.765-.062,8.141-.062,8.141s.1.319.274.872c-.094,1.349.829,4.325,1.2,5.581,2.247,7.563,1.411,10.422,4.66,15.216,0,0-1.589,3.156-6.5,6.045l-1.11.652a1.506,1.506,0,0,1-.538-.989,5.959,5.959,0,0,0-.469-2.061C226.48,384,226.554,374.326,226.761,369.311Z" transform="translate(-223.361 -348.632)"/><path class="i" d="M226.761,369.034a35.142,35.142,0,0,1,1.572-9.727l.035-.106.016-.051.019-.056.033-.1,0-.007h0l.093-.281.007-.02,0-.011.036-.106.012-.036.022-.067.03-.087.006-.017.036-.1.01-.031.026-.073.027-.079.009-.025.036-.1.009-.026.027-.078.026-.074.01-.028.037-.1.029-.082.007-.019.024-.066.013-.036.037-.1,0-.013.033-.087.021-.061.015-.04.037-.1,0-.007.035-.092.02-.055.017-.045.038-.1h0l.037-.1.018-.048.019-.048.036-.094v0l.038-.1.017-.042.02-.055.035-.087,0-.009.037-.1.015-.036.024-.06.033-.08.006-.015.038-.094.011-.03.026-.064.03-.073.008-.02.038-.093.01-.025.028-.067.028-.067.01-.024.038-.091.008-.02.03-.072.026-.061.012-.029.038-.089.006-.014.033-.076.024-.055.015-.034.038-.089,0-.008.035-.079.022-.049.017-.038.037-.085,0,0,.037-.082.019-.043.019-.043.037-.083v0l.038-.083.017-.037.021-.046.035-.076,0-.006.038-.082.016-.031.024-.049.033-.069,0-.012.039-.079.012-.027,0-.006.054-.11.008-.016.038-.076.01-.022.028-.055c0,.012-1.131,10.468-1.009,16.731s.246,9.831.492,12.841.368,5.07,1.566,5.776a9.266,9.266,0,0,0,2.682.971,23.5,23.5,0,0,1-3.235,2.286l-1.11.652v0l-.011-.01-.012-.012-.011-.012-.012-.01,0-.006-.008-.007-.011-.012-.007-.007-.006-.006-.011-.011-.008-.008,0,0-.011-.012-.01-.01,0,0,0,0-.019-.019h0l-.012-.012-.01-.012h0l-.01-.01-.01-.012,0,0-.009-.01-.01-.012,0,0-.007-.008-.01-.013,0-.006-.006-.007-.01-.012-.006-.008,0,0-.01-.015-.006-.009,0,0-.01-.012-.008-.011v0l-.009-.013-.009-.012h0l-.018-.029h0l-.008-.013-.008-.013,0,0-.007-.011-.008-.016,0,0h0l-.012-.025,0-.007-.012-.027-.006-.013-.008-.017,0-.011,0,0-.011-.027,0-.006h0v0l-.01-.029v0h0v0l-.012-.033v0c-.011-.036-.022-.074-.033-.113l0-.01,0-.011,0-.02,0-.013v-.008l-.008-.037h0v-.007c-.006-.03-.01-.06-.015-.091a5.96,5.96,0,0,0-.469-2.061C226.48,383.723,226.554,374.05,226.761,369.034Z" transform="translate(-223.361 -348.355)"/><path class="i" d="M230.684,359.5a7.687,7.687,0,0,1,3.46-4.835c-2.615,2.775-3.106,4.5-3.388,6.536C230.715,360.667,230.687,360.088,230.684,359.5Z" transform="translate(-222.865 -348.184)"/><path class="i" d="M246.024,359.954a9.409,9.409,0,0,0-5.461-5.739c2.7.944,4.728,4.476,5.455,7.612C246.03,361.176,246.03,360.548,246.024,359.954Z" transform="translate(-221.644 -348.24)"/><path class="l" d="M235.165,367.266c2.18-.046,3.111-.036,5.41,0-.727,1.53-1.4,2.373-2.655,2.373S235.892,368.8,235.165,367.266Z" transform="translate(-222.311 -346.631)"/><path class="g" d="M235.812,360.559c.055-.224.136-.526.062-.592a3.592,3.592,0,0,0-2.1-.251c-.927.106-1.412.233-1.588.946.129.113.963-.137,1.817-.119C234.967,360.567,235.715,360.944,235.812,360.559Z" transform="translate(-222.679 -347.565)"/><path class="g" d="M239.829,360.559c-.056-.224-.136-.526-.062-.592a3.6,3.6,0,0,1,2.1-.251c.927.106,1.413.233,1.586.946-.128.113-.962-.137-1.816-.119C240.674,360.567,239.926,360.944,239.829,360.559Z" transform="translate(-221.746 -347.565)"/><g transform="translate(9.454 15.366)"><path class="g" d="M233.778,362.6a.966.966,0,1,1-.966.966A.967.967,0,0,1,233.778,362.6Z" transform="translate(-232.056 -362.57)"/><path class="g" d="M232.139,363.281a5.417,5.417,0,0,1,3.486,0S233.6,361.69,232.139,363.281Z" transform="translate(-232.139 -362.574)"/></g><g transform="translate(18.177 15.366)"><path class="g" d="M241.578,362.6a.966.966,0,1,0,.967.966A.966.966,0,0,0,241.578,362.6Z" transform="translate(-239.815 -362.57)"/><path class="g" d="M243.389,363.281a5.417,5.417,0,0,0-3.486,0S241.931,361.69,243.389,363.281Z" transform="translate(-239.903 -362.574)"/></g></g></svg>