<svg xmlns="http://www.w3.org/2000/svg" xmlns:xlink="http://www.w3.org/1999/xlink" width="58.514" height="58.515" viewBox="0 0 58.514 58.515"><defs><style>.a,.b,.c,.d,.f,.g,.h,.i,.j,.k,.l,.m,.n{fill-rule:evenodd;}.a{fill:url(#a);}.b,.e{fill:#dc2232;}.c{fill:#b8212f;}.d{fill:#a61f2a;}.f{fill:#c71f2e;}.g{fill:#d99662;}.h{fill:#a6754f;}.i{fill:#1a1a1a;}.j{fill:#e62c3c;}.k{fill:#f13647;}.l{fill:#ca3340;}.m{fill:#da3341;}.n{fill:#fff;}</style><linearGradient id="a" y1="0.5" x2="1" y2="0.5" gradientUnits="objectBoundingBox"><stop offset="0" stop-color="#b6c4ff"/><stop offset="1" stop-color="#c9ff15"/></linearGradient></defs><path class="a" d="M302.1,341.927a29.258,29.258,0,1,1-29.257,29.257A29.256,29.256,0,0,1,302.1,341.927Z" transform="translate(-272.838 -341.927)"/><g transform="translate(10.712 7.782)"><g transform="translate(25.953 29.921)"><path class="b" d="M305.47,375.483s4,.674,6.607,1.312A3.536,3.536,0,0,1,314,378.4c1.025,1.458,1.9,6.266,2.606,11.266a29.248,29.248,0,0,1-7,4.261Z" transform="translate(-305.47 -375.483)"/><path class="c" d="M309.3,392.95l-1.347-6,1.5-3.563,1.574,8.75Q310.184,392.571,309.3,392.95Z" transform="translate(-305.163 -374.506)"/></g><path class="d" d="M293.084,362.282c1.435-2.844,4.08-5.652,7.174-5.9a5.934,5.934,0,0,1,3.429.737,10.922,10.922,0,0,1,3.7,3.479c.624.882.329,2.667.293,3.789a24.1,24.1,0,0,1-.943,5.556c-.065.422-2.6,7.765-2.6,7.765s-2.631,6.27-3.736,7.7a23.108,23.108,0,0,1-1.853,2.162,33.825,33.825,0,0,1-6.182-17.626C292.247,367.33,292.167,364.1,293.084,362.282Z" transform="translate(-281.146 -347.925)"/><rect class="e" width="6.499" height="5.157" transform="translate(15.585 25.483)"/><path class="f" d="M295.771,371.533h7.6v4.475l-2.157-.283-5.48-3.8Z" transform="translate(-280.72 -346.05)"/><g transform="translate(0 29.921)"><path class="b" d="M293.51,375.483s-4,.674-6.607,1.312a3.538,3.538,0,0,0-1.926,1.6c-1.025,1.458-1.9,6.266-2.606,11.266a29.256,29.256,0,0,0,7,4.261Z" transform="translate(-282.372 -375.483)"/><path class="c" d="M288.789,392.95l1.347-6-1.5-3.563-1.573,8.75C287.625,392.427,288.2,392.7,288.789,392.95Z" transform="translate(-281.793 -374.506)"/></g><path class="b" d="M315.132,377.07c-3.267-1.2-7.348-1.376-10.783-1.6l-3.939.022-2.742-.016c-2.121-.013-9.863.744-11.663,1.487.566,6.5.89,11.7,1.035,16.079a29.293,29.293,0,0,0,26.973-.062C314.2,388.681,314.558,383.522,315.132,377.07Z" transform="translate(-281.923 -345.564)"/><path class="g" d="M292.576,361.115c-2.9-1.146-2.871,1.58-2.337,3.5a3.927,3.927,0,0,0,1.912,2.533C294.678,368.428,291.791,362.552,292.576,361.115Z" transform="translate(-281.434 -347.371)"/><path class="h" d="M291.255,361.489a1.635,1.635,0,0,1,.388.04,11.337,11.337,0,0,0,.41,2.893,14.941,14.941,0,0,1,.367,1.993c-.172.039-.828-.638-.942-.79a3.853,3.853,0,0,1-.619-1.288,5.821,5.821,0,0,1-.238-1.947,1.423,1.423,0,0,1,.212-.718A.518.518,0,0,1,291.255,361.489Z" transform="translate(-281.354 -347.292)"/><path class="g" d="M306.126,361.115c2.9-1.146,2.871,1.58,2.336,3.5a3.926,3.926,0,0,1-1.911,2.533C304.024,368.428,306.91,362.552,306.126,361.115Z" transform="translate(-279.515 -347.371)"/><path class="h" d="M307.288,361.489a1.638,1.638,0,0,0-.389.04,11.332,11.332,0,0,1-.409,2.893,14.755,14.755,0,0,0-.367,1.993c.171.039.827-.638.94-.79a3.835,3.835,0,0,0,.62-1.288,5.878,5.878,0,0,0,.238-1.947,1.423,1.423,0,0,0-.212-.718A.521.521,0,0,0,307.288,361.489Z" transform="translate(-279.437 -347.292)"/><path class="g" d="M297.018,352.31h6.347c3.33,0,6.516,2.757,6.056,6.055l-1.147,8.237a13.914,13.914,0,0,1-2.707,6.546,6.319,6.319,0,0,1-5.376,2.683h0a6.319,6.319,0,0,1-5.372-2.68,14.18,14.18,0,0,1-2.71-6.549l-1.147-8.237C290.5,355.066,293.688,352.31,297.018,352.31Z" transform="translate(-281.316 -348.426)"/><path class="i" d="M304.029,355.422a19.76,19.76,0,0,1-5.237,3.145c-6.719,2.252-6.428,2.715-7.057,3.636-.281.41.218,2.145.2,3.592-1.4-3.355-1.934-8.545-.922-10.68,4.924-10.4,19.352-6.488,19.474,4.563a13.314,13.314,0,0,1-.439,3.582,3.124,3.124,0,0,1-1.407,2.01C308.806,360.576,305.106,359.781,304.029,355.422Z" transform="translate(-281.369 -348.829)"/><path class="j" d="M287.557,370.72a37.177,37.177,0,0,1,1.663-10.288,35.9,35.9,0,0,1,3.7-8.41c1.562-2.221,4.812-3.134,7.427-3.167a9.573,9.573,0,0,1,6.165,1.61c3.444,2.487,4.876,7.24,4.826,12.066-.065,6.238-.52,11.827-.13,13.971s1.56,2.99,1.56,3.7a62.989,62.989,0,0,1,.2,6.758c-.1,2.88.191,6.585-.134,9.8a29.338,29.338,0,0,1-20.262,1.789c-.657-3.248-1.851-2.61-2.044-4.019a6.324,6.324,0,0,0-.5-2.18c-2.769-6.1-2.691-16.332-2.473-21.636Zm13.3-13.407c-2.329.184-6.413,3.057-7.317,5.456-.922,2.451-.676,5.866-.573,8.106a33.829,33.829,0,0,0,6.182,17.626A23.117,23.117,0,0,0,301,386.339c1.1-1.43,3.736-7.7,3.736-7.7s2.534-7.343,2.6-7.765a24.105,24.105,0,0,0,.943-5.556c.036-1.121.33-2.907-.293-3.789a10.922,10.922,0,0,0-3.7-3.479A5.934,5.934,0,0,0,300.855,357.314Z" transform="translate(-281.743 -348.853)"/><path class="f" d="M309.23,366.8a48.042,48.042,0,0,0,.038,7.489,6.633,6.633,0,0,0,.163.69c-.26,3.621-.5,6.418-.553,10.422a66.321,66.321,0,0,1-.865,10.335,29.158,29.158,0,0,1-4.842,1.238c1.337-1.52,1.916-4.142,2.914-11.248C306.906,379.876,307.847,371.685,309.23,366.8Z" transform="translate(-279.801 -346.636)"/><path class="k" d="M308.9,374.075c.481,1.647,1.4,2.382,1.4,3.015a62.993,62.993,0,0,1,.2,6.758c-.1,2.88.191,6.585-.134,9.8a29.041,29.041,0,0,1-2.876,1.183,66.321,66.321,0,0,0,.865-10.335C308.395,380.493,308.639,377.7,308.9,374.075Z" transform="translate(-279.269 -345.736)"/><path class="l" d="M292.134,365.374s-1.007-5.684.065-8.609,2.339-4.256,4-5.1a7.4,7.4,0,0,1,4.548-1.072c1.917.13,4.321,1.039,5.264,2.144s2.989,2.371,3.152,6.075.129,10.494-1.43,14.719a35.383,35.383,0,0,1-6.356,11.084h0c1.23-2.355,2.838-6.186,2.838-6.186,1.138-3.3,3.8-9.793,3.542-13.321-.353-4.89-3.957-6.4-7.792-6.336-3.058.055-5.679.851-6.97,3.847a11.823,11.823,0,0,0-.567,3.678C292.239,365.711,292.134,365.374,292.134,365.374Z" transform="translate(-281.219 -348.642)"/><path class="k" d="M287.557,370.439a37.177,37.177,0,0,1,1.663-10.288,35.77,35.77,0,0,1,3.709-8.419c.106-.129.588-.683.66-.6.337.4.335,1.789.806,2.364a11.656,11.656,0,0,0-1.671,3.2c-1.072,2.925-.065,8.61-.065,8.61s.1.336.29.92c-.1,1.428.876,4.574,1.272,5.9,2.376,8,1.492,11.023,4.927,16.093,0,0-1.68,3.336-6.879,6.39l-1.173.69a1.583,1.583,0,0,1-.57-1.045,6.324,6.324,0,0,0-.5-2.18C287.262,385.973,287.339,375.743,287.557,370.439Z" transform="translate(-281.743 -348.572)"/><path class="m" d="M287.557,370.147a37.177,37.177,0,0,1,1.663-10.288l.037-.111.017-.053.019-.06.035-.1,0-.007v0l.1-.3.007-.021,0-.012.037-.11.013-.039.024-.071.031-.091.007-.018.038-.11.011-.033.027-.078.028-.084.009-.024.038-.109.01-.028.029-.081.027-.078.01-.03.039-.108.031-.087.007-.021.026-.07.013-.037.038-.107.006-.014.034-.092.024-.065.016-.042.038-.106,0-.008.037-.1.02-.057.018-.048.039-.1v0l.039-.1.019-.051.02-.052.038-.1v0l.04-.1.017-.044.022-.058.036-.091,0-.01.04-.1.015-.038.025-.062.034-.087.007-.015.04-.1.012-.031.028-.067.03-.078.009-.021.04-.1.01-.025.03-.073.029-.071.011-.027.04-.1.008-.019.031-.076.028-.065.013-.03.04-.1.006-.013.035-.08L291,355.1l.015-.036.042-.093,0-.008.037-.084.022-.052.018-.04.04-.091v0l.039-.089.02-.046.02-.044.039-.088v0l.042-.088.018-.039.022-.048.036-.08,0-.008.04-.086.016-.034.025-.052.035-.074.006-.011.04-.084.013-.028,0-.006.056-.118.008-.015.04-.082.011-.024.029-.058c0,.015-1.2,11.071-1.066,17.694s.26,10.4.52,13.58.389,5.362,1.656,6.109a9.809,9.809,0,0,0,2.836,1.027,24.957,24.957,0,0,1-3.421,2.417l-1.173.689h0l-.01-.011-.013-.012-.012-.012-.013-.012-.006-.006-.007-.007-.012-.013-.007-.007-.006-.006-.012-.012-.008-.008,0,0-.012-.013-.009-.01,0,0,0,0-.019-.02h0l-.012-.013-.011-.012h0l-.011-.012-.01-.013,0,0-.009-.011-.01-.012,0,0-.007-.009-.011-.013,0-.007-.006-.007-.01-.014-.007-.008,0-.006-.01-.015-.007-.009,0,0-.01-.015-.008-.012,0,0-.01-.013-.008-.015h0l-.019-.029h0l-.008-.015-.009-.016,0,0-.007-.013-.008-.015,0-.006v0l-.012-.025,0-.008-.013-.029-.007-.012-.008-.018-.006-.013,0,0-.011-.027,0-.007v0l-.011-.029,0,0h0v0l-.012-.035v0c-.011-.038-.024-.08-.034-.121l0-.01,0-.011-.006-.022,0-.013v-.008l-.008-.04h0v-.007c-.006-.031-.011-.064-.016-.1a6.324,6.324,0,0,0-.5-2.18C287.262,385.681,287.339,375.45,287.557,370.147Z" transform="translate(-281.743 -348.28)"/><path class="d" d="M291.706,360.066a8.128,8.128,0,0,1,3.66-5.112c-2.765,2.935-3.284,4.756-3.583,6.912C291.741,361.3,291.71,360.687,291.706,360.066Z" transform="translate(-281.218 -348.099)"/><path class="d" d="M307.928,360.545c-1.062-2.7-3.038-5.185-5.774-6.07,2.855,1,5,4.735,5.768,8.051C307.935,361.834,307.936,361.172,307.928,360.545Z" transform="translate(-279.927 -348.158)"/><g transform="translate(12.285 12.783)"><path class="n" d="M296.032,368.882c2.843-.048,4.058-.036,7.055,0-1.272,1.671-2.48,2.237-3.528,2.247C298.513,371.12,297.305,370.553,296.032,368.882Z" transform="translate(-292.969 -359.165)"/><path class="i" d="M297.61,361.178c.072-.234.134-.375.058-.448a3.106,3.106,0,0,0-2.163-.484,2.387,2.387,0,0,0-2.2,1.212,3.16,3.16,0,0,1,2.437-.5C296.763,361.018,297.489,361.581,297.61,361.178Z" transform="translate(-293.306 -360.23)"/><path class="i" d="M301.216,361.178c-.07-.234-.133-.375-.058-.448a3.111,3.111,0,0,1,2.164-.484,2.387,2.387,0,0,1,2.2,1.212,3.159,3.159,0,0,0-2.437-.5C302.064,361.018,301.339,361.581,301.216,361.178Z" transform="translate(-292.34 -360.23)"/><g transform="translate(0.134 3.62)"><path class="i" d="M295.159,363.482a1.023,1.023,0,1,1-1.021,1.024A1.024,1.024,0,0,1,295.159,363.482Z" transform="translate(-293.337 -363.448)"/><path class="i" d="M293.425,364.2a5.747,5.747,0,0,1,3.688,0S294.968,362.518,293.425,364.2Z" transform="translate(-293.425 -363.452)"/></g><g transform="translate(9.359 3.62)"><path class="i" d="M303.408,363.482a1.023,1.023,0,1,0,1.022,1.024A1.024,1.024,0,0,0,303.408,363.482Z" transform="translate(-301.543 -363.448)"/><path class="i" d="M305.324,364.2a5.747,5.747,0,0,0-3.688,0S303.782,362.518,305.324,364.2Z" transform="translate(-301.636 -363.452)"/></g></g></g></svg>