<svg xmlns="http://www.w3.org/2000/svg" xmlns:xlink="http://www.w3.org/1999/xlink" width="58.515" height="58.515" viewBox="0 0 58.515 58.515"><defs><style>.a,.c,.d,.e,.f,.g,.h,.i,.j,.k,.l{fill-rule:evenodd;}.a{fill:url(#a);}.b{fill:#29a080;}.c{fill:#27876d;}.d{fill:#e3ceb1;}.e{fill:#ad9d88;}.f{fill:#ffdba1;}.g{fill:#1a1a1a;}.h{fill:#fff;}.i{fill:#eddfcc;}.j{fill:#f1e5d6;}.k{fill:#d0bfa8;}.l{fill:#c1b199;}</style><linearGradient id="a" y1="0.5" x2="1" y2="0.5" gradientUnits="objectBoundingBox"><stop offset="0" stop-color="#00e9e6"/><stop offset="1" stop-color="#004cbf"/></linearGradient></defs><path class="a" d="M423.739,341.927a29.258,29.258,0,1,1-29.258,29.257A29.257,29.257,0,0,1,423.739,341.927Z" transform="translate(-394.481 -341.927)"/><g transform="translate(8.874 7.38)"><rect class="b" width="7.682" height="6.095" transform="translate(16.837 28.839)"/><path class="c" d="M416.806,374.162h8.986v5.289l-2.549-.333-6.477-4.49Z" transform="translate(-400.601 -345.323)"/><path class="d" d="M430.636,379.315s3.44.843,5.676,1.639c.774.276,1.265,1.2,1.654,2.007a21.9,21.9,0,0,1,1.175,5.074,29.307,29.307,0,0,1-6.46,4.537Z" transform="translate(-398.887 -344.686)"/><path class="e" d="M433.537,390.687l.434-1.493.138,1.155C433.919,390.464,433.729,390.577,433.537,390.687Z" transform="translate(-398.528 -343.465)"/><path class="d" d="M411.341,379.315s-3.44.843-5.676,1.639c-.774.276-1.265,1.2-1.654,2.007a21.9,21.9,0,0,0-1.175,5.074,29.33,29.33,0,0,0,6.46,4.536Z" transform="translate(-402.323 -344.686)"/><path class="e" d="M407.567,390.687l-.434-1.493L407,390.349Q407.279,390.521,407.567,390.687Z" transform="translate(-401.808 -343.465)"/><path class="d" d="M437.824,391.637c.726-4.11,1.394-7.848,1.777-10.358-4.083-1.5-8.107-3.383-12.4-3.669l-4.925.031-3.427-.021c-2.652-.016-11.248,2.616-13.5,3.545.406,2.489,1.051,6.319,1.731,10.544a29.273,29.273,0,0,0,30.739-.072Z" transform="translate(-402.011 -344.897)"/><path class="f" d="M418.406,352.775h7.061c3.706,0,7.247,3.069,6.737,6.739l-1.275,9.163a15.491,15.491,0,0,1-3.011,7.281,7.031,7.031,0,0,1-5.981,2.985h0a7.034,7.034,0,0,1-5.979-2.981,15.778,15.778,0,0,1-3.013-7.285l-1.275-9.163C411.157,355.844,414.7,352.775,418.406,352.775Z" transform="translate(-401.237 -347.966)"/><path class="g" d="M426.2,356.239a68.629,68.629,0,0,0-8.2,1.792c-7.474,2.506-4.773,4.727-5.474,5.751-.312.456.244,2.388.222,4-1.56-3.735-2.151-9.507-1.026-11.882,5.477-11.566,21.528-7.218,21.664,5.076a14.787,14.787,0,0,1-.489,3.985,3.473,3.473,0,0,1-1.566,2.236C431.52,361.973,428.7,359.873,426.2,356.239Z" transform="translate(-401.296 -348.414)"/><g transform="translate(13.532 17.426)"><path class="g" d="M416.514,364.118a.939.939,0,1,1-.938.938A.939.939,0,0,1,416.514,364.118Z" transform="translate(-414.281 -363.99)"/><path class="g" d="M414.423,364.835h4.1S416.139,362.965,414.423,364.835Z" transform="translate(-414.423 -364.004)"/></g><g transform="translate(23.764 17.426)"><path class="g" d="M425.3,364.118a.939.939,0,1,0,.939.938A.939.939,0,0,0,425.3,364.118Z" transform="translate(-423.427 -363.99)"/><path class="g" d="M427.632,364.835h-4.1S425.916,362.965,427.632,364.835Z" transform="translate(-423.529 -364.004)"/></g><path class="h" d="M417.309,370.395a26.947,26.947,0,0,0,7.849,0c-1.417,1.858-2.761,2.489-3.925,2.5C420.069,372.884,418.725,372.253,417.309,370.395Z" transform="translate(-400.534 -345.788)"/><path class="g" d="M426.2,356.33s-3.815-.848-6.6.087c-7.473,2.507-6.208,6.044-6.909,7.068-.313.456.078,2.775.055,4.384-1.56-3.733-2.151-9.506-1.026-11.88,5.478-11.566,21.528-7.219,21.665,5.076a14.883,14.883,0,0,1-.489,3.985,3.486,3.486,0,0,1-1.566,2.236C431.515,362.064,428.7,360.155,426.2,356.33Z" transform="translate(-401.297 -348.403)"/><path class="i" d="M414.05,378.43a25,25,0,0,0-1.757-7.639,24.843,24.843,0,0,1-1.147-6.859c-.213-5.053.152-9.5,3.6-12.4a11.99,11.99,0,0,1,8.217-3.037c5.4,0,11.008,3.153,11.908,9.554.527,3.757-.2,8.136-.543,12.071-.164,1.909-1.7,3.717-1.493,5.3.316,2.384,1.051,2.142,1.652,2.016,1.046-.22,1.049.839.672,1.557-.893,1.7-1.193,3.38,1.03,3.819,4.206.831.57-.164,5.942,2.313,1.04.482.153,4.492.122,4.917a5.74,5.74,0,0,0,.61,1.59,29.252,29.252,0,0,1-40.487-.27c.208-2.9.581-5.825,2.94-6.889,2.092-.944,4.152-1.352,5.909-2.02,1.61-.612,2.875-1.429,2.821-4.02Zm15-2.133a13.749,13.749,0,0,0,1.356-2.121,11.2,11.2,0,0,0,1.306-5.513c-.006-3.142-.407-6.519-1.929-8.709-3.186-4.579-9.382-5.165-13.061-.634-1.673,2.062-2.9,4.779-2.47,9.847a15.515,15.515,0,0,0,2.839,7.135,7.033,7.033,0,0,0,5.977,2.982h0A7.082,7.082,0,0,0,429.053,376.3Z" transform="translate(-402.379 -348.495)"/><path class="j" d="M437.2,380.324c.449.227,1.031.51,1.8.864,1.04.482.446,4.492.416,4.917a4.069,4.069,0,0,0,.527,1.389,29.237,29.237,0,0,1-12.162,7.052,28.806,28.806,0,0,0,4.652-4.566A29.833,29.833,0,0,0,437.2,380.324Z" transform="translate(-399.24 -344.561)"/><path class="e" d="M427.776,393.087c.374-.3.764-.617,1.162-.962.054.166.112.351.166.542Q428.447,392.891,427.776,393.087Z" transform="translate(-399.24 -343.103)"/><path class="k" d="M431.985,389.359s.128.735.226,2.129l-.28.139C431.955,390.881,431.975,390.124,431.985,389.359Z" transform="translate(-398.727 -343.445)"/><path class="k" d="M430.364,390.759c.228-.234.456-.473.681-.72.021.613.036,1.279.038,1.993q-.41.18-.826.348C430.294,391.847,430.33,391.305,430.364,390.759Z" transform="translate(-398.934 -343.361)"/><path class="e" d="M435.033,390.431c.106-2.738.191-5.329.312-7.656.127,2.454.243,4.855.326,7.216Q435.354,390.215,435.033,390.431Z" transform="translate(-398.343 -344.258)"/><path class="e" d="M433,377.022a1.655,1.655,0,0,0,1.256,2.165L423.2,393.312l-2.136,2.135a17.536,17.536,0,0,1,1.835-3.5,25.55,25.55,0,0,0,2.036-3.7l-6.106,3.671,11.91-10.81-15.813,5.972S428.738,381.517,433,377.022Z" transform="translate(-400.828 -344.969)"/><path class="l" d="M415.011,358.669c.051-.069.1-.134.153-.2a7.924,7.924,0,0,1,12.738.2Z" transform="translate(-400.818 -347.647)"/><path class="l" d="M408.616,381.823c.981.161,3.515-1.757,5.479-1.757s2.662.026,2.662.026S415.18,382.393,408.616,381.823Z" transform="translate(-401.608 -344.593)"/><path class="j" d="M403.917,388.518a3.13,3.13,0,0,1,1.716-1.53c1.418-.5,3.267-.267,4.779-1.184l2.894-1.758s-1.013,1.569-1.861,2.585c-1.779,2.134-4.494.9-7.107,2.229C404.2,388.747,404.056,388.634,403.917,388.518Z" transform="translate(-402.189 -344.101)"/><path class="l" d="M413.356,393.348c1.388-.3,2.789-.666,4.231-.955l-1.835-.544.076-2.145s-.612,2.044-4.3,3.042Q412.429,393.076,413.356,393.348Z" transform="translate(-401.248 -343.402)"/><path class="e" d="M411.63,364.745a19.163,19.163,0,0,1,4.3-13.074C413.329,355.714,412.284,360.5,411.63,364.745Z" transform="translate(-401.242 -348.102)"/><path class="e" d="M431.2,364.208c-.2-4.29-2.548-8.764-5.862-12.977a59.218,59.218,0,0,1,4.072,8.277,16.6,16.6,0,0,1,1.138,5.121C430.778,364.485,431,364.344,431.2,364.208Z" transform="translate(-399.542 -348.157)"/><path class="k" d="M426.365,349.769a10.525,10.525,0,0,1,5.812,8.122c.527,3.757-.2,8.136-.543,12.071-.164,1.909-1.7,3.717-1.493,5.3.316,2.384,1.051,2.142,1.652,2.016a1.2,1.2,0,0,1,.282-.029c-1.53,2.388-3.89,4.2-7.877,5.379,6.854-7.057,7.815-16.27,5.137-26.556C428.222,351.789,426.715,350.112,426.365,349.769Z" transform="translate(-399.682 -348.338)"/><g transform="translate(12.908 13.978)"><path class="g" d="M423.1,362.074c-.1-.278-.165-.465-.107-.578a11.292,11.292,0,0,1,2.592-.517,2.646,2.646,0,0,1,2.745,1.142,2.755,2.755,0,0,0-2.588-.471C424.561,361.9,423.274,362.552,423.1,362.074Z" transform="translate(-412.742 -360.935)"/><path class="g" d="M419.1,362.074c.1-.278.164-.465.106-.578a11.278,11.278,0,0,0-2.591-.517,2.645,2.645,0,0,0-2.745,1.142,2.754,2.754,0,0,1,2.588-.471C417.632,361.9,418.92,362.552,419.1,362.074Z" transform="translate(-413.867 -360.935)"/></g></g></svg>