<svg xmlns="http://www.w3.org/2000/svg" xmlns:xlink="http://www.w3.org/1999/xlink" width="58.515" height="58.515" viewBox="0 0 58.515 58.515"><defs><style>.a,.c,.d,.e,.f,.g,.h,.i,.j,.k,.l,.m,.n{fill-rule:evenodd;}.a{fill:url(#a);}.b{fill:#29a080;}.c{fill:#27876d;}.d{fill:#345a87;}.e{fill:#2d4969;}.f{fill:#ffe0a9;}.g{fill:#1a1a1a;}.h{fill:#fff;}.i{fill:#e5e3ec;}.j{fill:#e3e2eb;}.k{fill:#c3c1ca;}.l{fill:#cdcbd4;}.m{fill:#d7d7dc;}.n{fill:#d6d4de;}</style><linearGradient id="a" y1="0.5" x2="1" y2="0.5" gradientUnits="objectBoundingBox"><stop offset="0" stop-color="#b600ff"/><stop offset="1" stop-color="#cc4cbf"/></linearGradient></defs><path class="a" d="M362.917,341.927a29.258,29.258,0,1,1-29.257,29.257A29.257,29.257,0,0,1,362.917,341.927Z" transform="translate(-333.66 -341.927)"/><g transform="translate(8.83 6.691)"><rect class="b" width="7.682" height="6.095" transform="translate(16.88 28.839)"/><path class="c" d="M355.984,373.549h8.986v5.289l-2.549-.334-6.477-4.49Z" transform="translate(-339.736 -344.71)"/><path class="d" d="M369.814,378.7s3.44.843,5.676,1.639c.774.276,1.266,1.2,1.654,2.006a24.432,24.432,0,0,1,1.265,5.682,29.328,29.328,0,0,1-6.451,4.568Z" transform="translate(-338.022 -344.073)"/><path class="e" d="M372.5,390.9l.673-2.319.221,1.792C373.1,390.554,372.8,390.728,372.5,390.9Z" transform="translate(-337.69 -342.852)"/><path class="d" d="M350.528,378.7s-3.44.843-5.676,1.639c-.774.276-1.265,1.2-1.654,2.006a24.538,24.538,0,0,0-1.265,5.681,29.3,29.3,0,0,0,6.452,4.568Z" transform="translate(-341.468 -344.073)"/><path class="e" d="M346.993,390.9l-.673-2.318-.22,1.791Q346.542,390.643,346.993,390.9Z" transform="translate(-340.953 -342.852)"/><path class="d" d="M376.864,391.8c.779-4.412,1.508-8.464,1.915-11.131-4.083-1.5-8.107-3.383-12.4-3.668l-4.925.03-3.427-.021c-2.652-.016-11.247,2.617-13.5,3.545.43,2.64,1.129,6.784,1.855,11.311a29.279,29.279,0,0,0,30.478-.065Z" transform="translate(-341.147 -344.284)"/><path class="f" d="M357.584,352.162h7.061c3.706,0,7.248,3.069,6.738,6.737l-1.277,9.164a15.472,15.472,0,0,1-3.01,7.282,7.031,7.031,0,0,1-5.981,2.985h0a7.032,7.032,0,0,1-5.978-2.981,15.792,15.792,0,0,1-3.015-7.286l-1.275-9.164C350.336,355.229,353.879,352.162,357.584,352.162Z" transform="translate(-340.372 -347.353)"/><path class="g" d="M365.383,355.625a68.681,68.681,0,0,0-8.2,1.792c-7.474,2.507-4.773,4.727-5.474,5.752-.312.456.244,2.387.221,4-1.558-3.733-2.149-9.506-1.025-11.88,5.478-11.566,21.528-7.218,21.665,5.076a14.863,14.863,0,0,1-.49,3.984,3.479,3.479,0,0,1-1.565,2.237C370.7,361.359,367.882,359.26,365.383,355.625Z" transform="translate(-340.432 -347.801)"/><path class="g" d="M355.44,363.44a1.011,1.011,0,1,1-1.011,1.012A1.012,1.012,0,0,1,355.44,363.44Z" transform="translate(-339.924 -345.959)"/><path class="g" d="M353.34,364.222h4.1S355.057,362.352,353.34,364.222Z" transform="translate(-340.058 -345.965)"/><path class="g" d="M364.742,363.44a1.011,1.011,0,1,0,1.011,1.011A1.012,1.012,0,0,0,364.742,363.44Z" transform="translate(-338.774 -345.959)"/><path class="g" d="M367.07,364.222h-4.1S365.354,362.352,367.07,364.222Z" transform="translate(-338.868 -345.965)"/><path class="h" d="M356.487,369.781a26.868,26.868,0,0,0,7.849,0c-1.416,1.86-2.76,2.489-3.925,2.5C359.246,372.27,357.9,371.641,356.487,369.781Z" transform="translate(-339.669 -345.176)"/><path class="g" d="M365.377,355.717s-3.812-.848-6.6.087c-7.474,2.507-6.209,6.044-6.91,7.068-.314.456.078,2.775.055,4.384-1.56-3.733-2.151-9.506-1.026-11.88,5.477-11.566,21.529-7.218,21.665,5.075a14.863,14.863,0,0,1-.489,3.984,3.478,3.478,0,0,1-1.565,2.238C370.693,361.451,367.881,359.542,365.377,355.717Z" transform="translate(-340.432 -347.79)"/><path class="i" d="M353.232,377.815a25.015,25.015,0,0,0-1.757-7.639,24.875,24.875,0,0,1-1.147-6.858c-.214-5.053.152-9.5,3.6-12.4a11.99,11.99,0,0,1,8.217-3.037c5.4,0,11.008,3.153,11.908,9.554.528,3.757-.2,8.136-.542,12.07-.165,1.91-1.7,3.718-1.494,5.3.315,2.385,1.051,2.143,1.652,2.016,1.046-.219,1.049.84.672,1.558-.893,1.7-1.193,3.379,1.03,3.818,4.206.833.57-.165,5.94,2.315,1.044.481.155,4.492.124,4.917s.462,1.143.64,1.673a1.862,1.862,0,0,1,.092.49,29.252,29.252,0,0,1-40.652-.2c.207-3.109.448-6.393,2.983-7.536,2.093-.943,4.152-1.352,5.91-2.02,1.61-.612,2.874-1.428,2.82-4.02Zm15-2.131a13.752,13.752,0,0,0,1.356-2.122,11.189,11.189,0,0,0,1.306-5.512c0-3.143-.407-6.521-1.929-8.709-3.185-4.579-9.381-5.166-13.059-.634-1.674,2.062-2.9,4.779-2.471,9.846a15.531,15.531,0,0,0,2.839,7.136,7.033,7.033,0,0,0,5.979,2.981h0A7.08,7.08,0,0,0,368.236,375.684Z" transform="translate(-341.519 -347.882)"/><path class="j" d="M376.53,379.711c.449.227,1.031.51,1.8.864,1.043.481.448,4.492.418,4.917s.462,1.143.639,1.673a1.835,1.835,0,0,1,.062.234,29.225,29.225,0,0,1-13.754,7.594,30.21,30.21,0,0,0,6.069-5.627A29.833,29.833,0,0,0,376.53,379.711Z" transform="translate(-338.531 -343.948)"/><path class="k" d="M365.693,393.534c.748-.531,1.642-1.211,2.578-2.022a10.187,10.187,0,0,1,.325,1.176A29.2,29.2,0,0,1,365.693,393.534Z" transform="translate(-338.531 -342.49)"/><path class="l" d="M371.166,388.746a26.053,26.053,0,0,1,.266,2.8c-.115.058-.23.116-.346.172Q371.143,390.256,371.166,388.746Z" transform="translate(-337.865 -342.832)"/><path class="l" d="M369.546,390.144c.229-.233.457-.471.682-.718.029.806.044,1.7.038,2.682-.291.128-.584.251-.879.371Q369.474,391.333,369.546,390.144Z" transform="translate(-338.075 -342.748)"/><path class="k" d="M374.187,390.526c.119-3,.208-5.838.339-8.364.138,2.688.266,5.312.347,7.89Q374.535,390.293,374.187,390.526Z" transform="translate(-337.482 -343.645)"/><path class="l" d="M372.183,376.408a1.656,1.656,0,0,0,1.255,2.166L362.378,392.7l-2.136,2.136a17.5,17.5,0,0,1,1.835-3.5,25.541,25.541,0,0,0,2.036-3.7l-6.106,3.67,11.91-10.809L354.1,386.46S367.915,380.9,372.183,376.408Z" transform="translate(-339.964 -344.357)"/><path class="m" d="M354.189,358.054c.051-.066.1-.133.154-.2a7.923,7.923,0,0,1,12.737.2Z" transform="translate(-339.953 -347.034)"/><path class="l" d="M347.794,381.21c.981.158,3.515-1.758,5.479-1.758s2.663.027,2.663.027S354.359,381.779,347.794,381.21Z" transform="translate(-340.743 -343.98)"/><path class="n" d="M342.9,388.4a3.266,3.266,0,0,1,1.94-2.028c1.418-.5,3.268-.267,4.779-1.185l2.9-1.757s-1.015,1.569-1.862,2.584c-1.891,2.271-4.843.734-7.6,2.515Z" transform="translate(-341.349 -343.488)"/><path class="l" d="M351.33,393c1.824-.321,3.654-.838,5.558-1.219l-1.835-.543.078-2.145s-.735,2.444-5.418,3.292Q350.51,392.713,351.33,393Z" transform="translate(-340.506 -342.789)"/><path class="l" d="M350.809,364.13a19.16,19.16,0,0,1,4.3-13.072C352.507,355.1,351.463,359.887,350.809,364.13Z" transform="translate(-340.377 -347.489)"/><path class="l" d="M370.379,363.594c-.2-4.29-2.548-8.764-5.862-12.976a59.305,59.305,0,0,1,4.072,8.276,16.637,16.637,0,0,1,1.138,5.122C369.956,363.872,370.174,363.731,370.379,363.594Z" transform="translate(-338.677 -347.544)"/><path class="n" d="M365.543,349.154a10.531,10.531,0,0,1,5.812,8.125c.528,3.757-.2,8.136-.542,12.07-.165,1.91-1.7,3.718-1.494,5.3.315,2.385,1.051,2.143,1.652,2.016a1.192,1.192,0,0,1,.283-.029c-1.531,2.388-3.891,4.2-7.879,5.38,6.854-7.058,7.815-16.27,5.138-26.556C367.4,351.175,365.894,349.5,365.543,349.154Z" transform="translate(-338.818 -347.725)"/><path class="g" d="M357.919,361.3c.087-.282.162-.453.071-.543a3.75,3.75,0,0,0-2.618-.585c-1.5.127-2.318.694-2.665,1.467a3.823,3.823,0,0,1,2.949-.6C356.892,361.1,357.772,361.783,357.919,361.3Z" transform="translate(-340.136 -346.366)"/><path class="g" d="M362.284,361.3c-.085-.282-.161-.453-.071-.543a3.754,3.754,0,0,1,2.619-.585c1.5.127,2.318.694,2.664,1.467a3.822,3.822,0,0,0-2.949-.6C363.31,361.1,362.433,361.783,362.284,361.3Z" transform="translate(-338.966 -346.366)"/></g></svg>