<svg xmlns="http://www.w3.org/2000/svg" xmlns:xlink="http://www.w3.org/1999/xlink" width="58.515" height="58.515" viewBox="0 0 58.515 58.515"><defs><style>.a,.b,.d,.e,.f,.g,.h,.i,.j,.k,.l{fill-rule:evenodd;}.a{fill:url(#a);}.b{fill:#25725e;}.c,.e{fill:#29a080;}.d{fill:#27876d;}.f{fill:#d99662;}.g{fill:#1a1a1a;}.h{fill:#32ad93;}.i{fill:#309e87;}.j{fill:#59bca8;}.k{fill:#47b59e;}.l{fill:#fff;}</style><linearGradient id="a" y1="0.5" x2="1" y2="0.5" gradientUnits="objectBoundingBox"><stop offset="0" stop-color="#b6c4ff"/><stop offset="1" stop-color="#e90054"/></linearGradient></defs><path class="a" d="M484.561,341.927A29.258,29.258,0,1,1,455.3,371.184,29.257,29.257,0,0,1,484.561,341.927Z" transform="translate(-455.303 -341.927)"/><g transform="translate(9.313 7.313)"><path class="b" d="M474.854,363.376c1.624-3.149,4.539-6.288,7.98-6.56a6.6,6.6,0,0,1,3.816.82,12.145,12.145,0,0,1,4.116,3.867c.694.983.367,2.97.327,4.217a26.767,26.767,0,0,1-1.048,6.181c-.072.47-2.892,8.639-2.892,8.639s-2.927,6.975-4.156,8.566a25.452,25.452,0,0,1-2.061,2.4c-3.382-4.451-6.358-12.071-6.876-19.608C473.858,368.99,473.81,365.4,474.854,363.376Z" transform="translate(-462.313 -347.403)"/><rect class="c" width="7.682" height="6.095" transform="translate(16.397 28.35)"/><path class="d" d="M477.627,373.668h8.985v5.289l-2.549-.334-6.477-4.49Z" transform="translate(-461.862 -345.318)"/><path class="e" d="M491.457,378.819s3.44.844,5.677,1.64c.773.276,1.265,1.2,1.653,2.007a23.936,23.936,0,0,1,1.249,5.563,29.392,29.392,0,0,1-6.454,4.563Z" transform="translate(-460.148 -344.681)"/><path class="d" d="M494.186,390.858l.627-2.158.194,1.674C494.738,390.54,494.464,390.7,494.186,390.858Z" transform="translate(-459.811 -343.46)"/><path class="e" d="M472.171,378.819s-3.44.844-5.676,1.64c-.775.276-1.266,1.2-1.655,2.007a24.088,24.088,0,0,0-1.247,5.563,29.418,29.418,0,0,0,6.453,4.562Z" transform="translate(-463.592 -344.681)"/><path class="d" d="M468.587,390.858l-.627-2.158-.193,1.674C468.038,390.54,468.311,390.7,468.587,390.858Z" transform="translate(-463.076 -343.46)"/><path class="e" d="M498.534,391.766c.767-4.355,1.485-8.345,1.888-10.981-4.083-1.5-8.107-3.384-12.4-3.67l-4.925.031-3.427-.022c-2.652-.016-11.247,2.617-13.5,3.545.426,2.611,1.113,6.693,1.83,11.162a29.277,29.277,0,0,0,30.529-.065Z" transform="translate(-463.273 -344.892)"/><path class="f" d="M479.227,352.281h7.062c3.7,0,7.248,3.068,6.737,6.737l-1.276,9.165a15.485,15.485,0,0,1-3.011,7.281,7.031,7.031,0,0,1-5.981,2.985h0a7.03,7.03,0,0,1-5.977-2.981,15.792,15.792,0,0,1-3.015-7.285l-1.275-9.165C471.979,355.348,475.523,352.281,479.227,352.281Z" transform="translate(-462.498 -347.961)"/><path class="g" d="M487.026,355.744a21.982,21.982,0,0,1-5.826,3.5c-7.474,2.508-7.152,3.021-7.852,4.046-.312.456.244,2.386.222,4-1.561-3.733-2.152-9.507-1.028-11.88,5.477-11.566,21.53-7.218,21.666,5.076a14.813,14.813,0,0,1-.49,3.984,3.472,3.472,0,0,1-1.564,2.237C492.342,361.478,488.226,360.592,487.026,355.744Z" transform="translate(-462.558 -348.409)"/><path class="h" d="M468.7,372.763a41.287,41.287,0,0,1,1.851-11.445,39.887,39.887,0,0,1,4.119-9.356c1.736-2.471,5.354-3.485,8.261-3.524,2.984-.04,5.034.473,6.859,1.791,3.83,2.767,5.425,8.055,5.367,13.426-.071,6.938-.576,13.156-.144,15.543s1.735,3.325,1.735,4.12a69.774,69.774,0,0,1,.217,7.518c-.055,1.57,0,3.362.018,5.2a29.315,29.315,0,0,1-25.308,1.361,5.505,5.505,0,0,0-.222-.566c-3.083-6.789-2.994-18.171-2.753-24.071Zm14.792-14.913c-2.589.2-7.144,3.085-8.148,5.755-1.026,2.726-.744,6.839-.627,9.331a37.6,37.6,0,0,0,6.876,19.608,25.447,25.447,0,0,0,2.061-2.4c1.229-1.591,4.156-8.566,4.156-8.566s2.82-8.17,2.892-8.639a26.833,26.833,0,0,0,1.048-6.181c.04-1.247.367-3.235-.327-4.217a12.145,12.145,0,0,0-4.116-3.867A6.6,6.6,0,0,0,483.495,357.849Z" transform="translate(-462.973 -348.436)"/><path class="i" d="M492.575,368.4a53.369,53.369,0,0,0,.043,8.333,7.478,7.478,0,0,0,.181.766c-.289,4.028-.562,7.139-.613,11.594-.019,1.5-.087,3.571-.255,5.771A29.031,29.031,0,0,1,488,396.2c.339-1.726.676-3.918,1.074-6.75C489.988,382.95,491.037,373.835,492.575,368.4Z" transform="translate(-460.575 -345.969)"/><path class="j" d="M492.366,376.5c.535,1.831,1.554,2.649,1.554,3.354a69.774,69.774,0,0,1,.217,7.518c-.055,1.57,0,3.362.018,5.2a29.442,29.442,0,0,1-2.657,1.29c.169-2.2.236-4.274.255-5.771C491.8,383.635,492.078,380.524,492.366,376.5Z" transform="translate(-460.143 -344.968)"/><path class="j" d="M473.794,366.816s-1.121-6.326.073-9.577,2.6-4.735,4.445-5.675a8.243,8.243,0,0,1,5.061-1.193c2.131.145,4.807,1.157,5.854,2.385s3.326,2.639,3.508,6.76.144,11.675-1.591,16.373a39.389,39.389,0,0,1-7.071,12.334h0c1.367-2.621,3.156-6.883,3.156-6.883s2.82-8.17,2.892-8.639a33.712,33.712,0,0,0,.7-7.306c-.207-4.455-4.149-5.773-8.059-5.741-3.429.027-6.811.958-7.94,3.581a16.782,16.782,0,0,0-.7,4.608C473.91,367.191,473.794,366.816,473.794,366.816Z" transform="translate(-462.39 -348.201)"/><path class="k" d="M468.7,372.45a41.3,41.3,0,0,1,1.851-11.445,39.814,39.814,0,0,1,4.126-9.366c.117-.143.653-.76.734-.663.373.446.372,1.989.9,2.629a12.929,12.929,0,0,0-1.858,3.556c-1.194,3.252-.073,9.577-.073,9.577s.116.375.322,1.025a15.986,15.986,0,0,0,.445,5.053c1.951,6.863,4.842,12.121,6.451,19.414,0,0-1.531,3.043-6.112,6.139a29.007,29.007,0,0,1-3.806-1.283,5.505,5.505,0,0,0-.222-.566C468.372,389.732,468.461,378.35,468.7,372.45Z" transform="translate(-462.973 -348.123)"/><path class="i" d="M468.7,372.125a41.288,41.288,0,0,1,1.851-11.445l.04-.124.019-.058.021-.065.038-.118,0-.007v0l.11-.33.008-.024.006-.013.042-.122.013-.044.028-.079.034-.1.008-.021.042-.121.013-.037.029-.085.031-.094.01-.027.043-.121.01-.029.033-.091.032-.087.011-.034.044-.12.034-.1.009-.022.028-.079.015-.04.043-.119.007-.016.037-.1.026-.071.018-.047.043-.118,0-.008.04-.109.025-.064.019-.053.044-.116h0l.043-.115.021-.055.022-.06.043-.11v-.006l.044-.113.02-.048.026-.065.039-.1,0-.011.045-.112.016-.043.028-.07.037-.094.008-.017.044-.111.013-.035.031-.076.035-.087.01-.022.045-.11.011-.028.033-.08.033-.08.012-.028.045-.108.01-.021.035-.086.03-.071.015-.034.045-.106.007-.017.038-.089.029-.065.016-.039.045-.1,0-.01.042-.093.025-.058.02-.044.045-.1v0l.044-.1.024-.051.021-.049.045-.1v0l.046-.1.019-.044.026-.054.042-.089,0-.009.044-.1.018-.037.028-.058.038-.082.007-.012.045-.094.015-.03,0-.007.064-.131.009-.017.045-.091.012-.026.033-.064c0,.015-1.331,12.315-1.187,19.683s.289,11.566.579,15.109.434,5.964,1.843,6.794a10.88,10.88,0,0,0,3.155,1.144,28.17,28.17,0,0,1-2.269,1.717,28.928,28.928,0,0,1-3.8-1.283,5.5,5.5,0,0,0-.222-.566C468.372,389.407,468.461,378.025,468.7,372.125Z" transform="translate(-462.973 -347.798)"/><g transform="translate(13.092 16.643)"><path class="g" d="M477.336,363.363a.939.939,0,1,1-.939.938A.938.938,0,0,1,477.336,363.363Z" transform="translate(-475.101 -363.234)"/><path class="g" d="M475.244,364.081h4.1S476.96,362.209,475.244,364.081Z" transform="translate(-475.244 -363.249)"/></g><g transform="translate(23.325 16.643)"><path class="g" d="M486.117,363.363a.939.939,0,1,0,.939.938A.939.939,0,0,0,486.117,363.363Z" transform="translate(-484.249 -363.234)"/><path class="g" d="M488.453,364.081h-4.1S486.738,362.209,488.453,364.081Z" transform="translate(-484.351 -363.249)"/></g><path class="l" d="M478.132,370.161a26.845,26.845,0,0,0,7.846,0c-1.416,1.858-2.758,2.489-3.924,2.5C480.89,372.65,479.548,372.019,478.132,370.161Z" transform="translate(-461.795 -345.751)"/><path class="d" d="M473.319,361.033a9.047,9.047,0,0,1,4.07-5.688c-3.074,3.266-3.653,5.291-3.985,7.691C473.356,362.4,473.323,361.724,473.319,361.033Z" transform="translate(-462.39 -347.582)"/><path class="d" d="M491.366,361.565c-1.182-3-3.38-5.767-6.424-6.752,3.176,1.109,5.564,5.267,6.418,8.955C491.373,363,491.375,362.261,491.366,361.565Z" transform="translate(-460.953 -347.648)"/><g transform="translate(12.466 13.987)"><path class="g" d="M483.917,362.023c-.1-.276-.163-.465-.106-.578a11.357,11.357,0,0,1,2.592-.517,2.65,2.65,0,0,1,2.745,1.143,2.753,2.753,0,0,0-2.588-.471C485.382,361.849,484.095,362.5,483.917,362.023Z" transform="translate(-473.562 -360.885)"/><path class="g" d="M479.918,362.023c.1-.276.164-.465.106-.578a11.342,11.342,0,0,0-2.591-.517,2.651,2.651,0,0,0-2.746,1.143,2.754,2.754,0,0,1,2.589-.471C478.454,361.849,479.741,362.5,479.918,362.023Z" transform="translate(-474.687 -360.885)"/></g></g></svg>