<svg xmlns="http://www.w3.org/2000/svg" xmlns:xlink="http://www.w3.org/1999/xlink" width="36" height="36" viewBox="0 0 36 36"><defs><style>.a{fill:url(#a);}.b{fill:#fff;}</style><radialGradient id="a" cx="0.19" cy="0.946" r="1.09" gradientTransform="translate(-0.668 0.505) rotate(-51.459)" gradientUnits="objectBoundingBox"><stop offset="0" stop-color="#ffd739"/><stop offset="0.264" stop-color="#f52e2e"/><stop offset="1" stop-color="#731ee2"/></radialGradient></defs><circle class="a" cx="18" cy="18" r="18"/><path class="b" d="M10,7a3,3,0,1,0,2.121.879A3,3,0,0,0,10,7Zm0-2A5,5,0,1,1,6.464,6.464,5,5,0,0,1,10,5Zm6.5-.25a1.25,1.25,0,1,1-.366-.884A1.25,1.25,0,0,1,16.5,4.75ZM10,2c-2.474,0-2.878.007-4.029.058a5.433,5.433,0,0,0-1.8.332,2.886,2.886,0,0,0-1.08.7,2.89,2.89,0,0,0-.7,1.08,5.425,5.425,0,0,0-.331,1.8C2.006,7.075,2,7.461,2,10c0,2.474.007,2.878.058,4.029a5.454,5.454,0,0,0,.331,1.8,3.109,3.109,0,0,0,1.782,1.783,5.444,5.444,0,0,0,1.8.333c1.1.052,1.49.058,4.029.058,2.474,0,2.878-.007,4.029-.058a5.465,5.465,0,0,0,1.8-.331,2.921,2.921,0,0,0,1.08-.7,2.891,2.891,0,0,0,.7-1.08,5.467,5.467,0,0,0,.332-1.8c.052-1.1.058-1.49.058-4.029,0-2.474-.007-2.878-.058-4.029a5.443,5.443,0,0,0-.332-1.8,2.911,2.911,0,0,0-.7-1.08,2.884,2.884,0,0,0-1.08-.7,5.43,5.43,0,0,0-1.8-.331C12.925,2.006,12.539,2,10,2Zm0-2c2.717,0,3.056.01,4.122.06A7.367,7.367,0,0,1,16.55.525a4.876,4.876,0,0,1,1.772,1.153A4.907,4.907,0,0,1,19.475,3.45a7.387,7.387,0,0,1,.465,2.428C19.987,6.944,20,7.283,20,10s-.01,3.056-.06,4.122a7.393,7.393,0,0,1-.465,2.428,5.106,5.106,0,0,1-2.925,2.925,7.387,7.387,0,0,1-2.428.465c-1.066.047-1.4.06-4.122.06s-3.056-.01-4.122-.06a7.393,7.393,0,0,1-2.428-.465,4.89,4.89,0,0,1-1.772-1.153A4.9,4.9,0,0,1,.525,16.55,7.361,7.361,0,0,1,.06,14.122C.013,13.056,0,12.717,0,10S.01,6.944.06,5.878A7.361,7.361,0,0,1,.525,3.45,4.88,4.88,0,0,1,1.678,1.678,4.9,4.9,0,0,1,3.45.525,7.361,7.361,0,0,1,5.878.06C6.944.013,7.283,0,10,0Z" transform="translate(8 9)"/></svg>