<svg xmlns="http://www.w3.org/2000/svg" width="81.357" height="81.569" viewBox="0 0 81.357 81.569"><defs><style>.a{fill:#bfe9ff;}.b{fill:#004e6e;}</style></defs><g transform="translate(-1.251 -1.065)"><path class="a" d="M76.133,59.988a28.975,28.975,0,1,1-12.92-37.681,2.634,2.634,0,0,1-1.067,4.965A16.105,16.105,0,1,0,72.169,56.721a2.634,2.634,0,0,1,3.964,3.266ZM60.578,33.673,58.55,37.8l-4.557.672a2.634,2.634,0,0,0-1.462,4.491l3.293,3.214L55.047,50.7a2.634,2.634,0,0,0,3.833,2.779l4.07-2.147,4.07,2.147A2.634,2.634,0,0,0,70.838,50.7l-.777-4.531,3.293-3.214a2.634,2.634,0,0,0-1.449-4.491L67.348,37.8,65.32,33.673a2.634,2.634,0,0,0-4.741,0Z" transform="translate(6.195 5.686)"/><path class="b" d="M60.688,22.052a27.658,27.658,0,0,0-53.683,0,6.585,6.585,0,0,0,0,13.065,27.658,27.658,0,0,0,53.683,0,6.585,6.585,0,0,0,0-13.065Zm-1.818,6.585a23.709,23.709,0,0,1-.237,3.24L54.92,22.052h3.029a24.761,24.761,0,0,1,.922,6.585ZM33.847,3.613a25.024,25.024,0,0,1,23.246,15.8H10.6A25.024,25.024,0,0,1,33.847,3.613ZM8.823,28.638a24.761,24.761,0,0,1,.909-6.585h3.042L9.06,31.878a23.707,23.707,0,0,1-.237-3.24Zm-5.268,0a3.951,3.951,0,0,1,2.924-3.793,27.659,27.659,0,0,0-.29,3.793,27.659,27.659,0,0,0,.29,3.793,3.951,3.951,0,0,1-2.924-3.793ZM33.847,53.662A25.024,25.024,0,0,1,10.14,36.54l5.453-14.488H52.114L57.554,36.54A25.024,25.024,0,0,1,33.847,53.662ZM61.215,32.431a27.657,27.657,0,0,0,.29-3.793,27.659,27.659,0,0,0-.29-3.793,3.951,3.951,0,0,1,0,7.586ZM48.677,41.15a17.122,17.122,0,0,1-29.66,0A1.317,1.317,0,1,1,21.3,39.833a14.488,14.488,0,0,0,25.1,0,1.317,1.317,0,1,1,2.279,1.317Z" transform="translate(0)"/></g></svg>