<svg xmlns="http://www.w3.org/2000/svg" xmlns:xlink="http://www.w3.org/1999/xlink" width="101.348" height="99.691" viewBox="0 0 101.348 99.691"><defs><style>.a{fill:url(#a);}.b,.c{stroke:none;}.c{fill:#fcfcfc;}</style><linearGradient id="a" x1="0.5" x2="0.304" y2="1.044" gradientUnits="objectBoundingBox"><stop offset="0" stop-color="#ffd500"/><stop offset="0.594" stop-color="#fbed97"/><stop offset="1" stop-color="#f9fdff"/></linearGradient></defs><g class="a" transform="translate(61.885 99.691) rotate(-145)"><path class="b" d="M 60.01493072509766 67.30755615234375 L 38.1310920715332 58.94341659545898 L 37.77407073974609 58.80696105957031 L 37.41704940795898 58.94341659545898 L 15.53320980072021 67.30755615234375 L 17.07422637939453 44.85103988647461 L 17.10251426696777 44.43869400024414 L 16.8314380645752 44.1266975402832 L 1.832048773765564 26.86329650878906 L 24.60041427612305 21.33017349243164 L 24.98288154602051 21.23722839355469 L 25.19938278198242 20.90852928161621 L 37.77407073974609 1.817930936813354 L 50.34874725341797 20.90851783752441 L 50.56525039672852 21.23721885681152 L 50.94771575927734 21.33016204833984 L 73.71609497070313 26.86329650878906 L 58.71670532226563 44.1266975402832 L 58.44562530517578 44.43869400024414 L 58.47391510009766 44.85103988647461 L 60.01493072509766 67.30755615234375 Z"/><path class="c" d="M 37.77407073974609 3.6358642578125 L 26.03450393676758 21.45859527587891 L 25.60148239135742 22.11598587036133 L 24.8365592956543 22.30187225341797 L 3.664085388183594 27.44717407226563 L 17.5863151550293 43.47082901000977 L 18.12847137451172 44.09481811523438 L 18.07188034057617 44.91949462890625 L 16.63800430297852 65.81473541259766 L 37.06003570556641 58.00931930541992 L 37.77407073974609 57.73641967773438 L 38.48810577392578 58.00931930541992 L 58.91014099121094 65.81473541259766 L 57.47625732421875 44.91949462890625 L 57.41967010498047 44.09481811523438 L 57.96182632446289 43.47082901000977 L 71.88405609130859 27.44717407226563 L 50.71157073974609 22.30187225341797 L 49.94664764404297 22.11598587036133 L 49.51362609863281 21.45859527587891 L 37.77407073974609 3.6358642578125 M 37.77407073974609 -7.62939453125e-06 L 51.18386077880859 20.35844039916992 L 75.54813385009766 26.2794075012207 L 59.47157287597656 44.78257369995117 L 61.11972808837891 68.80036163330078 L 37.77407073974609 59.87751770019531 L 14.42841339111328 68.80036163330078 L 16.07657241821289 44.78257369995117 L 7.62939453125e-06 26.2794075012207 L 24.3642692565918 20.35844039916992 L 37.77407073974609 -7.62939453125e-06 Z"/></g></svg>