<svg xmlns="http://www.w3.org/2000/svg" width="15.014" height="18.63" viewBox="0 0 15.014 18.63"><defs><style>.a,.b{fill:none;stroke:#000;stroke-linecap:round;stroke-linejoin:round;stroke-width:1.5px;}.b{fill-rule:evenodd;}</style></defs><g transform="translate(-0.25 -0.75)"><circle class="a" cx="4.258" cy="4.258" r="4.258" transform="translate(3.496 1.5)"/><path class="b" d="M1,17.373a1.974,1.974,0,0,1,.2-.865,3.6,3.6,0,0,1,2.512-1.444A14.952,14.952,0,0,1,5.8,14.771a22.314,22.314,0,0,1,3.907,0,15.131,15.131,0,0,1,2.088.294A3.466,3.466,0,0,1,14.3,16.508a2.023,2.023,0,0,1,0,1.737,3.432,3.432,0,0,1-2.512,1.436,14.01,14.01,0,0,1-2.088.3,23.014,23.014,0,0,1-3.181.049,3.618,3.618,0,0,1-.726-.049,13.739,13.739,0,0,1-2.08-.3A3.449,3.449,0,0,1,1.2,18.246,2.031,2.031,0,0,1,1,17.373Z" transform="translate(0 -1.435)"/></g></svg>