<svg xmlns="http://www.w3.org/2000/svg" width="79.259" height="80.62" viewBox="0 0 79.259 80.62"><defs><style>.a{fill:#bfe9ff;}.b{fill:#004e6e;}</style></defs><g transform="translate(-1.5 -0.997)"><path class="a" d="M61.176,47.235a1.3,1.3,0,0,1,0,1.845l-2.728,2.728a1.3,1.3,0,0,0-.377.909v4.534a1.3,1.3,0,0,1-1.3,1.3H52.237a1.3,1.3,0,0,0-.909.377l-2.78,2.728a1.3,1.3,0,0,1-1.845,0l-2.728-2.728a1.3,1.3,0,0,0-.909-.377H38.582a1.3,1.3,0,0,1-1.3-1.3V52.718a1.3,1.3,0,0,0-.377-.909l-2.728-2.741a1.3,1.3,0,0,1,0-1.832l2.676-2.754a1.3,1.3,0,0,0,.377-.922v-4.5a1.3,1.3,0,0,1,1.3-1.3h4.534a1.3,1.3,0,0,0,.909-.377L46.7,34.645a1.3,1.3,0,0,1,1.845,0l2.728,2.741a1.3,1.3,0,0,0,.922.377H56.72a1.3,1.3,0,0,1,1.3,1.3v4.521a1.3,1.3,0,0,0,.377.922Zm12.863,3.742-5.574,5.574v8.562a3.9,3.9,0,0,1-3.9,3.9H56.005l-5.574,5.574a3.9,3.9,0,0,1-5.509,0l-5.574-5.574H30.786a3.9,3.9,0,0,1-3.9-3.9V56.486l-5.626-5.509a3.9,3.9,0,0,1,0-5.509l5.574-5.587V31.267a3.9,3.9,0,0,1,3.9-3.9H39.3L44.87,21.8a3.976,3.976,0,0,1,5.509,0l5.574,5.574h8.562a3.9,3.9,0,0,1,3.9,3.9v8.549L73.987,45.4a3.9,3.9,0,0,1,.052,5.574ZM63.021,45.468l-2.352-2.417V36.464a1.3,1.3,0,0,0-1.3-1.3H52.783l-2.352-2.378a4,4,0,0,0-5.509,0l-2.352,2.378H35.983a1.3,1.3,0,0,0-1.3,1.3v6.587L32.332,45.4a3.9,3.9,0,0,0,0,5.509l2.352,2.352v6.587a1.3,1.3,0,0,0,1.3,1.3h6.587L44.922,63.5a3.9,3.9,0,0,0,5.509,0l2.352-2.352H59.37a1.3,1.3,0,0,0,1.3-1.3V53.264l2.352-2.287a3.9,3.9,0,0,0,0-5.574Z" transform="translate(5.573 5.892)"/><path class="b" d="M14.908,12.291a1.3,1.3,0,0,1,1.624-.832l12.226,3.9a1.3,1.3,0,1,1-.793,2.469l-12.226-3.9a1.3,1.3,0,0,1-.832-1.637Zm13.85,22.555-12.226-3.9a1.327,1.327,0,0,0-.793,2.534l12.226,3.9a1.327,1.327,0,1,0,.793-2.534Zm0-6.5-12.226-3.9a1.327,1.327,0,0,0-.793,2.534l12.226,3.9a1.327,1.327,0,1,0,.793-2.534Zm0-6.5-12.226-3.9a1.327,1.327,0,0,0-.793,2.534l12.226,3.9a1.327,1.327,0,1,0,.793-2.534ZM51.431,11.46,39.2,15.358A1.3,1.3,0,1,0,40,17.826l12.226-3.9a1.3,1.3,0,0,0-.793-2.469Zm0,19.489L39.2,34.847A1.3,1.3,0,1,0,40,37.315l12.226-3.9a1.3,1.3,0,0,0-.793-2.469Zm0-6.5L39.2,28.35A1.3,1.3,0,1,0,40,30.819l12.226-3.9a1.3,1.3,0,0,0-.793-2.469Zm0-6.5L39.2,21.854A1.3,1.3,0,1,0,40,24.323l12.226-3.9a1.3,1.3,0,0,0-.793-2.469ZM66.463,6.2v36.38a1.39,1.39,0,0,1-.883,1.3l-23.387,7.8a1.546,1.546,0,0,1-.416,0H26.186a1.546,1.546,0,0,1-.416,0l-23.387-7.8a1.39,1.39,0,0,1-.884-1.3V6.2a1.533,1.533,0,0,1,.715-1.169l7.8-3.9A1.442,1.442,0,0,1,11,1.066L33.982,8.719,56.953,1.066a1.494,1.494,0,0,1,1.065.065l7.8,3.9a1.468,1.468,0,0,1,.65,1.169Zm-2.6,34.275V7l-5.2-2.6V37.874Zm-28.584,4.2,20.788-6.925V4.106L35.281,11.031ZM11.894,37.744l20.788,6.925V11.031L11.894,4.106ZM4.1,40.473l5.2-2.6V4.4L4.1,7Zm22.3,8.6h6.288V47.411L10.7,40.083,6.19,42.331Zm35.379-6.743-4.508-2.248L35.281,47.411v1.663h6.288Z"/></g></svg>