<svg xmlns="http://www.w3.org/2000/svg" width="75" height="81.6" viewBox="0 0 75 81.6"><defs><style>.a{fill:#bfe9ff;}.b{fill:#004e6e;}</style></defs><g transform="translate(-3.5 -0.984)"><path class="a" d="M74.395,41.84a3.947,3.947,0,0,0-3.947-3.947H35.461l-7.237-7.237a2.25,2.25,0,0,0-3.829,1.592v5.645H20.447A3.947,3.947,0,0,0,16.5,41.84V69.471a3.947,3.947,0,0,0,3.947,3.947h50a3.947,3.947,0,0,0,3.947-3.947ZM44.908,65.524h-19.2a1.316,1.316,0,1,1,0-2.632h19.2a1.316,1.316,0,0,1,0,2.632Zm20.276-7.895H25.711a1.316,1.316,0,1,1,0-2.632H65.184a1.316,1.316,0,0,1,0,2.632Zm0-7.895H25.711a1.316,1.316,0,1,1,0-2.632H65.184a1.316,1.316,0,0,1,0,2.632Z" transform="translate(4.105 9.166)"/><path class="b" d="M44.092,38.058a21.816,21.816,0,1,0-31.184,0A25,25,0,0,0,3.5,57.584v7.895a1.316,1.316,0,0,0,1.316,1.316H52.184A1.316,1.316,0,0,0,53.5,65.479V57.584A25,25,0,0,0,44.092,38.058ZM28.5,49.966l-6.237-6.237a21.579,21.579,0,0,0,12.474,0C34.605,43.86,28.276,50.176,28.5,49.966ZM42.237,39.953l.737.605v9.132H36.395V45.742ZM36.395,52.321h6.579V54.15a7.974,7.974,0,0,1-6.579,0ZM28.5,3.637A19.2,19.2,0,0,1,46.7,16.795H10.3A19.2,19.2,0,0,1,28.5,3.637ZM9.632,19.426H47.368a19.184,19.184,0,1,1-37.737,0ZM50.868,64.163H6.132V57.584a22.368,22.368,0,0,1,8.632-17.632l12.8,12.8a1.316,1.316,0,0,0,1.868,0l4.329-4.382v6.579a1.316,1.316,0,0,0,.658,1.145,10.711,10.711,0,0,0,10.526,0,1.316,1.316,0,0,0,.658-1.145V43.2a22.368,22.368,0,0,1,5.263,14.382Zm-34.539-33.5a1.316,1.316,0,0,1,2.211-1.421,11.842,11.842,0,0,0,19.921,0,1.316,1.316,0,1,1,2.211,1.421,14.474,14.474,0,0,1-24.342,0Z" transform="translate(0 0)"/></g></svg>