<svg xmlns="http://www.w3.org/2000/svg" width="36" height="36" viewBox="0 0 36 36"><defs><style>.a{fill:#2caef1;}.b{fill:#fff;}</style></defs><circle class="a" cx="18" cy="18" r="18"/><path class="b" d="M21.162,2.656a8.384,8.384,0,0,1-2.4.658A4.2,4.2,0,0,0,20.6,1a8.358,8.358,0,0,1-2.656,1.015,4.182,4.182,0,0,0-7.126,3.814A11.874,11.874,0,0,1,6.043,4.561,11.874,11.874,0,0,1,2.2,1.459,4.188,4.188,0,0,0,3.492,7.043,4.168,4.168,0,0,1,1.6,6.52v.052a4.185,4.185,0,0,0,3.355,4.1,4.208,4.208,0,0,1-1.89.072A4.185,4.185,0,0,0,6.97,13.65,8.394,8.394,0,0,1,.779,15.382a11.83,11.83,0,0,0,6.41,1.88,11.819,11.819,0,0,0,11.9-11.9c0-.18-.005-.362-.013-.54a8.5,8.5,0,0,0,2.087-2.165Z" transform="translate(8.221 10.312)"/></svg>