<svg xmlns="http://www.w3.org/2000/svg" width="36" height="36" viewBox="0 0 36 36"><defs><style>.a{fill:#ee0909;}.b{fill:#fff;}</style></defs><circle class="a" cx="18" cy="18" r="18"/><path class="b" d="M19.543,2.5A31.058,31.058,0,0,1,20,8a31.058,31.058,0,0,1-.457,5.5A2.811,2.811,0,0,1,17.6,15.524C15.9,16,10,16,10,16s-5.893,0-7.605-.476A2.811,2.811,0,0,1,.457,13.5,31.058,31.058,0,0,1,0,8,31.058,31.058,0,0,1,.457,2.5,2.811,2.811,0,0,1,2.395.476C4.107,0,10,0,10,0s5.9,0,7.6.476A2.811,2.811,0,0,1,19.543,2.5ZM8,11.5,14,8,8,4.5Z" transform="translate(8 10)"/></svg>