<svg xmlns="http://www.w3.org/2000/svg" width="1526.916" height="322.55" viewBox="0 0 1526.916 322.55"><defs><style>.a,.b,.c,.d,.e{fill:none;}.a{opacity:0.37;}.b{opacity:0.21;}.c{opacity:0.947;}.d{opacity:0.47;}.e{opacity:0.963;}.f,.g,.h,.i,.j{stroke:none;}.g{fill:#004e6e;}.h{fill:#2f7c9b;}.i{fill:#86c5e5;}.j{fill:#60b3de;}</style></defs><g transform="translate(42.017 -2890.148)"><g class="a" transform="matrix(0.914, 0.407, -0.407, 0.914, 1269.532, 2905.122)"><path class="f" d="M112.683,8.955a6,6,0,0,1,10.382,0l33.559,57.9a6,6,0,0,0,3.914,2.854l65.193,14.2a6,6,0,0,1,3.208,9.848l-44.47,50.05a6,6,0,0,0-1.485,4.585l6.709,66.737a6,6,0,0,1-8.4,6.086l-60.991-27a6,6,0,0,0-4.858,0l-60.99,27a6,6,0,0,1-8.4-6.086l6.709-66.737a6,6,0,0,0-1.485-4.585L6.81,93.757a6,6,0,0,1,3.208-9.848L75.211,69.7a6,6,0,0,0,3.914-2.854Z"/><path class="g" d="M 117.8742828369141 11.96440124511719 L 84.3154296875 69.86012268066406 C 82.62828063964844 72.77082824707031 79.77531433105469 74.85098266601563 76.48814392089844 75.56718444824219 L 11.2955322265625 89.77165222167969 L 55.76535034179688 139.8220520019531 C 57.98689270019531 142.322265625 59.06913757324219 145.6649017333984 58.73460388183594 148.9928283691406 L 52.02552795410156 215.72998046875 L 113.0158920288086 188.7257232666016 C 114.5556411743164 188.0439453125 116.1902465820313 187.6982269287109 117.8742828369141 187.6982269287109 C 119.5583190917969 187.6982269287109 121.1928863525391 188.0439453125 122.7324981689453 188.7256469726563 L 183.7230682373047 215.72998046875 L 177.0139312744141 148.9927978515625 C 176.6794281005859 145.6649780273438 177.7616424560547 142.3224029541016 179.9831085205078 139.8220825195313 L 224.4530029296875 89.77169799804688 L 159.260498046875 75.56718444824219 C 155.9732818603516 74.85098266601563 153.1203155517578 72.77082824707031 151.4331359863281 69.86012268066406 L 117.8988876342773 11.96722412109375 C 117.8964614868164 11.96644592285156 117.887321472168 11.96440124511719 117.8742828369141 11.96440124511719 M 117.874267578125 5.96441650390625 C 119.891845703125 5.96441650390625 121.909423828125 6.961441040039063 123.0652847290039 8.955474853515625 L 156.6241455078125 66.8511962890625 C 157.4697570800781 68.31004333496094 158.8902130126953 69.34576416015625 160.5377807617188 69.70472717285156 L 225.7303466796875 83.90922546386719 C 230.2128143310547 84.8858642578125 231.9854583740234 90.32736206054688 228.9383239746094 93.75686645507813 L 184.4684295654297 143.8072967529297 C 183.3544616699219 145.0610809326172 182.8161010742188 146.7239074707031 182.9838562011719 148.3927001953125 L 189.6929626464844 215.1298370361328 C 190.0647583007813 218.8280944824219 187.1001434326172 221.7389373779297 183.7292175292969 221.7389373779297 C 182.9271850585938 221.7389373779297 182.1025695800781 221.5743103027344 181.2939300537109 221.2162628173828 L 120.3033905029297 194.2119445800781 C 119.5299072265625 193.8694610595703 118.7020950317383 193.6982116699219 117.8742752075195 193.6982116699219 C 117.0464630126953 193.6982116699219 116.2186431884766 193.8694610595703 115.4451370239258 194.2119445800781 L 54.45463562011719 221.2162628173828 C 53.64625549316406 221.5741882324219 52.82113647460938 221.7389373779297 52.01934814453125 221.7389373779297 C 48.64811706542969 221.7389373779297 45.68379211425781 218.828369140625 46.05560302734375 215.1298370361328 L 52.76470947265625 148.3927001953125 C 52.93246459960938 146.7239074707031 52.39410400390625 145.0610809326172 51.28010559082031 143.8073425292969 L 6.810211181640625 93.75686645507813 C 3.763107299804688 90.32736206054688 5.535751342773438 84.8858642578125 10.01821899414063 83.90922546386719 L 75.21078491210938 69.70472717285156 C 76.85832214355469 69.34576416015625 78.27882385253906 68.31008911132813 79.12442016601563 66.85122680664063 L 112.6832809448242 8.955474853515625 C 113.8391189575195 6.961441040039063 115.8566970825195 5.96441650390625 117.874267578125 5.96441650390625 Z"/></g><g class="b" transform="translate(1015.669 3019.613) rotate(-107)"><path class="f" d="M47.3,8.862a6,6,0,0,1,10.36,0l11.33,19.385A6,6,0,0,0,72.9,31.084L94.867,35.83a6,6,0,0,1,3.2,9.868L83.116,62.387A6,6,0,0,0,81.616,67l2.259,22.281a6,6,0,0,1-8.382,6.1l-20.6-9.046a6,6,0,0,0-4.824,0l-20.6,9.046a6,6,0,0,1-8.382-6.1L23.341,67a6,6,0,0,0-1.5-4.609L6.888,45.7a6,6,0,0,1,3.2-9.868l21.965-4.746a6,6,0,0,0,3.913-2.837Z"/><path class="g" d="M 52.47838592529297 11.89009094238281 L 41.14804077148438 31.27481842041016 C 39.45468139648438 34.17191314697266 36.60233306884766 36.23994445800781 33.32237243652344 36.94865417480469 L 11.35702514648438 41.69482040405273 L 26.30933380126953 58.38369369506836 C 28.5562744140625 60.89163970947266 29.65020751953125 64.25138854980469 29.31058502197266 67.60145568847656 L 27.05189514160156 89.88275146484375 L 47.6539306640625 80.83671569824219 C 49.18409729003906 80.16484069824219 50.80727767944336 79.82416534423828 52.4784049987793 79.82416534423828 C 54.14953231811523 79.82416534423828 55.77271270751953 80.16484069824219 57.30284118652344 80.83669281005859 L 77.90491485595703 89.88276672363281 L 75.64622497558594 67.60145568847656 C 75.30660247802734 64.2513427734375 76.40052795410156 60.89158248901367 78.64749145507813 58.38367462158203 L 93.59978485107422 41.69482040405273 L 71.63444519042969 36.94865417480469 C 68.35446166992188 36.23994445800781 65.50209045410156 34.17191314697266 63.80875015258789 31.27480316162109 L 52.50258636474609 11.89286041259766 C 52.50020599365234 11.89208984375 52.49120330810547 11.89009094238281 52.4784049987793 11.89009094238281 L 52.47838592529297 11.89009094238281 M 52.47840118408203 5.890090942382813 C 54.48932647705078 5.890090942382813 56.50025177001953 6.880844116210938 57.65843963623047 8.86236572265625 L 68.98878479003906 28.24707794189453 C 69.83769226074219 29.69944000244141 71.25733184814453 30.72871398925781 72.90164184570313 31.08399963378906 L 94.86698913574219 35.83016967773438 C 99.36642456054688 36.80238342285156 101.1402740478516 42.27009201049805 98.06855010986328 45.69858551025391 L 83.11625671386719 62.3874397277832 C 81.99015045166016 63.64432907104492 81.44541931152344 65.31736755371094 81.61562347412109 66.99633026123047 L 83.87431335449219 89.27764129638672 C 84.24927520751953 92.97634887695313 81.28511047363281 95.89163208007813 77.91144561767578 95.89163208007813 C 77.11505126953125 95.89163208007813 76.29624938964844 95.72932434082031 75.49269866943359 95.37649536132813 L 54.890625 86.33043670654297 C 54.12196731567383 85.99292755126953 53.30018615722656 85.82417297363281 52.4784049987793 85.82417297363281 C 51.65662384033203 85.82417297363281 50.83484268188477 85.99292755126953 50.06618499755859 86.33043670654297 L 29.464111328125 95.37649536132813 C 28.66082000732422 95.72920989990234 27.84151458740234 95.89163208007813 27.04536437988281 95.89163208007813 C 23.67138671875 95.89163208007813 20.70750427246094 92.97663116455078 21.08248138427734 89.27764129638672 L 23.3411865234375 66.99633026123047 C 23.51138305664063 65.31736755371094 22.96665954589844 63.64434814453125 21.84055328369141 62.3874397277832 L 6.888259887695313 45.69858551025391 C 3.816535949707031 42.27011108398438 5.590385437011719 36.80238342285156 10.08982086181641 35.83016967773438 L 32.05516815185547 31.08399963378906 C 33.69947814941406 30.72871398925781 35.11909484863281 29.69944000244141 35.96800231933594 28.24707794189453 L 47.2983512878418 8.86236572265625 C 48.45655059814453 6.880844116210938 50.46747589111328 5.890090942382813 52.47840118408203 5.890090942382813 Z"/></g><g class="c" transform="translate(-13.962 3016.006) rotate(-107)"><path class="f" d="M42.791,8.928a6,6,0,0,1,10.375,0l9.8,16.858a6,6,0,0,0,3.913,2.849l19.042,4.139a6,6,0,0,1,3.206,9.854l-13,14.591a6,6,0,0,0-1.489,4.592L76.6,81.259a6,6,0,0,1-8.394,6.09L50.4,79.487a6,6,0,0,0-4.848,0l-17.8,7.862a6,6,0,0,1-8.394-6.09L21.32,61.81a6,6,0,0,0-1.489-4.592l-13-14.591a6,6,0,0,1,3.206-9.854l19.042-4.139a6,6,0,0,0,3.913-2.849Z"/><path class="h" d="M 47.97840881347656 11.94206237792969 L 47.97840881347656 11.94208526611328 L 38.18235397338867 28.80001068115234 C 36.49333572387695 31.7066650390625 33.64055252075195 33.78321075439453 30.35548400878906 34.4971923828125 L 11.31389617919922 38.63568496704102 L 24.31059265136719 53.22682952880859 C 26.53968048095703 55.72942733764648 27.62538909912109 59.07715606689453 27.28933715820313 62.41162872314453 L 25.32926177978516 81.86017608642578 L 43.13026428222656 73.99822998046875 C 44.66711807250977 73.31944274902344 46.29826354980469 72.97528076171875 47.97840881347656 72.97528076171875 C 49.65851974487305 72.97528076171875 51.28964614868164 73.31944274902344 52.82651901245117 73.99821472167969 L 70.62753295898438 81.86017608642578 L 68.66748046875 62.41162872314453 C 68.33142852783203 59.07710266113281 69.41715240478516 55.72935485839844 71.64626312255859 53.22677230834961 L 84.64289855957031 38.63570022583008 L 65.60137176513672 34.49717330932617 C 62.31631851196289 33.78322982788086 59.46353530883789 31.70671844482422 57.77446365356445 28.800048828125 L 48.00288009643555 11.94486236572266 C 48.00046157836914 11.94408416748047 47.99137115478516 11.94206237792969 47.97840881347656 11.94206237792969 M 47.9784049987793 5.942070007324219 C 49.99399185180664 5.942070007324219 52.00957107543945 6.937217712402344 53.16611862182617 8.927520751953125 L 62.96219253540039 25.78548431396484 C 63.80880737304688 27.24240875244141 65.22902679443359 28.27619171142578 66.8756103515625 28.63404846191406 L 85.91719055175781 32.77257537841797 C 90.40475463867188 33.74790191650391 92.17777252197266 39.19724655151367 89.12328338623047 42.62646484375 L 76.12662506103516 57.21755599975586 C 75.00901031494141 58.47228240966797 74.46875 60.13815689086914 74.63724517822266 61.80997467041016 L 76.59729766845703 81.25853729248047 C 76.97002410888672 84.95692443847656 74.00555419921875 87.86910247802734 70.63381195068359 87.86910247802734 C 69.83346557617188 87.86910247802734 69.01059722900391 87.70516967773438 68.20348358154297 87.34870147705078 L 50.40246200561523 79.48674011230469 C 49.63041687011719 79.14576721191406 48.80441284179688 78.97528076171875 47.97840881347656 78.97528076171875 C 47.15240478515625 78.97528076171875 46.32640075683594 79.14576721191406 45.55435562133789 79.48674011230469 L 27.75331878662109 87.34870147705078 C 26.94646453857422 87.70505523681641 26.12310028076172 87.86910247802734 25.322998046875 87.86910247802734 C 21.95095062255859 87.86910247802734 18.98676300048828 84.95720672607422 19.35951995849609 81.25852203369141 L 21.31957244873047 61.80999374389648 C 21.48805999755859 60.13815689086914 20.94779205322266 58.4723014831543 19.83019256591797 57.21757507324219 L 6.833534240722656 42.62646484375 C 3.779045104980469 39.19724655151367 5.552047729492188 33.74790191650391 10.03961181640625 32.77257537841797 L 29.08119201660156 28.63406372070313 C 30.72779083251953 28.27619171142578 32.14801025390625 27.24240875244141 32.99460983276367 25.78548431396484 L 42.79067993164063 8.927520751953125 C 43.94723510742188 6.937217712402344 45.96282196044922 5.942070007324219 47.9784049987793 5.942070007324219 Z"/></g><g class="d" transform="translate(702.626 3028.217) rotate(131)"><path class="f" d="M27.617,8.933a6,6,0,0,1,10.377,0l4.637,7.983a6,6,0,0,0,3.913,2.849l9.031,1.964a6,6,0,0,1,3.206,9.853l-6.176,6.937a6,6,0,0,0-1.489,4.591l.93,9.235a6,6,0,0,1-8.395,6.089l-8.422-3.721a6,6,0,0,0-4.85,0l-8.422,3.721a6,6,0,0,1-8.395-6.089l.93-9.235a6,6,0,0,0-1.489-4.591L6.829,31.582a6,6,0,0,1,3.206-9.853l9.031-1.964a6,6,0,0,0,3.913-2.849Z"/><path class="i" d="M 32.80568695068359 11.9461555480957 L 32.8056755065918 11.9461669921875 L 28.16865921020508 19.92962265014648 C 26.47996520996094 22.83702087402344 23.62715530395508 24.91420745849609 20.34173965454102 25.62858200073242 L 11.31052780151367 27.59232711791992 L 17.48684692382813 34.52955627441406 C 19.71455383300781 37.03173065185547 20.79963302612305 40.3785285949707 20.46384811401367 43.7117919921875 L 19.53351211547852 52.94719696044922 L 27.95571517944336 49.22575378417969 C 29.49311447143555 48.54643249511719 31.12487411499023 48.20199584960938 32.80568695068359 48.20199584960938 C 34.48647308349609 48.20199584960938 36.11821746826172 48.54643249511719 37.65566253662109 49.22575378417969 L 46.07784652709961 52.94719696044922 L 45.14751434326172 43.71173858642578 C 44.81175231933594 40.37846374511719 45.89683532714844 37.03167724609375 48.12454223632813 34.529541015625 L 54.30084609985352 27.59232711791992 L 45.26962280273438 25.62858200073242 C 41.98418045043945 24.91418075561523 39.13136672973633 22.83699417114258 37.44269943237305 19.92962265014648 L 32.83019256591797 11.94895553588867 C 32.82776641845703 11.94818115234375 32.81866073608398 11.9461555480957 32.80568695068359 11.9461555480957 M 32.80568695068359 5.946155548095703 C 34.82164001464844 5.946155548095703 36.83758544921875 6.941646575927734 37.9940071105957 8.932636260986328 L 42.63101959228516 16.91609954833984 C 43.47744750976563 18.37338256835938 44.89771270751953 19.40750122070313 46.54448699951172 19.76558303833008 L 55.57569885253906 21.72932815551758 C 60.06231307983398 22.70490264892578 61.83525848388672 28.1528205871582 58.78211212158203 31.58208847045898 L 52.60581970214844 38.519287109375 C 51.48887252807617 39.77383422851563 50.94895172119141 41.43914031982422 51.11730194091797 43.11040878295898 L 52.04763412475586 52.34582138061523 C 52.42020416259766 56.04422760009766 49.45573043823242 58.95613098144531 46.0841064453125 58.95613098144531 C 45.28347015380859 58.95613098144531 44.46023178100586 58.79206085205078 43.65286254882813 58.4353141784668 L 35.23067474365234 54.71387481689453 C 34.45835876464844 54.37261962890625 33.63202285766602 54.20199584960938 32.80568695068359 54.20199584960938 C 31.97935104370117 54.20199584960938 31.15301513671875 54.37261962890625 30.38069915771484 54.71387481689453 L 21.95849990844727 58.4353141784668 C 21.15138626098633 58.79195022583008 20.32765197753906 58.95613479614258 19.52725982666016 58.95613479614258 C 16.15532684326172 58.95613479614258 13.19113922119141 56.04449844360352 13.56372833251953 52.34582138061523 L 14.49406051635742 43.11042022705078 C 14.66242218017578 41.43915557861328 14.12250137329102 39.77384948730469 13.00555419921875 38.519287109375 L 6.829246520996094 31.58208847045898 C 3.776115417480469 28.1528205871582 5.549045562744141 22.70491409301758 10.03567504882813 21.72933959960938 L 19.06687545776367 19.76558303833008 C 20.71364593505859 19.40751647949219 22.13391494750977 18.37338256835938 22.98033905029297 16.91609954833984 L 27.61735534667969 8.932647705078125 C 28.77377319335938 6.941654205322266 30.78973388671875 5.946155548095703 32.80568695068359 5.946155548095703 Z"/></g><g class="e" transform="translate(78.329 3212.698) rotate(-104)"><path class="f" d="M48.717,8.948a6,6,0,0,1,10.38,0l11.81,20.361a6,6,0,0,0,3.914,2.852l22.969,5A6,6,0,0,1,101,47.012L85.312,64.653a6,6,0,0,0-1.486,4.587l2.365,23.507a6,6,0,0,1-8.4,6.087L56.335,89.34a6,6,0,0,0-4.855,0L30.02,98.835a6,6,0,0,1-8.4-6.087l2.365-23.507A6,6,0,0,0,22.5,64.653L6.817,47.012a6,6,0,0,1,3.207-9.849l22.969-5a6,6,0,0,0,3.914-2.852Z"/><path class="j" d="M 53.90681457519531 11.95831298828125 L 42.09637451171875 32.31983184814453 C 40.40867614746094 35.22939300537109 37.55581665039063 37.30853271484375 34.26923370361328 38.02414703369141 L 11.300537109375 43.0252685546875 L 26.98551177978516 60.66654968261719 C 29.20909118652344 63.16744995117188 30.29225158691406 66.51144409179688 29.95729827880859 69.84112548828125 L 27.59257507324219 93.34793090820313 L 49.05137634277344 83.85321044921875 C 50.59035491943359 83.17228698730469 52.22395324707031 82.8270263671875 53.90681457519531 82.8270263671875 C 55.58967590332031 82.8270263671875 57.22327423095703 83.17228698730469 58.76229476928711 83.85322570800781 L 80.22107696533203 93.34793090820313 L 77.85633850097656 69.84112548828125 C 77.52137756347656 66.51148986816406 78.60453796386719 63.16748809814453 80.82809448242188 60.66654968261719 L 96.51307678222656 43.0252685546875 L 73.54445648193359 38.02414703369141 C 70.2578125 37.30854797363281 67.40489196777344 35.2293701171875 65.71723937988281 32.31977081298828 L 53.93139266967773 11.96112823486328 C 53.92897415161133 11.9603271484375 53.91981506347656 11.95831298828125 53.90681457519531 11.95831298828125 M 53.90681457519531 5.958320617675781 C 55.92385101318359 5.958320617675781 57.94088363647461 6.954826354980469 59.09691619873047 8.947845458984375 L 70.90733337402344 29.30931091308594 C 71.75321960449219 30.76764678955078 73.17361450195313 31.80282592773438 74.82091522216797 32.16149139404297 L 97.78959655761719 37.16262817382813 C 102.2734527587891 38.13893127441406 104.0461959838867 43.58256912231445 100.9970550537109 47.01198959350586 L 85.31207275390625 64.65327453613281 C 84.19711303710938 65.90731048583984 83.65823364257813 67.57096862792969 83.82619476318359 69.24057006835938 L 86.19093322753906 92.74736785888672 C 86.56298065185547 96.44577789306641 83.59852600097656 99.35688018798828 80.22726440429688 99.35688018798828 C 79.42577362060547 99.35688018798828 78.60144805908203 99.19239807128906 77.79331207275391 98.83483123779297 L 56.33455276489258 89.34013366699219 C 55.56145477294922 88.99806976318359 54.73413467407227 88.82704162597656 53.90681457519531 88.82704162597656 C 53.07949447631836 88.82704162597656 52.25217437744141 88.99806976318359 51.47907638549805 89.34013366699219 L 30.02031707763672 98.83483123779297 C 29.21243286132813 99.19228363037109 28.38762664794922 99.35687255859375 27.58637237548828 99.35687255859375 C 24.21479034423828 99.35687255859375 21.25060272216797 96.446044921875 21.62269592285156 92.74736785888672 L 23.98743438720703 69.24057006835938 C 24.1553955078125 67.57096862792969 23.61651611328125 65.90731048583984 22.50155639648438 64.65328979492188 L 6.816551208496094 47.01198959350586 C 3.767433166503906 43.58256912231445 5.540176391601563 38.13893127441406 10.02403259277344 37.16262817382813 L 32.99271392822266 32.16150665283203 C 34.63999176025391 31.80282592773438 36.06039428710938 30.76764678955078 36.90629577636719 29.309326171875 L 48.71671295166016 8.947845458984375 C 49.87274551391602 6.954826354980469 51.88977813720703 5.958320617675781 53.90681457519531 5.958320617675781 Z"/></g></g></svg>